TiroDevaSanskrit-Regular.ufo
<glyph name="dI" format="2">
  <advance width="528"/>
  <unicode hex="0907"/>
  <outline>
    <contour>
      <point x="254" y="20" type="curve" smooth="yes"/>
      <point x="358" y="20"/>
      <point x="477" y="79"/>
      <point x="477" y="163" type="curve" smooth="yes"/>
      <point x="477" y="224"/>
      <point x="416" y="319"/>
      <point x="350" y="319" type="curve" smooth="yes"/>
      <point x="312" y="319"/>
      <point x="208" y="291"/>
      <point x="169" y="291" type="curve" smooth="yes"/>
      <point x="131" y="291"/>
      <point x="114" y="320"/>
      <point x="114" y="346" type="curve" smooth="yes"/>
      <point x="114" y="372"/>
      <point x="130" y="395"/>
      <point x="218" y="395" type="curve" smooth="yes"/>
      <point x="422" y="395" type="line"/>
      <point x="434" y="403" type="line"/>
      <point x="434" y="452"/>
      <point x="433" y="515"/>
      <point x="432" y="570" type="curve"/>
      <point x="353" y="570" type="line"/>
      <point x="353" y="469" type="line"/>
      <point x="191" y="469" type="line" smooth="yes"/>
      <point x="99" y="469"/>
      <point x="47" y="448"/>
      <point x="47" y="385" type="curve" smooth="yes"/>
      <point x="47" y="313"/>
      <point x="116" y="220"/>
      <point x="201" y="220" type="curve" smooth="yes"/>
      <point x="247" y="220"/>
      <point x="330" y="247"/>
      <point x="366" y="247" type="curve" smooth="yes"/>
      <point x="388" y="247"/>
      <point x="411" y="238"/>
      <point x="411" y="201" type="curve" smooth="yes"/>
      <point x="411" y="133"/>
      <point x="328" y="90"/>
      <point x="243" y="87" type="curve"/>
      <point x="197" y="148"/>
      <point x="152" y="177"/>
      <point x="125" y="177" type="curve" smooth="yes"/>
      <point x="101" y="177"/>
      <point x="89" y="153"/>
      <point x="89" y="126" type="curve" smooth="yes"/>
      <point x="89" y="58"/>
      <point x="169" y="20"/>
    </contour>
    <contour>
      <point x="337" y="-155" type="line"/>
      <point x="389" y="-122" type="line"/>
      <point x="277" y="33" type="line"/>
      <point x="220" y="34" type="line"/>
      <point x="328" y="-155" type="line"/>
    </contour>
    <contour>
      <point x="556" y="545" type="line"/>
      <point x="556" y="555" type="line"/>
      <point x="522" y="620" type="line"/>
      <point x="-28" y="620" type="line"/>
      <point x="-28" y="610" type="line"/>
      <point x="6" y="545" type="line"/>
    </contour>
  </outline>
</glyph>
<glyph name="dUu" format="2">
  <advance width="760"/>
  <unicode hex="090A"/>
  <outline>
    <contour>
      <point x="340" y="21" type="curve" smooth="yes"/>
      <point x="452" y="21"/>
      <point x="521" y="95"/>
      <point x="521" y="180" type="curve" smooth="yes"/>
      <point x="521" y="248"/>
      <point x="466" y="324"/>
      <point x="402" y="366" type="curve"/>
      <point x="361" y="316" type="line"/>
      <point x="412" y="316"/>
      <point x="448" y="261"/>
      <point x="448" y="208" type="curve" smooth="yes"/>
      <point x="448" y="138"/>
      <point x="388" y="95"/>
      <point x="315" y="95" type="curve" smooth="yes"/>
      <point x="189" y="95"/>
      <point x="121" y="225"/>
      <point x="72" y="319" type="curve"/>
      <point x="34" y="297" type="line"/>
      <point x="106" y="155"/>
      <point x="189" y="21"/>
    </contour>
    <contour>
      <point x="226" y="286" type="line"/>
      <point x="299" y="298"/>
      <point x="331" y="316"/>
      <point x="361" y="316" type="curve"/>
      <point x="412" y="344"/>
      <point x="452" y="387"/>
      <point x="452" y="445" type="curve" smooth="yes"/>
      <point x="452" y="483"/>
      <point x="431" y="527"/>
      <point x="409" y="567" type="curve"/>
      <point x="348" y="571" type="line"/>
      <point x="372" y="528"/>
      <point x="381" y="497"/>
      <point x="381" y="474" type="curve" smooth="yes"/>
      <point x="381" y="418"/>
      <point x="341" y="393"/>
      <point x="184" y="362" type="curve"/>
      <point x="184" y="356" type="line"/>
    </contour>
    <contour>
      <point x="664" y="38" type="line"/>
      <point x="707" y="100"/>
      <point x="732" y="157"/>
      <point x="732" y="215" type="curve" smooth="yes"/>
      <point x="732" y="319"/>
      <point x="652" y="390"/>
      <point x="586" y="390" type="curve" smooth="yes"/>
      <point x="530" y="390"/>
      <point x="473" y="350"/>
      <point x="437" y="320" type="curve"/>
      <point x="488" y="257" type="line"/>
      <point x="513" y="280"/>
      <point x="569" y="318"/>
      <point x="615" y="318" type="curve" smooth="yes"/>
      <point x="641" y="318"/>
      <point x="668" y="306"/>
      <point x="668" y="267" type="curve" smooth="yes"/>
      <point x="668" y="222"/>
      <point x="632" y="149"/>
      <point x="589" y="94" type="curve"/>
      <point x="658" y="38" type="line"/>
    </contour>
    <contour>
      <point x="788" y="545" type="line"/>
      <point x="788" y="555" type="line"/>
      <point x="754" y="620" type="line"/>
      <point x="-28" y="620" type="line"/>
      <point x="-28" y="610" type="line"/>
      <point x="6" y="545" type="line"/>
    </contour>
  </outline>
</glyph>
<glyph name="dGha" format="2">
  <advance width="624"/>
  <unicode hex="0918"/>
  <outline>
    <contour>
      <point x="323" y="133" type="curve" smooth="yes"/>
      <point x="368" y="133"/>
      <point x="420" y="149"/>
      <point x="479" y="189" type="curve"/>
      <point x="469" y="289" type="line"/>
      <point x="385" y="222"/>
      <point x="322" y="198"/>
      <point x="284" y="198" type="curve" smooth="yes"/>
      <point x="240" y="198"/>
      <point x="207" y="228"/>
      <point x="207" y="266" type="curve" smooth="yes"/>
      <point x="207" y="308"/>
      <point x="250" y="344"/>
      <point x="363" y="346" type="curve"/>
      <point x="323" y="428" type="line"/>
      <point x="223" y="421"/>
      <point x="133" y="391"/>
      <point x="133" y="313" type="curve" smooth="yes"/>
      <point x="133" y="240"/>
      <point x="211" y="133"/>
    </contour>
    <contour>
      <point x="204" y="388" type="line"/>
      <point x="160" y="414"/>
      <point x="145" y="451"/>
      <point x="145" y="476" type="curve" smooth="yes"/>
      <point x="145" y="516"/>
      <point x="181" y="541"/>
      <point x="237" y="549" type="curve"/>
      <point x="94" y="572" type="line"/>
      <point x="68" y="549"/>
      <point x="56" y="528"/>
      <point x="56" y="499" type="curve" smooth="yes"/>
      <point x="56" y="440"/>
      <point x="113" y="397"/>
      <point x="162" y="359" type="curve"/>
    </contour>
    <contour>
      <point x="537" y="-10" type="line"/>
      <point x="535" y="591" type="line"/>
      <point x="451" y="591" type="line"/>
      <point x="447" y="42" type="line"/>
      <point x="527" y="-10" type="line"/>
    </contour>
    <contour>
      <point x="652" y="545" type="line"/>
      <point x="652" y="555" type="line"/>
      <point x="618" y="620" type="line"/>
      <point x="-28" y="620" type="line"/>
      <point x="-28" y="610" type="line"/>
      <point x="6" y="545" type="line"/>
    </contour>
  </outline>
</glyph>
<glyph name="dTta" format="2">
  <advance width="539"/>
  <unicode hex="091F"/>
  <outline>
    <contour>
      <point x="567" y="545" type="line"/>
      <point x="567" y="555" type="line"/>
      <point x="533" y="620" type="line"/>
      <point x="-28" y="620" type="line"/>
      <point x="-28" y="610" type="line"/>
      <point x="6" y="545" type="line"/>
    </contour>
    <contour>
      <point x="329" y="580" type="line"/>
      <point x="329" y="435" type="line"/>
      <point x="269" y="435" type="line" smooth="yes"/>
      <point x="141" y="435"/>
      <point x="54" y="402"/>
      <point x="54" y="289" type="curve" smooth="yes"/>
      <point x="54" y="146"/>
      <point x="195" y="37"/>
      <point x="325" y="37" type="curve" smooth="yes"/>
      <point x="397" y="37"/>
      <point x="462" y="70"/>
      <point x="514" y="126" type="curve"/>
      <point x="454" y="187" type="line"/>
      <point x="408" y="142"/>
      <point x="351" y="111"/>
      <point x="279" y="111" type="curve" smooth="yes"/>
      <point x="197" y="111"/>
      <point x="129" y="152"/>
      <point x="129" y="239" type="curve" smooth="yes"/>
      <point x="129" y="320"/>
      <point x="187" y="360"/>
      <point x="272" y="360" type="curve" smooth="yes"/>
      <point x="400" y="360" type="line"/>
      <point x="412" y="368" type="line"/>
      <point x="412" y="419"/>
      <point x="411" y="530"/>
      <point x="410" y="580" type="curve"/>
    </contour>
  </outline>
  <guideline angle="0" x="0" y="37"/>
</glyph>
<glyph name="dNna" format="2">
  <advance width="713"/>
  <unicode hex="0923"/>
  <outline>
    <contour>
      <point x="273" y="158" type="curve" smooth="yes"/>
      <point x="371" y="158"/>
      <point x="416" y="237"/>
      <point x="416" y="308" type="curve" smooth="yes"/>
      <point x="416" y="582" type="line"/>
      <point x="332" y="582" type="line"/>
      <point x="332" y="326" type="line" smooth="yes"/>
      <point x="332" y="257"/>
      <point x="287" y="223"/>
      <point x="236" y="223" type="curve" smooth="yes"/>
      <point x="192" y="223"/>
      <point x="161" y="251"/>
      <point x="161" y="315" type="curve" smooth="yes"/>
      <point x="159" y="582" type="line"/>
      <point x="74" y="582" type="line"/>
      <point x="74" y="520"/>
      <point x="73" y="439"/>
      <point x="73" y="386" type="curve" smooth="yes"/>
      <point x="73" y="371"/>
      <point x="73" y="355"/>
      <point x="74" y="337" type="curve" smooth="yes"/>
      <point x="78" y="268"/>
      <point x="172" y="158"/>
    </contour>
    <contour>
      <point x="626" y="-10" type="line"/>
      <point x="624" y="582" type="line"/>
      <point x="540" y="582" type="line"/>
      <point x="536" y="42" type="line"/>
      <point x="616" y="-10" type="line"/>
    </contour>
    <contour>
      <point x="741" y="545" type="line"/>
      <point x="741" y="555" type="line"/>
      <point x="707" y="620" type="line"/>
      <point x="-28" y="620" type="line"/>
      <point x="-28" y="610" type="line"/>
      <point x="6" y="545" type="line"/>
    </contour>
  </outline>
</glyph>
<glyph name="dNa" format="2">
  <advance width="570"/>
  <unicode hex="0928"/>
  <outline>
    <contour>
      <point x="598" y="545" type="line"/>
      <point x="598" y="555" type="line"/>
      <point x="564" y="620" type="line"/>
      <point x="-28" y="620" type="line"/>
      <point x="-28" y="610" type="line"/>
      <point x="6" y="545" type="line"/>
    </contour>
    <contour>
      <point x="393" y="42" type="line"/>
      <point x="473" y="-10" type="line"/>
      <point x="483" y="-10" type="line"/>
      <point x="481" y="578" type="line"/>
      <point x="397" y="578" type="line"/>
    </contour>
    <contour>
      <point x="416" y="365" type="line"/>
      <point x="296" y="369"/>
      <point x="171" y="371"/>
      <point x="132" y="371" type="curve" smooth="yes"/>
      <point x="80" y="371"/>
      <point x="48" y="367"/>
      <point x="48" y="330" type="curve" smooth="yes"/>
      <point x="48" y="268"/>
      <point x="127" y="189"/>
      <point x="184" y="189" type="curve" smooth="yes"/>
      <point x="215" y="189"/>
      <point x="219" y="216"/>
      <point x="219" y="293" type="curve"/>
      <point x="411" y="293" type="line"/>
    </contour>
  </outline>
</glyph>
<glyph name="dBha" format="2">
  <advance width="716"/>
  <unicode hex="092D"/>
  <outline>
    <contour>
      <point x="188" y="310" type="line" smooth="yes"/>
      <point x="170" y="310"/>
      <point x="163" y="299"/>
      <point x="163" y="286" type="curve" smooth="yes"/>
      <point x="163" y="236"/>
      <point x="258" y="138"/>
      <point x="302" y="138" type="curve" smooth="yes"/>
      <point x="331" y="138"/>
      <point x="331" y="172"/>
      <point x="342" y="268" type="curve" smooth="yes"/>
      <point x="345" y="293"/>
      <point x="348" y="371"/>
      <point x="348" y="424" type="curve" smooth="yes"/>
      <point x="348" y="521"/>
      <point x="260" y="633"/>
      <point x="159" y="633" type="curve" smooth="yes"/>
      <point x="108" y="633"/>
      <point x="53" y="600"/>
      <point x="53" y="538" type="curve" smooth="yes"/>
      <point x="53" y="477"/>
      <point x="98" y="422"/>
      <point x="175" y="422" type="curve"/>
      <point x="176" y="422"/>
      <point x="181" y="422"/>
      <point x="195" y="424" type="curve"/>
      <point x="195" y="435" type="line"/>
      <point x="165" y="451"/>
      <point x="131" y="472"/>
      <point x="131" y="507" type="curve" smooth="yes"/>
      <point x="131" y="541"/>
      <point x="163" y="563"/>
      <point x="196" y="563" type="curve" smooth="yes"/>
      <point x="242" y="563"/>
      <point x="267" y="538"/>
      <point x="267" y="449" type="curve" smooth="yes"/>
      <point x="267" y="392"/>
      <point x="263" y="352"/>
      <point x="250" y="235" type="curve"/>
      <point x="576" y="235" type="line"/>
      <point x="577" y="310" type="line"/>
    </contour>
    <contour>
      <point x="629" y="-10" type="line"/>
      <point x="627" y="581" type="line"/>
      <point x="543" y="581" type="line"/>
      <point x="539" y="42" type="line"/>
      <point x="619" y="-10" type="line"/>
    </contour>
    <contour>
      <point x="744" y="545" type="line"/>
      <point x="744" y="555" type="line"/>
      <point x="710" y="620" type="line"/>
      <point x="369" y="620" type="line"/>
      <point x="369" y="610" type="line"/>
      <point x="403" y="545" type="line"/>
    </contour>
  </outline>
</glyph>
<glyph name="dMa" format="2">
  <advance width="612"/>
  <unicode hex="092E"/>
  <outline>
    <contour>
      <point x="78" y="310" type="line" smooth="yes"/>
      <point x="60" y="310"/>
      <point x="53" y="299"/>
      <point x="53" y="287" type="curve" smooth="yes"/>
      <point x="53" y="236"/>
      <point x="153" y="138"/>
      <point x="194" y="138" type="curve" smooth="yes"/>
      <point x="209" y="138"/>
      <point x="217" y="146"/>
      <point x="217" y="163" type="curve" smooth="yes"/>
      <point x="215" y="581" type="line"/>
      <point x="133" y="581" type="line"/>
      <point x="132" y="235" type="line"/>
      <point x="472" y="235" type="line"/>
      <point x="473" y="310" type="line"/>
    </contour>
    <contour>
      <point x="525" y="-10" type="line"/>
      <point x="523" y="581" type="line"/>
      <point x="439" y="581" type="line"/>
      <point x="435" y="42" type="line"/>
      <point x="515" y="-10" type="line"/>
    </contour>
    <contour>
      <point x="640" y="545" type="line"/>
      <point x="640" y="555" type="line"/>
      <point x="606" y="620" type="line"/>
      <point x="-28" y="620" type="line"/>
      <point x="-28" y="610" type="line"/>
      <point x="6" y="545" type="line"/>
    </contour>
  </outline>
</glyph>
<glyph name="dRa" format="2">
  <advance width="394"/>
  <unicode hex="0930"/>
  <outline>
    <contour>
      <point x="322" y="-20" type="line"/>
      <point x="373" y="22" type="line"/>
      <point x="156" y="246" type="line"/>
      <point x="155" y="235" type="line"/>
      <point x="234" y="249"/>
      <point x="274" y="300"/>
      <point x="274" y="471" type="curve" smooth="yes"/>
      <point x="274" y="487"/>
      <point x="272" y="544"/>
      <point x="270" y="565" type="curve"/>
      <point x="187" y="565" type="line"/>
      <point x="188" y="543"/>
      <point x="190" y="523"/>
      <point x="190" y="482" type="curve" smooth="yes"/>
      <point x="190" y="446"/>
      <point x="189" y="391"/>
      <point x="180" y="358" type="curve"/>
      <point x="191" y="367" type="line"/>
      <point x="170" y="370"/>
      <point x="119" y="374"/>
      <point x="97" y="374" type="curve" smooth="yes"/>
      <point x="61" y="374"/>
      <point x="46" y="364"/>
      <point x="46" y="342" type="curve" smooth="yes"/>
      <point x="46" y="319"/>
      <point x="65" y="283"/>
      <point x="114" y="223" type="curve" smooth="yes"/>
      <point x="312" y="-20" type="line"/>
    </contour>
    <contour>
      <point x="422" y="545" type="line"/>
      <point x="422" y="555" type="line"/>
      <point x="388" y="620" type="line"/>
      <point x="-28" y="620" type="line"/>
      <point x="-28" y="610" type="line"/>
      <point x="6" y="545" type="line"/>
    </contour>
  </outline>
</glyph>
<glyph name="dSha" format="2">
  <advance width="679"/>
  <unicode hex="0936"/>
  <outline>
    <contour>
      <point x="166" y="166" type="curve" smooth="yes"/>
      <point x="244" y="166"/>
      <point x="387" y="219"/>
      <point x="387" y="333" type="curve" smooth="yes"/>
      <point x="387" y="407"/>
      <point x="322" y="505"/>
      <point x="212" y="505" type="curve" smooth="yes"/>
      <point x="172" y="505"/>
      <point x="108" y="492"/>
      <point x="44" y="453" type="curve"/>
      <point x="89" y="379" type="line"/>
      <point x="150" y="418"/>
      <point x="215" y="436"/>
      <point x="249" y="436" type="curve" smooth="yes"/>
      <point x="297" y="436"/>
      <point x="325" y="404"/>
      <point x="325" y="367" type="curve" smooth="yes"/>
      <point x="325" y="304"/>
      <point x="245" y="257"/>
      <point x="192" y="248" type="curve"/>
      <point x="157" y="271"/>
      <point x="118" y="288"/>
      <point x="84" y="288" type="curve" smooth="yes"/>
      <point x="55" y="288"/>
      <point x="48" y="277"/>
      <point x="48" y="261" type="curve" smooth="yes"/>
      <point x="48" y="221"/>
      <point x="96" y="166"/>
    </contour>
    <contour>
      <point x="361" y="-21" type="line"/>
      <point x="412" y="21" type="line"/>
      <point x="222" y="215" type="line"/>
      <point x="171" y="205" type="line"/>
      <point x="351" y="-21" type="line"/>
    </contour>
    <contour>
      <point x="266" y="472" type="line"/>
      <point x="265" y="580" type="line"/>
      <point x="188" y="580" type="line"/>
      <point x="188" y="472" type="line"/>
    </contour>
    <contour>
      <point x="592" y="-15" type="line"/>
      <point x="590" y="581" type="line"/>
      <point x="506" y="581" type="line"/>
      <point x="502" y="37" type="line"/>
      <point x="582" y="-15" type="line"/>
    </contour>
    <contour>
      <point x="707" y="545" type="line"/>
      <point x="707" y="555" type="line"/>
      <point x="673" y="620" type="line"/>
      <point x="-28" y="620" type="line"/>
      <point x="-28" y="610" type="line"/>
      <point x="6" y="545" type="line"/>
    </contour>
  </outline>
</glyph>
<glyph name="dSsa" format="2">
  <advance width="572"/>
  <unicode hex="0937"/>
  <outline>
    <contour>
      <point x="289" y="155" type="curve" smooth="yes"/>
      <point x="328" y="155"/>
      <point x="371" y="167"/>
      <point x="411" y="198" type="curve"/>
      <point x="414" y="302" type="line"/>
      <point x="347" y="250"/>
      <point x="283" y="220"/>
      <point x="241" y="220" type="curve" smooth="yes"/>
      <point x="209" y="220"/>
      <point x="162" y="248"/>
      <point x="161" y="312" type="curve" smooth="yes"/>
      <point x="158" y="572" type="line"/>
      <point x="74" y="572" type="line"/>
      <point x="74" y="512"/>
      <point x="73" y="439"/>
      <point x="73" y="388" type="curve" smooth="yes"/>
      <point x="73" y="373"/>
      <point x="73" y="353"/>
      <point x="74" y="335" type="curve" smooth="yes"/>
      <point x="76" y="266"/>
      <point x="185" y="155"/>
    </contour>
    <contour>
      <point x="440" y="276" type="line"/>
      <point x="135" y="578" type="line"/>
      <point x="121" y="530" type="line"/>
      <point x="432" y="226" type="line"/>
    </contour>
    <contour>
      <point x="485" y="-10" type="line"/>
      <point x="483" y="581" type="line"/>
      <point x="399" y="581" type="line"/>
      <point x="395" y="42" type="line"/>
      <point x="475" y="-10" type="line"/>
    </contour>
    <contour>
      <point x="600" y="545" type="line"/>
      <point x="600" y="555" type="line"/>
      <point x="566" y="620" type="line"/>
      <point x="-28" y="620" type="line"/>
      <point x="-28" y="610" type="line"/>
      <point x="6" y="545" type="line"/>
    </contour>
  </outline>
</glyph>
<glyph name="dAvagraha" format="2">
  <advance width="496"/>
  <unicode hex="093D"/>
  <outline>
    <contour>
      <point x="441" y="545" type="line"/>
      <point x="441" y="555" type="line"/>
      <point x="407" y="620" type="line"/>
      <point x="239" y="620" type="line" smooth="yes"/>
      <point x="146" y="620"/>
      <point x="92" y="582"/>
      <point x="92" y="524" type="curve" smooth="yes"/>
      <point x="92" y="457"/>
      <point x="135" y="425"/>
      <point x="227" y="362" type="curve" smooth="yes"/>
      <point x="326" y="294"/>
      <point x="368" y="264"/>
      <point x="368" y="210" type="curve" smooth="yes"/>
      <point x="368" y="137"/>
      <point x="316" y="102"/>
      <point x="250" y="102" type="curve" smooth="yes"/>
      <point x="191" y="102"/>
      <point x="147" y="137"/>
      <point x="90" y="233" type="curve"/>
      <point x="52" y="211" type="line"/>
      <point x="95" y="135"/>
      <point x="167" y="29"/>
      <point x="285" y="29" type="curve" smooth="yes"/>
      <point x="378" y="29"/>
      <point x="449" y="92"/>
      <point x="449" y="178" type="curve" smooth="yes"/>
      <point x="449" y="261"/>
      <point x="376" y="312"/>
      <point x="314" y="357" type="curve" smooth="yes"/>
      <point x="257" y="399"/>
      <point x="177" y="442"/>
      <point x="177" y="497" type="curve" smooth="yes"/>
      <point x="177" y="535"/>
      <point x="213" y="545"/>
      <point x="263" y="545" type="curve" smooth="yes"/>
    </contour>
  </outline>
</glyph>
<glyph name="dSignAa" format="2">
  <advance width="267"/>
  <unicode hex="093E"/>
  <outline>
    <contour>
      <point x="295" y="545" type="line"/>
      <point x="295" y="555" type="line"/>
      <point x="261" y="620" type="line"/>
      <point x="-28" y="620" type="line"/>
      <point x="-28" y="610" type="line"/>
      <point x="6" y="545" type="line"/>
    </contour>
    <contour>
      <point x="94" y="581" type="line"/>
      <point x="90" y="37" type="line"/>
      <point x="170" y="-15" type="line"/>
      <point x="180" y="-15" type="line"/>
      <point x="178" y="581" type="line"/>
    </contour>
  </outline>
</glyph>
<glyph name="dSignI" format="2">
  <advance width="267"/>
  <unicode hex="093F"/>
  <outline>
    <contour>
      <point x="165" y="603" type="line"/>
      <point x="147" y="633"/>
      <point x="138" y="655"/>
      <point x="138" y="683" type="curve" smooth="yes"/>
      <point x="138" y="744"/>
      <point x="181" y="803"/>
      <point x="288" y="803" type="curve" smooth="yes"/>
      <point x="408" y="803"/>
      <point x="524" y="730"/>
      <point x="630" y="641" type="curve"/>
      <point x="657" y="672" type="line"/>
      <point x="494" y="822"/>
      <point x="375" y="880"/>
      <point x="257" y="880" type="curve" smooth="yes"/>
      <point x="126" y="880"/>
      <point x="65" y="808"/>
      <point x="65" y="729" type="curve" smooth="yes"/>
      <point x="65" y="689"/>
      <point x="79" y="645"/>
      <point x="111" y="603" type="curve"/>
    </contour>
    <contour>
      <point x="180" y="-15" type="line"/>
      <point x="178" y="571" type="line"/>
      <point x="94" y="571" type="line"/>
      <point x="90" y="37" type="line"/>
      <point x="170" y="-15" type="line"/>
    </contour>
    <contour>
      <point x="295" y="545" type="line"/>
      <point x="295" y="555" type="line"/>
      <point x="261" y="620" type="line"/>
      <point x="-28" y="620" type="line"/>
      <point x="-28" y="610" type="line"/>
      <point x="6" y="545" type="line"/>
    </contour>
  </outline>
</glyph>
<glyph name="dSignVocalicR" format="2">
  <unicode hex="0943"/>
  <outline>
    <contour>
      <point x="-24" y="-170" type="line"/>
      <point x="-73" y="-198"/>
      <point x="-112" y="-207"/>
      <point x="-145" y="-207" type="curve" smooth="yes"/>
      <point x="-199" y="-207"/>
      <point x="-212" y="-182"/>
      <point x="-212" y="-163" type="curve" smooth="yes"/>
      <point x="-212" y="-133"/>
      <point x="-179" y="-93"/>
      <point x="-75" y="-85" type="curve"/>
      <point x="-75" y="-79" type="line"/>
      <point x="-121" y="-19" type="line"/>
      <point x="-203" y="-25"/>
      <point x="-276" y="-69"/>
      <point x="-276" y="-132" type="curve" smooth="yes"/>
      <point x="-276" y="-185"/>
      <point x="-224" y="-271"/>
      <point x="-108" y="-271" type="curve" smooth="yes"/>
      <point x="-45" y="-271"/>
      <point x="2" y="-246"/>
      <point x="24" y="-232" type="curve"/>
    </contour>
  </outline>
  <guideline angle="127.438" x="-150" y="0"/>
</glyph>
<glyph name="dSignEPrish" format="2">
  <advance width="280"/>
  <unicode hex="094E"/>
  <outline>
    <contour>
      <point x="193" y="-15" type="line"/>
      <point x="191" y="545" type="line"/>
      <point x="308" y="545" type="line"/>
      <point x="308" y="555" type="line"/>
      <point x="274" y="620" type="line"/>
      <point x="107" y="620" type="line"/>
      <point x="103" y="37" type="line"/>
      <point x="183" y="-15" type="line"/>
    </contour>
  </outline>
</glyph>
<glyph name="dOm" format="2">
  <advance width="986"/>
  <unicode hex="0950"/>
  <outline>
    <component base="dCandrabindu" xOffset="715" yOffset="-105"/>
    <contour>
      <point x="801" y="138" type="curve" smooth="yes"/>
      <point x="882" y="138"/>
      <point x="946" y="198"/>
      <point x="946" y="290" type="curve" smooth="yes"/>
      <point x="946" y="393"/>
      <point x="866" y="466"/>
      <point x="782" y="466" type="curve" smooth="yes"/>
      <point x="650" y="466"/>
      <point x="634" y="285"/>
      <point x="517" y="285" type="curve" smooth="yes"/>
      <point x="469" y="285"/>
      <point x="433" y="314"/>
      <point x="403" y="354" type="curve"/>
      <point x="403" y="310" type="line"/>
      <point x="461" y="236" type="line"/>
      <point x="479" y="245" type="line"/>
      <point x="502" y="230"/>
      <point x="535" y="218"/>
      <point x="565" y="218" type="curve" smooth="yes"/>
      <point x="691" y="218"/>
      <point x="706" y="405"/>
      <point x="815" y="405" type="curve" smooth="yes"/>
      <point x="860" y="405"/>
      <point x="884" y="374"/>
      <point x="884" y="331" type="curve" smooth="yes"/>
      <point x="884" y="256"/>
      <point x="820" y="212"/>
      <point x="774" y="212" type="curve" smooth="yes"/>
      <point x="742" y="212"/>
      <point x="692" y="237"/>
      <point x="672" y="301" type="curve"/>
      <point x="638" y="269" type="line"/>
      <point x="699" y="159"/>
      <point x="756" y="138"/>
    </contour>
    <contour>
      <point x="320" y="29" type="curve" smooth="yes"/>
      <point x="416" y="29"/>
      <point x="486" y="95"/>
      <point x="486" y="184" type="curve" smooth="yes"/>
      <point x="486" y="274"/>
      <point x="403" y="387"/>
      <point x="306" y="387" type="curve" smooth="yes"/>
      <point x="261" y="387"/>
      <point x="216" y="368"/>
      <point x="180" y="348" type="curve"/>
      <point x="223" y="275" type="line"/>
      <point x="254" y="290"/>
      <point x="297" y="309"/>
      <point x="334" y="309" type="curve" smooth="yes"/>
      <point x="378" y="309"/>
      <point x="416" y="283"/>
      <point x="416" y="226" type="curve" smooth="yes"/>
      <point x="416" y="154"/>
      <point x="354" y="102"/>
      <point x="287" y="102" type="curve" smooth="yes"/>
      <point x="186" y="102"/>
      <point x="125" y="218"/>
      <point x="78" y="305" type="curve"/>
      <point x="40" y="283" type="line"/>
      <point x="111" y="145"/>
      <point x="189" y="29"/>
    </contour>
    <contour>
      <point x="390" y="332" type="line"/>
      <point x="430" y="365"/>
      <point x="436" y="399"/>
      <point x="436" y="423" type="curve" smooth="yes"/>
      <point x="436" y="491"/>
      <point x="389" y="620"/>
      <point x="265" y="620" type="curve" smooth="yes"/>
      <point x="221" y="620"/>
      <point x="158" y="604"/>
      <point x="99" y="570" type="curve"/>
      <point x="143" y="495" type="line"/>
      <point x="198" y="529"/>
      <point x="261" y="548"/>
      <point x="301" y="548" type="curve" smooth="yes"/>
      <point x="348" y="548"/>
      <point x="370" y="520"/>
      <point x="370" y="483" type="curve" smooth="yes"/>
      <point x="370" y="443"/>
      <point x="345" y="402"/>
      <point x="299" y="377" type="curve"/>
    </contour>
  </outline>
</glyph>
<glyph name="dVocalicRr" format="2">
  <advance width="861"/>
  <unicode hex="0960"/>
  <outline>
    <contour>
      <point x="379" y="243" type="line"/>
      <point x="394" y="234" type="line"/>
      <point x="408" y="348" type="line"/>
      <point x="84" y="138" type="line"/>
      <point x="143" y="80" type="line"/>
    </contour>
    <contour>
      <point x="395" y="343" type="line"/>
      <point x="274" y="437"/>
      <point x="249" y="470"/>
      <point x="190" y="470" type="curve" smooth="yes"/>
      <point x="148" y="470"/>
      <point x="94" y="442"/>
      <point x="35" y="417" type="curve"/>
      <point x="35" y="412" type="line"/>
      <point x="88" y="343" type="line"/>
      <point x="133" y="366"/>
      <point x="186" y="397"/>
      <point x="221" y="397" type="curve" smooth="yes"/>
      <point x="260" y="397"/>
      <point x="296" y="366"/>
      <point x="403" y="287" type="curve"/>
    </contour>
    <contour>
      <point x="468" y="-10" type="line"/>
      <point x="466" y="571" type="line"/>
      <point x="382" y="571" type="line"/>
      <point x="378" y="42" type="line"/>
      <point x="458" y="-10" type="line"/>
    </contour>
    <contour>
      <point x="781" y="-144" type="curve" smooth="yes"/>
      <point x="841" y="-144"/>
      <point x="908" y="-114"/>
      <point x="932" y="-99" type="curve"/>
      <point x="886" y="-41" type="line"/>
      <point x="841" y="-67"/>
      <point x="793" y="-83"/>
      <point x="749" y="-83" type="curve" smooth="yes"/>
      <point x="713" y="-83"/>
      <point x="685" y="-72"/>
      <point x="685" y="-45" type="curve" smooth="yes"/>
      <point x="685" y="-11"/>
      <point x="726" y="14"/>
      <point x="840" y="28" type="curve"/>
      <point x="840" y="34" type="line"/>
      <point x="797" y="90" type="line"/>
      <point x="705" y="81"/>
      <point x="622" y="51"/>
      <point x="622" y="-18" type="curve" smooth="yes"/>
      <point x="622" y="-95"/>
      <point x="705" y="-144"/>
    </contour>
    <contour>
      <point x="670" y="42" type="line"/>
      <point x="620" y="44"/>
      <point x="611" y="70"/>
      <point x="611" y="91" type="curve" smooth="yes"/>
      <point x="611" y="119"/>
      <point x="629" y="152"/>
      <point x="779" y="183" type="curve"/>
      <point x="781" y="188" type="line"/>
      <point x="756" y="249"/>
      <point x="737" y="288"/>
      <point x="707" y="339" type="curve"/>
      <point x="659" y="319" type="line"/>
      <point x="677" y="284"/>
      <point x="687" y="268"/>
      <point x="697" y="242" type="curve"/>
      <point x="589" y="214"/>
      <point x="547" y="175"/>
      <point x="547" y="120" type="curve" smooth="yes"/>
      <point x="547" y="80"/>
      <point x="568" y="28"/>
      <point x="642" y="8" type="curve"/>
    </contour>
    <contour>
      <point x="549" y="278" type="curve" smooth="yes"/>
      <point x="632" y="278"/>
      <point x="748" y="320"/>
      <point x="748" y="386" type="curve" smooth="yes"/>
      <point x="748" y="435"/>
      <point x="674" y="477"/>
      <point x="632" y="477" type="curve" smooth="yes"/>
      <point x="611" y="477"/>
      <point x="598" y="469"/>
      <point x="598" y="445" type="curve" smooth="yes"/>
      <point x="598" y="425"/>
      <point x="606" y="404"/>
      <point x="621" y="376" type="curve"/>
      <point x="598" y="353"/>
      <point x="552" y="331"/>
      <point x="490" y="331" type="curve" smooth="yes"/>
      <point x="456" y="331" type="line"/>
      <point x="455" y="287" type="line"/>
      <point x="488" y="281"/>
      <point x="521" y="278"/>
    </contour>
    <contour>
      <point x="889" y="545" type="line"/>
      <point x="889" y="555" type="line"/>
      <point x="855" y="620" type="line"/>
      <point x="-28" y="620" type="line"/>
      <point x="-28" y="610" type="line"/>
      <point x="6" y="545" type="line"/>
    </contour>
  </outline>
</glyph>
<glyph name="dVocalicLl" format="2">
  <advance width="682"/>
  <unicode hex="0961"/>
  <outline>
    <contour>
      <point x="533" y="-6" type="line"/>
      <point x="493" y="5"/>
      <point x="482" y="26"/>
      <point x="482" y="48" type="curve" smooth="yes"/>
      <point x="482" y="119"/>
      <point x="620" y="153"/>
      <point x="620" y="273" type="curve" smooth="yes"/>
      <point x="620" y="355"/>
      <point x="547" y="442"/>
      <point x="459" y="442" type="curve" smooth="yes"/>
      <point x="377" y="442"/>
      <point x="296" y="343"/>
      <point x="263" y="261" type="curve"/>
      <point x="339" y="223" type="line"/>
      <point x="389" y="325"/>
      <point x="443" y="371"/>
      <point x="492" y="371" type="curve" smooth="yes"/>
      <point x="531" y="371"/>
      <point x="556" y="346"/>
      <point x="556" y="309" type="curve" smooth="yes"/>
      <point x="556" y="216"/>
      <point x="412" y="166"/>
      <point x="412" y="76" type="curve" smooth="yes"/>
      <point x="412" y="36"/>
      <point x="433" y="-8"/>
      <point x="505" y="-41" type="curve"/>
    </contour>
    <contour>
      <point x="254" y="-10" type="line"/>
      <point x="297" y="25" type="line"/>
      <point x="167" y="133"/>
      <point x="129" y="192"/>
      <point x="129" y="264" type="curve" smooth="yes"/>
      <point x="129" y="337"/>
      <point x="168" y="380"/>
      <point x="222" y="380" type="curve" smooth="yes"/>
      <point x="259" y="380"/>
      <point x="292" y="358"/>
      <point x="312" y="332" type="curve"/>
      <point x="336" y="362" type="line"/>
      <point x="298" y="407"/>
      <point x="255" y="454"/>
      <point x="186" y="454" type="curve" smooth="yes"/>
      <point x="101" y="454"/>
      <point x="49" y="381"/>
      <point x="49" y="298" type="curve" smooth="yes"/>
      <point x="49" y="194"/>
      <point x="127" y="109"/>
      <point x="244" y="-10" type="curve"/>
    </contour>
    <contour>
      <point x="644" y="-204" type="curve" smooth="yes"/>
      <point x="701" y="-204"/>
      <point x="754" y="-178"/>
      <point x="774" y="-164" type="curve"/>
      <point x="726" y="-102" type="line"/>
      <point x="682" y="-127"/>
      <point x="645" y="-140"/>
      <point x="605" y="-140" type="curve" smooth="yes"/>
      <point x="571" y="-140"/>
      <point x="545" y="-130"/>
      <point x="545" y="-102" type="curve" smooth="yes"/>
      <point x="545" y="-68"/>
      <point x="585" y="-37"/>
      <point x="681" y="-23" type="curve"/>
      <point x="681" y="-17" type="line"/>
      <point x="635" y="44" type="line"/>
      <point x="552" y="27"/>
      <point x="482" y="-2"/>
      <point x="482" y="-76" type="curve" smooth="yes"/>
      <point x="482" y="-154"/>
      <point x="565" y="-204"/>
    </contour>
    <contour>
      <point x="710" y="545" type="line"/>
      <point x="710" y="555" type="line"/>
      <point x="676" y="620" type="line"/>
      <point x="-28" y="620" type="line"/>
      <point x="-28" y="610" type="line"/>
      <point x="6" y="545" type="line"/>
    </contour>
    <contour>
      <point x="515" y="405" type="line"/>
      <point x="514" y="581" type="line"/>
      <point x="433" y="581" type="line"/>
      <point x="434" y="405" type="line"/>
    </contour>
  </outline>
</glyph>
<glyph name="dSignVocalicL" format="2">
  <unicode hex="0962"/>
  <outline>
    <contour>
      <point x="-55" y="-411" type="curve" smooth="yes"/>
      <point x="-18" y="-411"/>
      <point x="14" y="-394"/>
      <point x="50" y="-347" type="curve"/>
      <point x="3" y="-297" type="line"/>
      <point x="-35" y="-342"/>
      <point x="-65" y="-357"/>
      <point x="-89" y="-357" type="curve" smooth="yes"/>
      <point x="-102" y="-357"/>
      <point x="-115" y="-351"/>
      <point x="-115" y="-332" type="curve" smooth="yes"/>
      <point x="-115" y="-279"/>
      <point x="-24" y="-243"/>
      <point x="-24" y="-157" type="curve" smooth="yes"/>
      <point x="-24" y="-83"/>
      <point x="-93" y="-29"/>
      <point x="-150" y="-29" type="curve" smooth="yes"/>
      <point x="-218" y="-29"/>
      <point x="-285" y="-111"/>
      <point x="-313" y="-181" type="curve"/>
      <point x="-249" y="-213" type="line"/>
      <point x="-207" y="-127"/>
      <point x="-161" y="-89"/>
      <point x="-122" y="-89" type="curve" smooth="yes"/>
      <point x="-96" y="-89"/>
      <point x="-81" y="-102"/>
      <point x="-81" y="-129" type="curve" smooth="yes"/>
      <point x="-81" y="-191"/>
      <point x="-175" y="-234"/>
      <point x="-175" y="-300" type="curve" smooth="yes"/>
      <point x="-175" y="-351"/>
      <point x="-117" y="-411"/>
    </contour>
    <contour>
      <point x="-309" y="-366" type="line"/>
      <point x="-271" y="-335" type="line"/>
      <point x="-368" y="-262"/>
      <point x="-395" y="-223"/>
      <point x="-395" y="-174" type="curve" smooth="yes"/>
      <point x="-395" y="-118"/>
      <point x="-362" y="-85"/>
      <point x="-317" y="-85" type="curve" smooth="yes"/>
      <point x="-295" y="-85"/>
      <point x="-274" y="-93"/>
      <point x="-260" y="-106" type="curve"/>
      <point x="-237" y="-81" type="line"/>
      <point x="-266" y="-51"/>
      <point x="-298" y="-23"/>
      <point x="-347" y="-23" type="curve" smooth="yes"/>
      <point x="-418" y="-23"/>
      <point x="-462" y="-80"/>
      <point x="-462" y="-146" type="curve" smooth="yes"/>
      <point x="-462" y="-221"/>
      <point x="-403" y="-281"/>
      <point x="-316" y="-366" type="curve"/>
    </contour>
  </outline>
</glyph>
<glyph name="dOne" format="2">
  <advance width="496"/>
  <unicode hex="0967"/>
  <outline>
    <contour>
      <point x="392" y="-157" type="line"/>
      <point x="431" y="-131"/>
      <point x="446" y="-107"/>
      <point x="446" y="-81" type="curve" smooth="yes"/>
      <point x="446" y="-37"/>
      <point x="405" y="3"/>
      <point x="220" y="159" type="curve"/>
      <point x="354" y="271"/>
      <point x="415" y="337"/>
      <point x="415" y="408" type="curve" smooth="yes"/>
      <point x="415" y="491"/>
      <point x="329" y="598"/>
      <point x="217" y="598" type="curve" smooth="yes"/>
      <point x="128" y="598"/>
      <point x="77" y="530"/>
      <point x="77" y="468" type="curve" smooth="yes"/>
      <point x="77" y="394"/>
      <point x="147" y="330"/>
      <point x="240" y="274" type="curve"/>
      <point x="275" y="302" type="line"/>
      <point x="190" y="354"/>
      <point x="162" y="400"/>
      <point x="162" y="441" type="curve" smooth="yes"/>
      <point x="162" y="478"/>
      <point x="185" y="530"/>
      <point x="252" y="530" type="curve" smooth="yes"/>
      <point x="321" y="530"/>
      <point x="338" y="474"/>
      <point x="338" y="445" type="curve" smooth="yes"/>
      <point x="338" y="406"/>
      <point x="303" y="351"/>
      <point x="243" y="295" type="curve" smooth="yes"/>
      <point x="202" y="256"/>
      <point x="161" y="225"/>
      <point x="118" y="194" type="curve"/>
      <point x="118" y="187" type="line"/>
      <point x="317" y="12"/>
      <point x="355" y="-14"/>
      <point x="355" y="-50" type="curve" smooth="yes"/>
      <point x="355" y="-67"/>
      <point x="347" y="-78"/>
      <point x="330" y="-90" type="curve"/>
    </contour>
  </outline>
</glyph>
<glyph name="dNine" format="2">
  <advance width="495"/>
  <unicode hex="096F"/>
  <outline>
    <contour>
      <point x="418" y="-137" type="line"/>
      <point x="454" y="-114"/>
      <point x="474" y="-85"/>
      <point x="474" y="-59" type="curve" smooth="yes"/>
      <point x="474" y="-12"/>
      <point x="421" y="56"/>
      <point x="257" y="226" type="curve" smooth="yes"/>
      <point x="149" y="340"/>
      <point x="136" y="347"/>
      <point x="136" y="403" type="curve" smooth="yes"/>
      <point x="136" y="473"/>
      <point x="188" y="530"/>
      <point x="252" y="530" type="curve" smooth="yes"/>
      <point x="298" y="530"/>
      <point x="329" y="502"/>
      <point x="329" y="455" type="curve" smooth="yes"/>
      <point x="329" y="381"/>
      <point x="251" y="326"/>
      <point x="152" y="314" type="curve"/>
      <point x="214" y="249" type="line"/>
      <point x="310" y="261"/>
      <point x="407" y="331"/>
      <point x="407" y="419" type="curve" smooth="yes"/>
      <point x="407" y="508"/>
      <point x="311" y="598"/>
      <point x="216" y="598" type="curve" smooth="yes"/>
      <point x="135" y="598"/>
      <point x="50" y="529"/>
      <point x="50" y="431" type="curve" smooth="yes"/>
      <point x="50" y="369"/>
      <point x="81" y="334"/>
      <point x="215" y="199" type="curve" smooth="yes"/>
      <point x="336" y="77"/>
      <point x="382" y="28"/>
      <point x="382" y="-19" type="curve" smooth="yes"/>
      <point x="382" y="-40"/>
      <point x="379" y="-54"/>
      <point x="356" y="-70" type="curve"/>
    </contour>
  </outline>
</glyph>
<glyph name="SvastiLeftDots" format="2">
  <advance width="826"/>
  <unicode hex="0FD8"/>
  <outline>
    <contour>
      <point x="692" y="7" type="line"/>
      <point x="726" y="72" type="line"/>
      <point x="726" y="82" type="line"/>
      <point x="451" y="82" type="line"/>
      <point x="451" y="620" type="line"/>
      <point x="134" y="620" type="line"/>
      <point x="100" y="555" type="line"/>
      <point x="100" y="545" type="line"/>
      <point x="375" y="545" type="line"/>
      <point x="375" y="7" type="line"/>
    </contour>
    <contour>
      <point x="332" y="178" type="line"/>
      <point x="278" y="232" type="line"/>
      <point x="224" y="178" type="line"/>
      <point x="278" y="125" type="line"/>
    </contour>
    <contour>
      <point x="181" y="0" type="line"/>
      <point x="181" y="275" type="line"/>
      <point x="719" y="275" type="line"/>
      <point x="719" y="592" type="line"/>
      <point x="654" y="626" type="line"/>
      <point x="644" y="626" type="line"/>
      <point x="644" y="351" type="line"/>
      <point x="106" y="351" type="line"/>
      <point x="106" y="34" type="line"/>
      <point x="171" y="0" type="line"/>
    </contour>
    <contour>
      <point x="332" y="448" type="line"/>
      <point x="278" y="502" type="line"/>
      <point x="224" y="448" type="line"/>
      <point x="278" y="394" type="line"/>
    </contour>
    <contour>
      <point x="602" y="178" type="line"/>
      <point x="548" y="232" type="line"/>
      <point x="495" y="178" type="line"/>
      <point x="548" y="125" type="line"/>
    </contour>
    <contour>
      <point x="602" y="448" type="line"/>
      <point x="548" y="502" type="line"/>
      <point x="495" y="448" type="line"/>
      <point x="548" y="394" type="line"/>
    </contour>
  </outline>
  <guideline angle="0" x="0" y="306"/>
  <guideline angle="0" x="0" y="448"/>
  <guideline angle="0" x="0" y="178"/>
  <guideline angle="90" x="413" y="0"/>
  <guideline angle="90" x="548" y="0"/>
  <guideline angle="90" x="278" y="0"/>
</glyph>
<glyph name="vNihshvasa" format="2">
  <advance width="418"/>
  <unicode hex="1CD3"/>
  <outline>
    <contour>
      <point x="90" y="545" type="line"/>
      <point x="150" y="545" type="line"/>
      <point x="259" y="733" type="line"/>
      <point x="199" y="733" type="line"/>
    </contour>
    <contour>
      <point x="218" y="545" type="line"/>
      <point x="279" y="545" type="line"/>
      <point x="388" y="733" type="line"/>
      <point x="327" y="733" type="line"/>
    </contour>
  </outline>
</glyph>
<glyph name="vSvaritaYajurMidline" format="2">
  <unicode hex="1CD4"/>
  <outline>
    <contour>
      <point x="-284" y="283" type="line"/>
      <point x="53" y="283" type="line"/>
      <point x="53" y="288" type="line"/>
      <point x="22" y="346" type="line"/>
      <point x="-315" y="346" type="line"/>
      <point x="-315" y="341" type="line"/>
    </contour>
  </outline>
</glyph>
<glyph name="vSvaritaYajurIndependent" format="2">
  <unicode hex="1CD6"/>
  <outline>
    <contour>
      <point x="-407" y="-265" type="line"/>
      <point x="-63" y="-265" type="line"/>
      <point x="-63" y="-213" type="line"/>
      <point x="-359" y="-213" type="line"/>
      <point x="-359" y="-50" type="line"/>
      <point x="-407" y="-50" type="line"/>
    </contour>
  </outline>
</glyph>
<glyph name="vSvaritaYajurKathaka" format="2">
  <unicode hex="1CD7"/>
  <outline>
    <contour>
      <point x="-74" y="-37" type="line"/>
      <point x="-96" y="30" type="line"/>
      <point x="-108" y="31"/>
      <point x="-110" y="31"/>
      <point x="-122" y="31" type="curve" smooth="yes"/>
      <point x="-243" y="31"/>
      <point x="-292" y="-35"/>
      <point x="-292" y="-94" type="curve" smooth="yes"/>
      <point x="-292" y="-148"/>
      <point x="-252" y="-237"/>
      <point x="-72" y="-237" type="curve" smooth="yes"/>
      <point x="-33" y="-237"/>
      <point x="16" y="-233"/>
      <point x="73" y="-224" type="curve"/>
      <point x="59" y="-170" type="line"/>
      <point x="54" y="-164" type="line"/>
      <point x="-24" y="-181"/>
      <point x="-59" y="-184"/>
      <point x="-93" y="-184" type="curve" smooth="yes"/>
      <point x="-180" y="-184"/>
      <point x="-230" y="-164"/>
      <point x="-230" y="-117" type="curve" smooth="yes"/>
      <point x="-230" y="-71"/>
      <point x="-182" y="-44"/>
      <point x="-117" y="-44" type="curve" smooth="yes"/>
      <point x="-104" y="-44"/>
      <point x="-86" y="-45"/>
      <point x="-76" y="-46" type="curve"/>
    </contour>
  </outline>
</glyph>
<glyph name="vSvarita2" format="2">
  <unicode hex="1CDA"/>
  <outline>
    <contour>
      <point x="-205" y="917" type="line"/>
      <point x="-205" y="672" type="line"/>
      <point x="-157" y="672" type="line"/>
      <point x="-157" y="917" type="line"/>
    </contour>
    <contour>
      <point x="-105" y="917" type="line"/>
      <point x="-105" y="672" type="line"/>
      <point x="-57" y="672" type="line"/>
      <point x="-57" y="917" type="line"/>
    </contour>
  </outline>
</glyph>
<glyph name="vDotBelow" format="2">
  <unicode hex="1CDD"/>
  <outline>
    <contour>
      <point x="-131" y="-100" type="line"/>
      <point x="-195" y="-165" type="line"/>
      <point x="-131" y="-228" type="line"/>
      <point x="-66" y="-165" type="line"/>
    </contour>
  </outline>
</glyph>
<glyph name="vDot2Below" format="2">
  <unicode hex="1CDE"/>
  <outline>
    <contour>
      <point x="-205" y="-100" type="line"/>
      <point x="-269" y="-165" type="line"/>
      <point x="-205" y="-228" type="line"/>
      <point x="-140" y="-165" type="line"/>
    </contour>
    <contour>
      <point x="-59" y="-100" type="line"/>
      <point x="-123" y="-165" type="line"/>
      <point x="-59" y="-228" type="line"/>
      <point x="6" y="-165" type="line"/>
    </contour>
  </outline>
</glyph>
<glyph name="vSvaritaAtharva" format="2">
  <advance width="231"/>
  <unicode hex="1CE1"/>
  <outline>
    <contour>
      <point x="126" y="-6" type="curve" smooth="yes"/>
      <point x="126" y="-114"/>
      <point x="92" y="-149"/>
      <point x="28" y="-149" type="curve" smooth="yes"/>
      <point x="9" y="-149"/>
      <point x="-9" y="-146"/>
      <point x="-31" y="-139" type="curve"/>
      <point x="-33" y="-148" type="line"/>
      <point x="-1" y="-208" type="line"/>
      <point x="12" y="-215"/>
      <point x="36" y="-216"/>
      <point x="49" y="-216" type="curve" smooth="yes"/>
      <point x="146" y="-216"/>
      <point x="182" y="-156"/>
      <point x="182" y="-43" type="curve" smooth="yes"/>
      <point x="182" y="87"/>
      <point x="135" y="555"/>
      <point x="135" y="670" type="curve" smooth="yes"/>
      <point x="135" y="777"/>
      <point x="176" y="809"/>
      <point x="239" y="809" type="curve" smooth="yes"/>
      <point x="258" y="809"/>
      <point x="277" y="806"/>
      <point x="299" y="799" type="curve"/>
      <point x="301" y="808" type="line"/>
      <point x="268" y="870" type="line"/>
      <point x="255" y="877"/>
      <point x="231" y="881"/>
      <point x="209" y="881" type="curve" smooth="yes"/>
      <point x="118" y="881"/>
      <point x="79" y="812"/>
      <point x="79" y="702" type="curve" smooth="yes"/>
      <point x="79" y="581"/>
      <point x="126" y="120"/>
    </contour>
  </outline>
  <guideline angle="0" x="0" y="375"/>
  <guideline angle="100.819" x="163" y="0"/>
</glyph>
<glyph name="vVisargaSvaritacomb" format="2">
  <unicode hex="1CE2"/>
  <outline>
    <contour>
      <point x="215" y="239" type="line"/>
      <point x="215" y="249" type="line"/>
      <point x="183" y="310" type="line"/>
      <point x="-214" y="310" type="line"/>
      <point x="-214" y="300" type="line"/>
      <point x="-182" y="239" type="line"/>
    </contour>
  </outline>
  <guideline angle="0" x="0" y="274"/>
</glyph>
<glyph name="vVisargaUdattacomb" format="2">
  <unicode hex="1CE3"/>
  <outline>
    <contour>
      <point x="-123" y="319" type="line"/>
      <point x="-77" y="246" type="line"/>
      <point x="-46" y="238"/>
      <point x="-16" y="236"/>
      <point x="5" y="236" type="curve" smooth="yes"/>
      <point x="124" y="236"/>
      <point x="199" y="301"/>
      <point x="199" y="390" type="curve" smooth="yes"/>
      <point x="199" y="489"/>
      <point x="105" y="594"/>
      <point x="33" y="675" type="curve"/>
      <point x="5" y="649" type="line"/>
      <point x="87" y="553"/>
      <point x="137" y="496"/>
      <point x="137" y="429" type="curve" smooth="yes"/>
      <point x="137" y="360"/>
      <point x="84" y="310"/>
      <point x="-16" y="310" type="curve" smooth="yes"/>
      <point x="-48" y="310"/>
      <point x="-84" y="315"/>
      <point x="-121" y="323" type="curve"/>
    </contour>
  </outline>
</glyph>
<glyph name="vVisargaUdattaReversedcomb" format="2">
  <unicode hex="1CE4"/>
  <outline>
    <contour>
      <point x="83" y="315" type="line"/>
      <point x="62" y="312"/>
      <point x="37" y="310"/>
      <point x="17" y="310" type="curve" smooth="yes"/>
      <point x="-82" y="310"/>
      <point x="-135" y="360"/>
      <point x="-135" y="429" type="curve" smooth="yes"/>
      <point x="-135" y="496"/>
      <point x="-85" y="555"/>
      <point x="-3" y="649" type="curve"/>
      <point x="-31" y="675" type="line"/>
      <point x="-117" y="580"/>
      <point x="-197" y="498"/>
      <point x="-197" y="399" type="curve" smooth="yes"/>
      <point x="-197" y="283"/>
      <point x="-94" y="234"/>
      <point x="22" y="234" type="curve" smooth="yes"/>
      <point x="55" y="234"/>
      <point x="90" y="238"/>
      <point x="123" y="246" type="curve"/>
      <point x="125" y="250" type="line"/>
    </contour>
  </outline>
</glyph>
<glyph name="vVisargaAnudattacomb" format="2">
  <unicode hex="1CE5"/>
  <outline>
    <contour>
      <point x="125" y="230" type="line"/>
      <point x="79" y="303" type="line"/>
      <point x="48" y="311"/>
      <point x="18" y="313"/>
      <point x="-3" y="313" type="curve" smooth="yes"/>
      <point x="-122" y="313"/>
      <point x="-197" y="248"/>
      <point x="-197" y="159" type="curve" smooth="yes"/>
      <point x="-197" y="60"/>
      <point x="-103" y="-45"/>
      <point x="-31" y="-126" type="curve"/>
      <point x="-3" y="-100" type="line"/>
      <point x="-85" y="-4"/>
      <point x="-135" y="53"/>
      <point x="-135" y="120" type="curve" smooth="yes"/>
      <point x="-135" y="189"/>
      <point x="-82" y="239"/>
      <point x="18" y="239" type="curve" smooth="yes"/>
      <point x="50" y="239"/>
      <point x="86" y="234"/>
      <point x="123" y="226" type="curve"/>
    </contour>
  </outline>
</glyph>
<glyph name="vVisargaUdattaTailcomb" format="2">
  <unicode hex="1CE7"/>
  <outline>
    <contour>
      <point x="303" y="670" type="line"/>
      <point x="248" y="757"/>
      <point x="196" y="788"/>
      <point x="139" y="788" type="curve" smooth="yes"/>
      <point x="72" y="788"/>
      <point x="22" y="744"/>
      <point x="22" y="680" type="curve" smooth="yes"/>
      <point x="22" y="583"/>
      <point x="137" y="534"/>
      <point x="137" y="430" type="curve" smooth="yes"/>
      <point x="137" y="360"/>
      <point x="85" y="310"/>
      <point x="-16" y="310" type="curve" smooth="yes"/>
      <point x="-48" y="310"/>
      <point x="-84" y="315"/>
      <point x="-121" y="323" type="curve"/>
      <point x="-123" y="319" type="line"/>
      <point x="-77" y="246" type="line"/>
      <point x="-46" y="238"/>
      <point x="-16" y="236"/>
      <point x="5" y="236" type="curve" smooth="yes"/>
      <point x="124" y="236"/>
      <point x="199" y="299"/>
      <point x="199" y="394" type="curve" smooth="yes"/>
      <point x="199" y="511"/>
      <point x="84" y="577"/>
      <point x="84" y="652" type="curve" smooth="yes"/>
      <point x="84" y="693"/>
      <point x="118" y="724"/>
      <point x="166" y="724" type="curve" smooth="yes"/>
      <point x="199" y="724"/>
      <point x="236" y="710"/>
      <point x="275" y="652" type="curve"/>
    </contour>
  </outline>
</glyph>
<glyph name="vVisargaAnudattaTailcomb" format="2">
  <unicode hex="1CE8"/>
  <outline>
    <contour>
      <point x="-301" y="-121" type="line"/>
      <point x="-246" y="-208"/>
      <point x="-194" y="-239"/>
      <point x="-137" y="-239" type="curve" smooth="yes"/>
      <point x="-70" y="-239"/>
      <point x="-20" y="-196"/>
      <point x="-20" y="-129" type="curve" smooth="yes"/>
      <point x="-20" y="-27"/>
      <point x="-135" y="8"/>
      <point x="-135" y="117" type="curve" smooth="yes"/>
      <point x="-135" y="190"/>
      <point x="-83" y="239"/>
      <point x="18" y="239" type="curve" smooth="yes"/>
      <point x="50" y="239"/>
      <point x="86" y="234"/>
      <point x="123" y="226" type="curve"/>
      <point x="125" y="230" type="line"/>
      <point x="79" y="303" type="line"/>
      <point x="48" y="311"/>
      <point x="18" y="313"/>
      <point x="-3" y="313" type="curve" smooth="yes"/>
      <point x="-122" y="313"/>
      <point x="-197" y="252"/>
      <point x="-197" y="151" type="curve" smooth="yes"/>
      <point x="-197" y="27"/>
      <point x="-82" y="-22"/>
      <point x="-82" y="-102" type="curve" smooth="yes"/>
      <point x="-82" y="-145"/>
      <point x="-116" y="-175"/>
      <point x="-164" y="-175" type="curve" smooth="yes"/>
      <point x="-197" y="-175"/>
      <point x="-234" y="-161"/>
      <point x="-273" y="-103" type="curve"/>
    </contour>
  </outline>
</glyph>
<glyph name="vAnusvaraBahirgomukha" format="2">
  <advance width="867"/>
  <unicode hex="1CEA"/>
  <outline>
    <contour>
      <point x="588" y="333" type="line"/>
      <point x="722" y="348"/>
      <point x="807" y="389"/>
      <point x="807" y="493" type="curve" smooth="yes"/>
      <point x="807" y="590"/>
      <point x="734" y="633"/>
      <point x="666" y="633" type="curve" smooth="yes"/>
      <point x="567" y="633"/>
      <point x="510" y="541"/>
      <point x="510" y="448" type="curve" smooth="yes"/>
      <point x="510" y="348"/>
      <point x="577" y="277"/>
      <point x="577" y="188" type="curve" smooth="yes"/>
      <point x="577" y="71"/>
      <point x="460" y="59"/>
      <point x="421" y="59" type="curve" smooth="yes"/>
      <point x="359" y="59"/>
      <point x="283" y="90"/>
      <point x="283" y="175" type="curve" smooth="yes"/>
      <point x="283" y="259"/>
      <point x="359" y="356"/>
      <point x="359" y="441" type="curve" smooth="yes"/>
      <point x="359" y="518"/>
      <point x="297" y="633"/>
      <point x="192" y="633" type="curve" smooth="yes"/>
      <point x="120" y="633"/>
      <point x="70" y="580"/>
      <point x="70" y="508" type="curve" smooth="yes"/>
      <point x="70" y="437"/>
      <point x="119" y="384"/>
      <point x="190" y="384" type="curve" smooth="yes"/>
      <point x="200" y="384"/>
      <point x="204" y="384"/>
      <point x="219" y="386" type="curve"/>
      <point x="219" y="397" type="line"/>
      <point x="184" y="412"/>
      <point x="146" y="435"/>
      <point x="146" y="480" type="curve" smooth="yes"/>
      <point x="146" y="527"/>
      <point x="189" y="565"/>
      <point x="228" y="565" type="curve" smooth="yes"/>
      <point x="261" y="565"/>
      <point x="283" y="539"/>
      <point x="283" y="488" type="curve" smooth="yes"/>
      <point x="283" y="394"/>
      <point x="206" y="296"/>
      <point x="206" y="209" type="curve" smooth="yes"/>
      <point x="206" y="104"/>
      <point x="317" y="-5"/>
      <point x="466" y="-5" type="curve" smooth="yes"/>
      <point x="594" y="-5"/>
      <point x="664" y="75"/>
      <point x="664" y="174" type="curve" smooth="yes"/>
      <point x="664" y="271"/>
      <point x="595" y="343"/>
      <point x="595" y="437" type="curve" smooth="yes"/>
      <point x="595" y="510"/>
      <point x="638" y="565"/>
      <point x="696" y="565" type="curve" smooth="yes"/>
      <point x="736" y="565"/>
      <point x="757" y="540"/>
      <point x="757" y="513" type="curve" smooth="yes"/>
      <point x="757" y="472"/>
      <point x="705" y="423"/>
      <point x="572" y="411" type="curve"/>
    </contour>
  </outline>
</glyph>
<glyph name="vArdhavisarga" format="2">
  <advance width="590"/>
  <unicode hex="1CF2"/>
  <outline>
    <contour>
      <point x="302" y="310" type="curve" smooth="yes"/>
      <point x="430" y="310"/>
      <point x="506" y="403"/>
      <point x="545" y="473" type="curve"/>
      <point x="506" y="498" type="line"/>
      <point x="450" y="403"/>
      <point x="351" y="383"/>
      <point x="291" y="383" type="curve" smooth="yes"/>
      <point x="230" y="383"/>
      <point x="149" y="403"/>
      <point x="93" y="498" type="curve"/>
      <point x="55" y="476" type="line"/>
      <point x="98" y="401"/>
      <point x="175" y="310"/>
    </contour>
    <contour>
      <point x="299" y="268" type="curve" smooth="yes"/>
      <point x="171" y="268"/>
      <point x="94" y="175"/>
      <point x="55" y="105" type="curve"/>
      <point x="94" y="80" type="line"/>
      <point x="150" y="175"/>
      <point x="250" y="195"/>
      <point x="310" y="195" type="curve" smooth="yes"/>
      <point x="371" y="195"/>
      <point x="451" y="175"/>
      <point x="507" y="80" type="curve"/>
      <point x="545" y="102" type="line"/>
      <point x="502" y="177"/>
      <point x="426" y="268"/>
    </contour>
  </outline>
  <guideline angle="90" x="91" y="0"/>
</glyph>
<glyph name="vArdhavisargaTurned" format="2">
  <advance width="561"/>
  <unicode hex="1CF3"/>
  <outline>
    <contour>
      <point x="310" y="281" type="curve" smooth="yes"/>
      <point x="310" y="162"/>
      <point x="410" y="89"/>
      <point x="490" y="49" type="curve"/>
      <point x="511" y="86" type="line"/>
      <point x="408" y="138"/>
      <point x="386" y="214"/>
      <point x="386" y="270" type="curve" smooth="yes"/>
      <point x="386" y="326"/>
      <point x="408" y="419"/>
      <point x="511" y="471" type="curve"/>
      <point x="487" y="509" type="line"/>
      <point x="413" y="472"/>
      <point x="310" y="401"/>
    </contour>
    <contour>
      <point x="262" y="278" type="curve" smooth="yes"/>
      <point x="262" y="397"/>
      <point x="161" y="469"/>
      <point x="81" y="509" type="curve"/>
      <point x="60" y="472" type="line"/>
      <point x="163" y="420"/>
      <point x="186" y="345"/>
      <point x="186" y="289" type="curve" smooth="yes"/>
      <point x="186" y="233"/>
      <point x="163" y="139"/>
      <point x="60" y="87" type="curve"/>
      <point x="84" y="49" type="line"/>
      <point x="158" y="86"/>
      <point x="262" y="158"/>
    </contour>
  </outline>
  <guideline angle="90" x="89" y="0"/>
</glyph>
<glyph name="vJihvamuliya" format="2">
  <advance width="562"/>
  <unicode hex="1CF5"/>
  <outline>
    <contour>
      <point x="125" y="545" type="line"/>
      <point x="426" y="545" type="line"/>
      <point x="504" y="610" type="line"/>
      <point x="504" y="620" type="line"/>
      <point x="48" y="620" type="line"/>
      <point x="48" y="610" type="line"/>
    </contour>
    <contour>
      <point x="452" y="10" type="line"/>
      <point x="507" y="10" type="line"/>
      <point x="106" y="610" type="line"/>
      <point x="48" y="610" type="line"/>
    </contour>
    <contour>
      <point x="45" y="10" type="line"/>
      <point x="45" y="0" type="line"/>
      <point x="507" y="0" type="line"/>
      <point x="507" y="10" type="line"/>
      <point x="429" y="75" type="line"/>
      <point x="122" y="75" type="line"/>
    </contour>
    <contour>
      <point x="45" y="10" type="line"/>
      <point x="113" y="10" type="line"/>
      <point x="504" y="610" type="line"/>
      <point x="438" y="610" type="line"/>
    </contour>
  </outline>
  <guideline angle="90" x="79" y="0"/>
  <guideline angle="90" x="504" y="0"/>
</glyph>
<glyph name="vRingAbove" format="2">
  <unicode hex="1CF8"/>
  <outline>
    <contour>
      <point x="-238" y="786" type="curve" smooth="yes"/>
      <point x="-238" y="726"/>
      <point x="-191" y="679"/>
      <point x="-130" y="679" type="curve" smooth="yes"/>
      <point x="-71" y="679"/>
      <point x="-24" y="724"/>
      <point x="-24" y="784" type="curve" smooth="yes"/>
      <point x="-24" y="844"/>
      <point x="-70" y="892"/>
      <point x="-131" y="892" type="curve" smooth="yes"/>
      <point x="-190" y="892"/>
      <point x="-238" y="847"/>
    </contour>
    <contour>
      <point x="-197" y="784" type="curve" smooth="yes"/>
      <point x="-197" y="822"/>
      <point x="-170" y="851"/>
      <point x="-130" y="851" type="curve" smooth="yes"/>
      <point x="-94" y="851"/>
      <point x="-66" y="824"/>
      <point x="-66" y="786" type="curve" smooth="yes"/>
      <point x="-66" y="748"/>
      <point x="-93" y="720"/>
      <point x="-131" y="720" type="curve" smooth="yes"/>
      <point x="-169" y="720"/>
      <point x="-197" y="746"/>
    </contour>
  </outline>
</glyph>
<glyph name="dZerocomb" format="2">
  <unicode hex="A8E0"/>
  <outline>
    <contour>
      <point x="-138" y="890" type="curve" smooth="yes"/>
      <point x="-181" y="890"/>
      <point x="-223" y="857"/>
      <point x="-223" y="808" type="curve" smooth="yes"/>
      <point x="-223" y="754"/>
      <point x="-175" y="709"/>
      <point x="-125" y="709" type="curve" smooth="yes"/>
      <point x="-80" y="709"/>
      <point x="-39" y="745"/>
      <point x="-39" y="791" type="curve" smooth="yes"/>
      <point x="-39" y="839"/>
      <point x="-86" y="890"/>
    </contour>
    <contour>
      <point x="-116" y="854" type="curve" smooth="yes"/>
      <point x="-91" y="854"/>
      <point x="-79" y="837"/>
      <point x="-79" y="814" type="curve" smooth="yes"/>
      <point x="-79" y="777"/>
      <point x="-110" y="746"/>
      <point x="-146" y="746" type="curve" smooth="yes"/>
      <point x="-172" y="746"/>
      <point x="-185" y="764"/>
      <point x="-185" y="785" type="curve" smooth="yes"/>
      <point x="-185" y="819"/>
      <point x="-150" y="854"/>
    </contour>
  </outline>
  <guideline angle="90" x="96" y="0"/>
</glyph>
<glyph name="dOnecomb" format="2">
  <unicode hex="A8E1"/>
  <outline>
    <contour>
      <point x="-94" y="636" type="line"/>
      <point x="-73" y="650"/>
      <point x="-64" y="663"/>
      <point x="-64" y="677" type="curve" smooth="yes"/>
      <point x="-64" y="700"/>
      <point x="-88" y="716"/>
      <point x="-144" y="763" type="curve"/>
      <point x="-86" y="807"/>
      <point x="-64" y="831"/>
      <point x="-64" y="863" type="curve" smooth="yes"/>
      <point x="-64" y="905"/>
      <point x="-105" y="950"/>
      <point x="-154" y="950" type="curve" smooth="yes"/>
      <point x="-195" y="950"/>
      <point x="-219" y="918"/>
      <point x="-219" y="891" type="curve" smooth="yes"/>
      <point x="-219" y="858"/>
      <point x="-185" y="828"/>
      <point x="-152" y="806" type="curve"/>
      <point x="-130" y="820" type="line"/>
      <point x="-168" y="845"/>
      <point x="-175" y="863"/>
      <point x="-175" y="879" type="curve" smooth="yes"/>
      <point x="-175" y="898"/>
      <point x="-163" y="915"/>
      <point x="-139" y="915" type="curve" smooth="yes"/>
      <point x="-114" y="915"/>
      <point x="-104" y="896"/>
      <point x="-104" y="881" type="curve" smooth="yes"/>
      <point x="-104" y="861"/>
      <point x="-122" y="840"/>
      <point x="-148" y="818" type="curve" smooth="yes"/>
      <point x="-169" y="801"/>
      <point x="-182" y="791"/>
      <point x="-197" y="780" type="curve"/>
      <point x="-197" y="777" type="line"/>
      <point x="-128" y="715"/>
      <point x="-113" y="709"/>
      <point x="-113" y="691" type="curve" smooth="yes"/>
      <point x="-113" y="683"/>
      <point x="-117" y="677"/>
      <point x="-126" y="671" type="curve"/>
    </contour>
  </outline>
  <guideline angle="90" x="101" y="0"/>
</glyph>
<glyph name="dFourcomb" format="2">
  <unicode hex="A8E4"/>
  <outline>
    <contour>
      <point x="-126" y="674" type="curve" smooth="yes"/>
      <point x="-91" y="674"/>
      <point x="-60" y="699"/>
      <point x="-60" y="734" type="curve" smooth="yes"/>
      <point x="-60" y="760"/>
      <point x="-77" y="792"/>
      <point x="-115" y="826" type="curve" smooth="yes"/>
      <point x="-163" y="870"/>
      <point x="-196" y="902"/>
      <point x="-237" y="935" type="curve"/>
      <point x="-261" y="910" type="line"/>
      <point x="-228" y="887"/>
      <point x="-166" y="835"/>
      <point x="-147" y="819" type="curve" smooth="yes"/>
      <point x="-115" y="791"/>
      <point x="-96" y="770"/>
      <point x="-96" y="751" type="curve" smooth="yes"/>
      <point x="-96" y="726"/>
      <point x="-118" y="705"/>
      <point x="-142" y="705" type="curve" smooth="yes"/>
      <point x="-162" y="705"/>
      <point x="-174" y="719"/>
      <point x="-174" y="737" type="curve" smooth="yes"/>
      <point x="-174" y="760"/>
      <point x="-156" y="786"/>
      <point x="-118" y="817" type="curve" smooth="yes"/>
      <point x="-92" y="839"/>
      <point x="-60" y="870"/>
      <point x="-24" y="900" type="curve"/>
      <point x="-45" y="939" type="line"/>
      <point x="-48" y="939" type="line"/>
      <point x="-95" y="901"/>
      <point x="-130" y="868"/>
      <point x="-141" y="857" type="curve" smooth="yes"/>
      <point x="-193" y="808"/>
      <point x="-209" y="778"/>
      <point x="-209" y="753" type="curve" smooth="yes"/>
      <point x="-209" y="715"/>
      <point x="-171" y="674"/>
    </contour>
  </outline>
  <guideline angle="90" x="102" y="0"/>
</glyph>
<glyph name="dSevencomb" format="2">
  <unicode hex="A8E7"/>
  <outline>
    <contour>
      <point x="-116" y="681" type="curve" smooth="yes"/>
      <point x="-69" y="681"/>
      <point x="-24" y="712"/>
      <point x="-24" y="786" type="curve" smooth="yes"/>
      <point x="-24" y="860"/>
      <point x="-71" y="910"/>
      <point x="-120" y="910" type="curve" smooth="yes"/>
      <point x="-154" y="910"/>
      <point x="-181" y="884"/>
      <point x="-181" y="852" type="curve" smooth="yes"/>
      <point x="-181" y="815"/>
      <point x="-144" y="771"/>
      <point x="-101" y="771" type="curve" smooth="yes"/>
      <point x="-84" y="771"/>
      <point x="-66" y="778"/>
      <point x="-56" y="787" type="curve"/>
      <point x="-59" y="835" type="line"/>
      <point x="-65" y="817"/>
      <point x="-95" y="805"/>
      <point x="-112" y="805" type="curve" smooth="yes"/>
      <point x="-131" y="805"/>
      <point x="-141" y="817"/>
      <point x="-141" y="835" type="curve" smooth="yes"/>
      <point x="-141" y="858"/>
      <point x="-122" y="874"/>
      <point x="-102" y="874" type="curve" smooth="yes"/>
      <point x="-73" y="874"/>
      <point x="-62" y="836"/>
      <point x="-62" y="803" type="curve" smooth="yes"/>
      <point x="-62" y="751"/>
      <point x="-85" y="724"/>
      <point x="-123" y="724" type="curve" smooth="yes"/>
      <point x="-184" y="724"/>
      <point x="-225" y="790"/>
      <point x="-237" y="932" type="curve"/>
      <point x="-262" y="929" type="line"/>
      <point x="-250" y="772"/>
      <point x="-199" y="681"/>
    </contour>
  </outline>
  <guideline angle="90" x="123" y="0"/>
</glyph>
<glyph name="dAcomb" format="2">
  <unicode hex="A8EA"/>
  <outline>
    <contour>
      <point x="-202" y="702" type="curve" smooth="yes"/>
      <point x="-159" y="702"/>
      <point x="-125" y="729"/>
      <point x="-125" y="766" type="curve" smooth="yes"/>
      <point x="-125" y="800"/>
      <point x="-139" y="815"/>
      <point x="-158" y="836" type="curve" smooth="yes"/>
      <point x="-170" y="850"/>
      <point x="-188" y="856"/>
      <point x="-209" y="856" type="curve" smooth="yes"/>
      <point x="-232" y="856"/>
      <point x="-251" y="848"/>
      <point x="-266" y="840" type="curve"/>
      <point x="-245" y="803" type="line"/>
      <point x="-233" y="808"/>
      <point x="-217" y="815"/>
      <point x="-202" y="815" type="curve" smooth="yes"/>
      <point x="-185" y="815"/>
      <point x="-166" y="806"/>
      <point x="-166" y="784" type="curve" smooth="yes"/>
      <point x="-166" y="758"/>
      <point x="-192" y="742"/>
      <point x="-220" y="742" type="curve" smooth="yes"/>
      <point x="-264" y="742"/>
      <point x="-286" y="782"/>
      <point x="-308" y="822" type="curve"/>
      <point x="-327" y="811" type="line"/>
      <point x="-295" y="751"/>
      <point x="-261" y="702"/>
    </contour>
    <contour>
      <point x="-175" y="827" type="line"/>
      <point x="-154" y="842"/>
      <point x="-148" y="857"/>
      <point x="-148" y="871" type="curve" smooth="yes"/>
      <point x="-148" y="896"/>
      <point x="-169" y="949"/>
      <point x="-224" y="949" type="curve" smooth="yes"/>
      <point x="-243" y="949"/>
      <point x="-272" y="942"/>
      <point x="-299" y="928" type="curve"/>
      <point x="-277" y="891" type="line"/>
      <point x="-255" y="904"/>
      <point x="-229" y="911"/>
      <point x="-214" y="911" type="curve" smooth="yes"/>
      <point x="-195" y="911"/>
      <point x="-186" y="900"/>
      <point x="-186" y="888" type="curve" smooth="yes"/>
      <point x="-186" y="874"/>
      <point x="-200" y="857"/>
      <point x="-225" y="849" type="curve"/>
    </contour>
    <contour>
      <point x="-125" y="782" type="line"/>
      <point x="-114" y="775"/>
      <point x="-104" y="772"/>
      <point x="-91" y="772" type="curve" smooth="yes"/>
      <point x="-87" y="772"/>
      <point x="-82" y="772"/>
      <point x="-77" y="773" type="curve"/>
      <point x="-85" y="825" type="line"/>
      <point x="-89" y="819"/>
      <point x="-105" y="813"/>
      <point x="-120" y="813" type="curve" smooth="yes"/>
      <point x="-137" y="813"/>
      <point x="-144" y="820"/>
      <point x="-153" y="830" type="curve"/>
      <point x="-136" y="771" type="line"/>
    </contour>
    <contour>
      <point x="-43" y="668" type="line"/>
      <point x="-44" y="924" type="line"/>
      <point x="-90" y="924" type="line"/>
      <point x="-91" y="690" type="line"/>
      <point x="-58" y="668" type="line"/>
    </contour>
    <contour>
      <point x="10" y="903" type="line"/>
      <point x="10" y="907" type="line"/>
      <point x="-9" y="943" type="line"/>
      <point x="-139" y="943" type="line"/>
      <point x="-139" y="939" type="line"/>
      <point x="-120" y="903" type="line"/>
    </contour>
  </outline>
  <guideline angle="90" x="121" y="0"/>
</glyph>
<glyph name="dVicomb" format="2">
  <unicode hex="A8F0"/>
  <outline>
    <contour>
      <point x="-245" y="934" type="line"/>
      <point x="-251" y="947"/>
      <point x="-256" y="957"/>
      <point x="-256" y="969" type="curve" smooth="yes"/>
      <point x="-256" y="993"/>
      <point x="-238" y="1016"/>
      <point x="-195" y="1016" type="curve" smooth="yes"/>
      <point x="-146" y="1016"/>
      <point x="-95" y="987"/>
      <point x="-51" y="952" type="curve"/>
      <point x="-38" y="968" type="line"/>
      <point x="-109" y="1031"/>
      <point x="-162" y="1058"/>
      <point x="-213" y="1058" type="curve" smooth="yes"/>
      <point x="-270" y="1058"/>
      <point x="-297" y="1024"/>
      <point x="-297" y="989" type="curve" smooth="yes"/>
      <point x="-297" y="970"/>
      <point x="-290" y="951"/>
      <point x="-275" y="934" type="curve"/>
    </contour>
    <contour>
      <point x="-238" y="668" type="line"/>
      <point x="-239" y="924" type="line"/>
      <point x="-284" y="924" type="line"/>
      <point x="-286" y="690" type="line"/>
      <point x="-252" y="668" type="line"/>
    </contour>
    <contour>
      <point x="-121" y="730" type="curve" smooth="yes"/>
      <point x="-93" y="730"/>
      <point x="-66" y="748"/>
      <point x="-47" y="765" type="curve"/>
      <point x="-47" y="814" type="line"/>
      <point x="-68" y="794"/>
      <point x="-107" y="768"/>
      <point x="-130" y="768" type="curve" smooth="yes"/>
      <point x="-144" y="768"/>
      <point x="-159" y="778"/>
      <point x="-159" y="795" type="curve" smooth="yes"/>
      <point x="-159" y="817"/>
      <point x="-133" y="833"/>
      <point x="-103" y="833" type="curve" smooth="yes"/>
      <point x="-88" y="833"/>
      <point x="-72" y="829"/>
      <point x="-47" y="811" type="curve"/>
      <point x="-47" y="837" type="line"/>
      <point x="-67" y="859"/>
      <point x="-95" y="873"/>
      <point x="-122" y="873" type="curve" smooth="yes"/>
      <point x="-160" y="873"/>
      <point x="-199" y="845"/>
      <point x="-199" y="807" type="curve" smooth="yes"/>
      <point x="-199" y="771"/>
      <point x="-163" y="730"/>
    </contour>
    <contour>
      <point x="-8" y="668" type="line"/>
      <point x="-9" y="925" type="line"/>
      <point x="-55" y="925" type="line"/>
      <point x="-56" y="690" type="line"/>
      <point x="-23" y="668" type="line"/>
    </contour>
    <contour>
      <point x="45" y="903" type="line"/>
      <point x="45" y="907" type="line"/>
      <point x="26" y="943" type="line"/>
      <point x="-336" y="943" type="line"/>
      <point x="-336" y="939" type="line"/>
      <point x="-317" y="903" type="line"/>
    </contour>
  </outline>
  <guideline angle="0" x="0" y="668"/>
  <guideline angle="90" x="137" y="0"/>
  <guideline angle="90" x="45" y="0"/>
</glyph>
<glyph name="dCandrabinduThree" format="2">
  <advance width="590"/>
  <unicode hex="A8F6"/>
  <outline>
    <contour>
      <point x="345" y="-83" type="line"/>
      <point x="391" y="-54" type="line"/>
      <point x="314" y="47" type="line"/>
      <point x="308" y="71" type="line"/>
      <point x="249" y="147"/>
      <point x="225" y="168"/>
      <point x="200" y="168" type="curve" smooth="yes"/>
      <point x="181" y="168"/>
      <point x="169" y="151"/>
      <point x="169" y="119" type="curve" smooth="yes"/>
      <point x="169" y="61"/>
      <point x="209" y="34"/>
      <point x="311" y="34" type="curve" smooth="yes"/>
      <point x="380" y="34"/>
      <point x="457" y="73"/>
      <point x="457" y="144" type="curve" smooth="yes"/>
      <point x="457" y="230"/>
      <point x="345" y="285"/>
      <point x="299" y="285" type="curve" smooth="yes"/>
      <point x="273" y="285"/>
      <point x="230" y="272"/>
      <point x="208" y="259" type="curve"/>
      <point x="243" y="199" type="line"/>
      <point x="265" y="210"/>
      <point x="304" y="221"/>
      <point x="332" y="221" type="curve" smooth="yes"/>
      <point x="366" y="221"/>
      <point x="392" y="204"/>
      <point x="392" y="167" type="curve" smooth="yes"/>
      <point x="392" y="120"/>
      <point x="351" y="96"/>
      <point x="288" y="96" type="curve" smooth="yes"/>
      <point x="272" y="96"/>
      <point x="254" y="98"/>
      <point x="235" y="101" type="curve"/>
      <point x="338" y="-83" type="line"/>
    </contour>
    <contour>
      <point x="381" y="234" type="line"/>
      <point x="412" y="254"/>
      <point x="423" y="273"/>
      <point x="423" y="303" type="curve" smooth="yes"/>
      <point x="423" y="381"/>
      <point x="350" y="429"/>
      <point x="282" y="429" type="curve" smooth="yes"/>
      <point x="247" y="429"/>
      <point x="197" y="416"/>
      <point x="157" y="397" type="curve"/>
      <point x="194" y="333" type="line"/>
      <point x="235" y="353"/>
      <point x="282" y="367"/>
      <point x="316" y="367" type="curve" smooth="yes"/>
      <point x="344" y="367"/>
      <point x="363" y="358"/>
      <point x="363" y="334" type="curve" smooth="yes"/>
      <point x="363" y="310"/>
      <point x="341" y="284"/>
      <point x="314" y="271" type="curve"/>
    </contour>
    <contour>
      <point x="308" y="471" type="curve" smooth="yes"/>
      <point x="385" y="471"/>
      <point x="466" y="505"/>
      <point x="510" y="601" type="curve"/>
      <point x="441" y="654" type="line"/>
      <point x="417" y="600"/>
      <point x="367" y="536"/>
      <point x="280" y="536" type="curve" smooth="yes"/>
      <point x="234" y="536"/>
      <point x="173" y="555"/>
      <point x="118" y="644" type="curve"/>
      <point x="85" y="625" type="line"/>
      <point x="132" y="531"/>
      <point x="205" y="471"/>
    </contour>
    <contour>
      <point x="346" y="666" type="line"/>
      <point x="280" y="733" type="line"/>
      <point x="215" y="667" type="line"/>
      <point x="280" y="602" type="line"/>
    </contour>
  </outline>
</glyph>
<glyph name="dPushpika" format="2">
  <advance width="755"/>
  <unicode hex="A8F8"/>
  <outline>
    <contour>
      <point x="667" y="-124" type="line"/>
      <point x="722" y="-71"/>
      <point x="745" y="-15"/>
      <point x="745" y="41" type="curve" smooth="yes"/>
      <point x="745" y="119"/>
      <point x="704" y="179"/>
      <point x="614" y="222" type="curve" smooth="yes"/>
      <point x="544" y="257"/>
      <point x="472" y="308"/>
      <point x="472" y="393" type="curve" smooth="yes"/>
      <point x="472" y="448"/>
      <point x="502" y="483"/>
      <point x="543" y="483" type="curve" smooth="yes"/>
      <point x="582" y="483"/>
      <point x="623" y="451"/>
      <point x="623" y="373" type="curve" smooth="yes"/>
      <point x="623" y="225"/>
      <point x="474" y="92"/>
      <point x="334" y="92" type="curve" smooth="yes"/>
      <point x="268" y="92"/>
      <point x="211" y="121"/>
      <point x="211" y="172" type="curve" smooth="yes"/>
      <point x="211" y="221"/>
      <point x="265" y="259"/>
      <point x="370" y="270" type="curve"/>
      <point x="343" y="347" type="line"/>
      <point x="219" y="336"/>
      <point x="129" y="287"/>
      <point x="129" y="211" type="curve" smooth="yes"/>
      <point x="129" y="130"/>
      <point x="236" y="30"/>
      <point x="372" y="30" type="curve" smooth="yes"/>
      <point x="525" y="30"/>
      <point x="690" y="157"/>
      <point x="690" y="329" type="curve" smooth="yes"/>
      <point x="690" y="454"/>
      <point x="602" y="540"/>
      <point x="512" y="540" type="curve" smooth="yes"/>
      <point x="445" y="540"/>
      <point x="388" y="492"/>
      <point x="388" y="419" type="curve" smooth="yes"/>
      <point x="388" y="333"/>
      <point x="468" y="254"/>
      <point x="585" y="192" type="curve" smooth="yes"/>
      <point x="647" y="159"/>
      <point x="683" y="139"/>
      <point x="683" y="84" type="curve" smooth="yes"/>
      <point x="683" y="35"/>
      <point x="652" y="-11"/>
      <point x="605" y="-58" type="curve"/>
      <point x="660" y="-124" type="line"/>
    </contour>
    <contour>
      <point x="200" y="298" type="line"/>
      <point x="164" y="320"/>
      <point x="134" y="347"/>
      <point x="134" y="386" type="curve" smooth="yes"/>
      <point x="134" y="437"/>
      <point x="185" y="460"/>
      <point x="245" y="460" type="curve" smooth="yes"/>
      <point x="270" y="460"/>
      <point x="303" y="456"/>
      <point x="320" y="452" type="curve"/>
      <point x="311" y="485"/>
      <point x="288" y="535"/>
      <point x="206" y="535" type="curve" smooth="yes"/>
      <point x="130" y="535"/>
      <point x="60" y="493"/>
      <point x="60" y="418" type="curve" smooth="yes"/>
      <point x="60" y="366"/>
      <point x="95" y="319"/>
      <point x="168" y="270" type="curve"/>
    </contour>
  </outline>
</glyph>
<glyph name="dGapFiller" format="2">
  <advance width="624"/>
  <unicode hex="A8F9"/>
  <outline>
    <contour>
      <point x="375" y="359" type="line"/>
      <point x="374" y="366"/>
      <point x="374" y="372"/>
      <point x="374" y="379" type="curve" smooth="yes"/>
      <point x="374" y="435"/>
      <point x="404" y="470"/>
      <point x="445" y="470" type="curve" smooth="yes"/>
      <point x="480" y="470"/>
      <point x="517" y="444"/>
      <point x="517" y="378" type="curve" smooth="yes"/>
      <point x="517" y="254"/>
      <point x="387" y="107"/>
      <point x="236" y="107" type="curve" smooth="yes"/>
      <point x="173" y="107"/>
      <point x="124" y="133"/>
      <point x="124" y="191" type="curve" smooth="yes"/>
      <point x="124" y="246"/>
      <point x="169" y="276"/>
      <point x="231" y="276" type="curve" smooth="yes"/>
      <point x="250" y="276"/>
      <point x="268" y="273"/>
      <point x="288" y="269" type="curve"/>
      <point x="278" y="309"/>
      <point x="250" y="349"/>
      <point x="181" y="349" type="curve" smooth="yes"/>
      <point x="93" y="349"/>
      <point x="50" y="284"/>
      <point x="50" y="225" type="curve" smooth="yes"/>
      <point x="50" y="136"/>
      <point x="148" y="45"/>
      <point x="270" y="45" type="curve" smooth="yes"/>
      <point x="414" y="45"/>
      <point x="584" y="173"/>
      <point x="584" y="335" type="curve" smooth="yes"/>
      <point x="584" y="450"/>
      <point x="498" y="527"/>
      <point x="413" y="527" type="curve" smooth="yes"/>
      <point x="346" y="527"/>
      <point x="291" y="479"/>
      <point x="291" y="404" type="curve" smooth="yes"/>
      <point x="291" y="394"/>
      <point x="292" y="385"/>
      <point x="294" y="375" type="curve"/>
      <point x="370" y="355" type="line"/>
    </contour>
  </outline>
</glyph>
<glyph name="dCaret" format="2">
  <unicode hex="A8FA"/>
  <outline>
    <contour>
      <point x="188" y="842" type="line"/>
      <point x="133" y="890" type="line"/>
      <point x="-15" y="750" type="line"/>
      <point x="-136" y="886" type="line"/>
      <point x="-140" y="886" type="line"/>
      <point x="-174" y="855" type="line"/>
      <point x="-2" y="668" type="line"/>
      <point x="2" y="668" type="line"/>
      <point x="187" y="834" type="line"/>
    </contour>
  </outline>
</glyph>
<glyph name="dAnudatta.W" format="2">
  <outline>
    <contour>
      <point x="-677" y="-77" type="line"/>
      <point x="-677" y="-128" type="line"/>
      <point x="-63" y="-128" type="line"/>
      <point x="-63" y="-77" type="line"/>
    </contour>
  </outline>
</glyph>
<glyph name="dBDhVa" format="2">
  <advance width="1276"/>
  <outline>
    <component base="dVa" xOffset="679"/>
    <component base="dDh.half" xOffset="257"/>
    <contour>
      <point x="347" y="545" type="line"/>
      <point x="408" y="620" type="line"/>
      <point x="-28" y="620" type="line"/>
      <point x="-28" y="610" type="line"/>
      <point x="6" y="545" type="line"/>
    </contour>
    <contour>
      <point x="41" y="321" type="curve" smooth="yes"/>
      <point x="41" y="244"/>
      <point x="111" y="128"/>
      <point x="256" y="128" type="curve" smooth="yes"/>
      <point x="356" y="128"/>
      <point x="443" y="180"/>
      <point x="443" y="273" type="curve" smooth="yes"/>
      <point x="443" y="357"/>
      <point x="369" y="467"/>
      <point x="234" y="467" type="curve" smooth="yes"/>
      <point x="129" y="467"/>
      <point x="41" y="408"/>
    </contour>
    <contour>
      <point x="359" y="192" type="line"/>
      <point x="178" y="419" type="line"/>
      <point x="138" y="400" type="line"/>
      <point x="318" y="174" type="line"/>
    </contour>
    <contour>
      <point x="384" y="315" type="curve" smooth="yes"/>
      <point x="384" y="244"/>
      <point x="310" y="192"/>
      <point x="226" y="192" type="curve" smooth="yes"/>
      <point x="162" y="192"/>
      <point x="112" y="229"/>
      <point x="112" y="282" type="curve" smooth="yes"/>
      <point x="112" y="354"/>
      <point x="192" y="394"/>
      <point x="268" y="394" type="curve" smooth="yes"/>
      <point x="329" y="394"/>
      <point x="384" y="373"/>
    </contour>
  </outline>
</glyph>
<glyph name="dBJYa" format="2">
  <advance width="1380"/>
  <outline>
    <contour>
      <point x="1220" y="279" type="line"/>
      <point x="1162" y="226"/>
      <point x="1105" y="199"/>
      <point x="1051" y="199" type="curve" smooth="yes"/>
      <point x="989" y="199"/>
      <point x="927" y="236"/>
      <point x="916" y="358" type="curve"/>
      <point x="844" y="370" type="line"/>
      <point x="873" y="216"/>
      <point x="986" y="136"/>
      <point x="1091" y="136" type="curve" smooth="yes"/>
      <point x="1135" y="136"/>
      <point x="1179" y="150"/>
      <point x="1220" y="179" type="curve"/>
    </contour>
    <contour>
      <point x="226" y="162" type="curve" smooth="yes"/>
      <point x="162" y="162"/>
      <point x="112" y="199"/>
      <point x="112" y="252" type="curve" smooth="yes"/>
      <point x="112" y="324"/>
      <point x="192" y="364"/>
      <point x="268" y="364" type="curve" smooth="yes"/>
      <point x="329" y="364"/>
      <point x="384" y="343"/>
      <point x="384" y="285" type="curve" smooth="yes"/>
      <point x="384" y="214"/>
      <point x="310" y="162"/>
    </contour>
    <contour>
      <point x="256" y="98" type="curve" smooth="yes"/>
      <point x="349" y="98"/>
      <point x="437" y="146"/>
      <point x="449" y="228" type="curve"/>
      <point x="354" y="405" type="line"/>
      <point x="321" y="425"/>
      <point x="281" y="437"/>
      <point x="234" y="437" type="curve" smooth="yes"/>
      <point x="129" y="437"/>
      <point x="41" y="378"/>
      <point x="41" y="291" type="curve" smooth="yes"/>
      <point x="41" y="214"/>
      <point x="111" y="98"/>
    </contour>
    <contour>
      <point x="353" y="170" type="line"/>
      <point x="182" y="384" type="line"/>
      <point x="139" y="368" type="line"/>
      <point x="316" y="146" type="line"/>
    </contour>
    <contour>
      <point x="648" y="85" type="curve" smooth="yes"/>
      <point x="722" y="85"/>
      <point x="787" y="129"/>
      <point x="787" y="209" type="curve" smooth="yes"/>
      <point x="787" y="264"/>
      <point x="755" y="303"/>
      <point x="692" y="366" type="curve"/>
      <point x="612" y="356" type="line"/>
      <point x="677" y="327"/>
      <point x="708" y="289"/>
      <point x="708" y="246" type="curve" smooth="yes"/>
      <point x="708" y="202"/>
      <point x="675" y="166"/>
      <point x="621" y="166" type="curve" smooth="yes"/>
      <point x="530" y="166"/>
      <point x="437" y="275"/>
      <point x="368" y="471" type="curve"/>
      <point x="327" y="453" type="line"/>
      <point x="356" y="342"/>
      <point x="477" y="85"/>
    </contour>
    <contour>
      <point x="1408" y="545" type="line"/>
      <point x="1408" y="555" type="line"/>
      <point x="1374" y="620" type="line"/>
      <point x="-28" y="620" type="line"/>
      <point x="-28" y="610" type="line"/>
      <point x="6" y="545" type="line"/>
    </contour>
    <contour>
      <point x="956" y="558" type="line"/>
      <point x="979" y="528"/>
      <point x="994" y="492"/>
      <point x="994" y="463" type="curve" smooth="yes"/>
      <point x="994" y="430"/>
      <point x="974" y="405"/>
      <point x="927" y="405" type="curve" smooth="yes"/>
      <point x="908" y="405"/>
      <point x="872" y="409"/>
      <point x="841" y="425" type="curve"/>
      <point x="585" y="425" type="line"/>
      <point x="585" y="414" type="line"/>
      <point x="612" y="356" type="line"/>
      <point x="692" y="350" type="line"/>
      <point x="864" y="350" type="line"/>
      <point x="879" y="344"/>
      <point x="900" y="331"/>
      <point x="949" y="331" type="curve" smooth="yes"/>
      <point x="1034" y="331"/>
      <point x="1064" y="372"/>
      <point x="1064" y="423" type="curve" smooth="yes"/>
      <point x="1064" y="467"/>
      <point x="1044" y="507"/>
      <point x="1012" y="560" type="curve"/>
    </contour>
    <contour>
      <point x="1207" y="571" type="line"/>
      <point x="1203" y="42" type="line"/>
      <point x="1283" y="-10" type="line"/>
      <point x="1293" y="-10" type="line"/>
      <point x="1291" y="571" type="line"/>
    </contour>
  </outline>
</glyph>
<glyph name="dBRa" format="2">
  <advance width="612"/>
  <outline>
    <contour>
      <point x="439" y="581" type="line"/>
      <point x="438" y="357" type="line"/>
      <point x="417" y="357" type="line"/>
      <point x="437" y="291" type="line"/>
      <point x="435" y="42" type="line"/>
      <point x="515" y="-10" type="line"/>
      <point x="525" y="-10" type="line"/>
      <point x="523" y="581" type="line"/>
    </contour>
    <contour>
      <point x="147" y="389" type="line"/>
      <point x="311" y="182" type="line"/>
      <point x="359" y="192" type="line"/>
      <point x="182" y="414" type="line"/>
    </contour>
    <contour>
      <point x="253" y="139" type="curve" smooth="yes"/>
      <point x="368" y="139"/>
      <point x="455" y="194"/>
      <point x="455" y="285" type="curve" smooth="yes"/>
      <point x="455" y="352"/>
      <point x="391" y="467"/>
      <point x="245" y="467" type="curve" smooth="yes"/>
      <point x="137" y="467"/>
      <point x="51" y="408"/>
      <point x="51" y="320" type="curve" smooth="yes"/>
      <point x="51" y="248"/>
      <point x="112" y="139"/>
    </contour>
    <contour>
      <point x="122" y="286" type="curve" smooth="yes"/>
      <point x="122" y="365"/>
      <point x="192" y="394"/>
      <point x="277" y="394" type="curve" smooth="yes"/>
      <point x="338" y="394"/>
      <point x="394" y="372"/>
      <point x="394" y="318" type="curve" smooth="yes"/>
      <point x="394" y="250"/>
      <point x="302" y="192"/>
      <point x="237" y="192" type="curve" smooth="yes"/>
      <point x="171" y="192"/>
      <point x="122" y="227"/>
    </contour>
    <contour>
      <point x="392" y="257" type="line"/>
      <point x="95" y="58" type="line"/>
      <point x="153" y="0" type="line"/>
      <point x="497" y="243" type="line"/>
    </contour>
    <contour>
      <point x="640" y="545" type="line"/>
      <point x="640" y="555" type="line"/>
      <point x="606" y="620" type="line"/>
      <point x="-28" y="620" type="line"/>
      <point x="-28" y="610" type="line"/>
      <point x="6" y="545" type="line"/>
    </contour>
  </outline>
</glyph>
<glyph name="dBhNa" format="2">
  <advance width="726"/>
  <outline>
    <contour>
      <point x="301" y="154" type="curve" smooth="yes"/>
      <point x="327" y="154"/>
      <point x="330" y="178"/>
      <point x="339" y="266" type="curve" smooth="yes"/>
      <point x="347" y="347"/>
      <point x="348" y="406"/>
      <point x="348" y="430" type="curve" smooth="yes"/>
      <point x="348" y="523"/>
      <point x="260" y="633"/>
      <point x="159" y="633" type="curve" smooth="yes"/>
      <point x="108" y="633"/>
      <point x="53" y="600"/>
      <point x="53" y="538" type="curve" smooth="yes"/>
      <point x="53" y="477"/>
      <point x="98" y="422"/>
      <point x="175" y="422" type="curve"/>
      <point x="176" y="422"/>
      <point x="181" y="422"/>
      <point x="195" y="424" type="curve"/>
      <point x="195" y="435" type="line"/>
      <point x="165" y="451"/>
      <point x="131" y="472"/>
      <point x="131" y="507" type="curve" smooth="yes"/>
      <point x="131" y="541"/>
      <point x="163" y="563"/>
      <point x="196" y="563" type="curve" smooth="yes"/>
      <point x="242" y="563"/>
      <point x="267" y="540"/>
      <point x="267" y="457" type="curve" smooth="yes"/>
      <point x="267" y="390"/>
      <point x="264" y="370"/>
      <point x="250" y="249" type="curve"/>
      <point x="598" y="249" type="line"/>
      <point x="598" y="323" type="line"/>
      <point x="188" y="323" type="line" smooth="yes"/>
      <point x="170" y="323"/>
      <point x="163" y="312"/>
      <point x="163" y="299" type="curve" smooth="yes"/>
      <point x="163" y="252"/>
      <point x="257" y="154"/>
    </contour>
    <contour>
      <point x="421" y="-44" type="curve" smooth="yes"/>
      <point x="443" y="-44"/>
      <point x="452" y="-32"/>
      <point x="452" y="-19" type="curve" smooth="yes"/>
      <point x="452" y="-7"/>
      <point x="443" y="13"/>
      <point x="417" y="66" type="curve"/>
      <point x="596" y="225" type="line"/>
      <point x="580" y="310" type="line"/>
      <point x="339" y="101" type="line" smooth="yes"/>
      <point x="302" y="69"/>
      <point x="283" y="51"/>
      <point x="283" y="31" type="curve"/>
      <point x="284" y="-7"/>
      <point x="380" y="-44"/>
    </contour>
    <contour>
      <point x="639" y="-10" type="line"/>
      <point x="637" y="577" type="line"/>
      <point x="553" y="577" type="line"/>
      <point x="549" y="42" type="line"/>
      <point x="629" y="-10" type="line"/>
    </contour>
    <contour>
      <point x="754" y="545" type="line"/>
      <point x="754" y="555" type="line"/>
      <point x="720" y="620" type="line"/>
      <point x="369" y="620" type="line"/>
      <point x="369" y="610" type="line"/>
      <point x="403" y="545" type="line"/>
    </contour>
  </outline>
</glyph>
<glyph name="dC.half" format="2">
  <advance width="436"/>
  <outline>
    <contour>
      <point x="183" y="370" type="line"/>
      <point x="360" y="392" type="line"/>
      <point x="402" y="373" type="line"/>
      <point x="416" y="373"/>
      <point x="422" y="373"/>
      <point x="444" y="372" type="curve"/>
      <point x="444" y="382" type="line"/>
      <point x="411" y="446" type="line"/>
      <point x="37" y="446" type="line"/>
      <point x="37" y="436" type="line"/>
      <point x="72" y="370" type="line"/>
    </contour>
    <contour>
      <point x="536" y="545" type="line"/>
      <point x="536" y="555" type="line"/>
      <point x="502" y="620" type="line"/>
      <point x="-28" y="620" type="line"/>
      <point x="-28" y="610" type="line"/>
      <point x="6" y="545" type="line"/>
    </contour>
    <contour>
      <point x="364" y="128" type="curve" smooth="yes"/>
      <point x="403" y="128"/>
      <point x="455" y="137"/>
      <point x="551" y="220" type="curve"/>
      <point x="508" y="289" type="line"/>
      <point x="412" y="208"/>
      <point x="353" y="192"/>
      <point x="314" y="192" type="curve" smooth="yes"/>
      <point x="266" y="192"/>
      <point x="221" y="215"/>
      <point x="221" y="277" type="curve" smooth="yes"/>
      <point x="221" y="365"/>
      <point x="314" y="373"/>
      <point x="402" y="373" type="curve"/>
      <point x="402" y="408" type="line"/>
      <point x="196" y="408" type="line"/>
      <point x="156" y="363"/>
      <point x="149" y="336"/>
      <point x="149" y="310" type="curve" smooth="yes"/>
      <point x="149" y="232"/>
      <point x="224" y="128"/>
    </contour>
  </outline>
</glyph>
<glyph name="dCCYa" format="2">
  <advance width="1315"/>
  <outline>
    <component base="dYa" xOffset="733"/>
    <contour>
      <point x="764" y="620" type="line"/>
      <point x="-28" y="620" type="line"/>
      <point x="-28" y="610" type="line"/>
      <point x="6" y="545" type="line"/>
      <point x="764" y="545" type="line"/>
    </contour>
    <contour>
      <point x="247" y="371" type="line"/>
      <point x="370" y="392" type="line"/>
      <point x="402" y="371" type="line"/>
      <point x="487" y="371" type="line"/>
      <point x="638" y="389" type="line"/>
      <point x="705" y="373" type="line"/>
      <point x="719" y="373"/>
      <point x="725" y="373"/>
      <point x="747" y="372" type="curve"/>
      <point x="747" y="382" type="line"/>
      <point x="714" y="446" type="line"/>
      <point x="37" y="446" type="line"/>
      <point x="37" y="436" type="line"/>
      <point x="72" y="370" type="line"/>
    </contour>
    <contour>
      <point x="485" y="270" type="line"/>
      <point x="402" y="205"/>
      <point x="349" y="192"/>
      <point x="314" y="192" type="curve" smooth="yes"/>
      <point x="266" y="192"/>
      <point x="221" y="215"/>
      <point x="221" y="277" type="curve" smooth="yes"/>
      <point x="221" y="365"/>
      <point x="314" y="371"/>
      <point x="402" y="371" type="curve"/>
      <point x="402" y="409" type="line"/>
      <point x="177" y="384" type="line"/>
      <point x="158" y="361"/>
      <point x="149" y="336"/>
      <point x="149" y="309" type="curve" smooth="yes"/>
      <point x="149" y="232"/>
      <point x="224" y="128"/>
      <point x="364" y="128" type="curve" smooth="yes"/>
      <point x="400" y="128"/>
      <point x="449" y="135"/>
      <point x="532" y="204" type="curve"/>
    </contour>
    <contour>
      <point x="452" y="309" type="curve" smooth="yes"/>
      <point x="452" y="239"/>
      <point x="521" y="128"/>
      <point x="665" y="128" type="curve" smooth="yes"/>
      <point x="704" y="128"/>
      <point x="757" y="136"/>
      <point x="854" y="220" type="curve"/>
      <point x="811" y="289" type="line"/>
      <point x="713" y="206"/>
      <point x="655" y="192"/>
      <point x="617" y="192" type="curve" smooth="yes"/>
      <point x="569" y="192"/>
      <point x="524" y="215"/>
      <point x="524" y="277" type="curve" smooth="yes"/>
      <point x="524" y="365"/>
      <point x="617" y="373"/>
      <point x="705" y="373" type="curve"/>
      <point x="704" y="413" type="line"/>
      <point x="481" y="386" type="line"/>
      <point x="463" y="361"/>
      <point x="452" y="336"/>
    </contour>
  </outline>
</glyph>
<glyph name="dCChMa" format="2">
  <advance width="1092"/>
  <outline>
    <component base="dCha" xOffset="341"/>
    <contour>
      <point x="373" y="125" type="curve" smooth="yes"/>
      <point x="409" y="125"/>
      <point x="462" y="132"/>
      <point x="561" y="206" type="curve"/>
      <point x="518" y="274" type="line"/>
      <point x="419" y="201"/>
      <point x="360" y="189"/>
      <point x="323" y="189" type="curve" smooth="yes"/>
      <point x="262" y="189"/>
      <point x="220" y="221"/>
      <point x="220" y="279" type="curve" smooth="yes"/>
      <point x="220" y="364"/>
      <point x="311" y="373"/>
      <point x="416" y="373" type="curve"/>
      <point x="416" y="408" type="line"/>
      <point x="177" y="382" type="line"/>
      <point x="158" y="362"/>
      <point x="149" y="336"/>
      <point x="149" y="306" type="curve" smooth="yes"/>
      <point x="149" y="210"/>
      <point x="246" y="125"/>
    </contour>
    <contour>
      <point x="183" y="370" type="line"/>
      <point x="357" y="388" type="line"/>
      <point x="416" y="373" type="line"/>
      <point x="444" y="373" type="line"/>
      <point x="471" y="446" type="line"/>
      <point x="37" y="446" type="line"/>
      <point x="37" y="436" type="line"/>
      <point x="72" y="370" type="line"/>
    </contour>
    <contour>
      <point x="536" y="545" type="line"/>
      <point x="536" y="555" type="line"/>
      <point x="502" y="620" type="line"/>
      <point x="-28" y="620" type="line"/>
      <point x="-28" y="610" type="line"/>
      <point x="6" y="545" type="line"/>
    </contour>
    <contour>
      <point x="527" y="-116" type="line" smooth="yes"/>
      <point x="509" y="-116"/>
      <point x="502" y="-127"/>
      <point x="502" y="-139" type="curve" smooth="yes"/>
      <point x="502" y="-189"/>
      <point x="582" y="-267"/>
      <point x="622" y="-267" type="curve" smooth="yes"/>
      <point x="637" y="-267"/>
      <point x="645" y="-259"/>
      <point x="645" y="-242" type="curve" smooth="yes"/>
      <point x="643" y="45" type="line"/>
      <point x="572" y="79" type="line"/>
      <point x="571" y="-181" type="line"/>
      <point x="864" y="-181" type="line"/>
      <point x="864" y="-116" type="line"/>
    </contour>
    <contour>
      <point x="896" y="-337" type="line"/>
      <point x="892" y="94" type="line"/>
      <point x="818" y="64" type="line"/>
      <point x="816" y="-291" type="line"/>
      <point x="886" y="-337" type="line"/>
    </contour>
  </outline>
</glyph>
<glyph name="dCChYa" format="2">
  <advance width="1575"/>
  <outline>
    <contour>
      <point x="702" y="10" type="curve" smooth="yes"/>
      <point x="854" y="10"/>
      <point x="1033" y="139"/>
      <point x="1033" y="308" type="curve" smooth="yes"/>
      <point x="1033" y="424"/>
      <point x="948" y="501"/>
      <point x="862" y="501" type="curve" smooth="yes"/>
      <point x="795" y="501"/>
      <point x="738" y="456"/>
      <point x="738" y="386" type="curve" smooth="yes"/>
      <point x="738" y="289"/>
      <point x="849" y="221"/>
      <point x="906" y="184" type="curve"/>
      <point x="937" y="214" type="line"/>
      <point x="855" y="258"/>
      <point x="822" y="308"/>
      <point x="822" y="362" type="curve" smooth="yes"/>
      <point x="822" y="412"/>
      <point x="852" y="444"/>
      <point x="893" y="444" type="curve" smooth="yes"/>
      <point x="929" y="444"/>
      <point x="966" y="419"/>
      <point x="966" y="349" type="curve" smooth="yes"/>
      <point x="966" y="209"/>
      <point x="808" y="72"/>
      <point x="663" y="72" type="curve" smooth="yes"/>
      <point x="601" y="72"/>
      <point x="539" y="99"/>
      <point x="539" y="147" type="curve" smooth="yes"/>
      <point x="539" y="193"/>
      <point x="593" y="229"/>
      <point x="705" y="239" type="curve"/>
      <point x="678" y="316" type="line"/>
      <point x="581" y="307"/>
      <point x="464" y="269"/>
      <point x="464" y="184" type="curve" smooth="yes"/>
      <point x="464" y="106"/>
      <point x="572" y="10"/>
    </contour>
    <contour>
      <point x="373" y="125" type="curve" smooth="yes"/>
      <point x="409" y="125"/>
      <point x="462" y="132"/>
      <point x="561" y="206" type="curve"/>
      <point x="518" y="274" type="line"/>
      <point x="419" y="201"/>
      <point x="360" y="189"/>
      <point x="323" y="189" type="curve" smooth="yes"/>
      <point x="262" y="189"/>
      <point x="220" y="221"/>
      <point x="220" y="279" type="curve" smooth="yes"/>
      <point x="220" y="364"/>
      <point x="311" y="373"/>
      <point x="416" y="373" type="curve"/>
      <point x="415" y="398" type="line"/>
      <point x="190" y="398" type="line"/>
      <point x="158" y="367"/>
      <point x="149" y="336"/>
      <point x="149" y="306" type="curve" smooth="yes"/>
      <point x="149" y="210"/>
      <point x="246" y="125"/>
    </contour>
    <contour>
      <point x="183" y="370" type="line"/>
      <point x="375" y="388" type="line"/>
      <point x="416" y="373" type="line"/>
      <point x="444" y="373" type="line"/>
      <point x="471" y="446" type="line"/>
      <point x="37" y="446" type="line"/>
      <point x="37" y="436" type="line"/>
      <point x="72" y="370" type="line"/>
    </contour>
    <contour>
      <point x="535" y="267" type="line"/>
      <point x="500" y="288"/>
      <point x="469" y="314"/>
      <point x="469" y="351" type="curve" smooth="yes"/>
      <point x="469" y="399"/>
      <point x="520" y="421"/>
      <point x="579" y="421" type="curve" smooth="yes"/>
      <point x="605" y="421"/>
      <point x="638" y="417"/>
      <point x="655" y="413" type="curve"/>
      <point x="646" y="446"/>
      <point x="623" y="496"/>
      <point x="541" y="496" type="curve" smooth="yes"/>
      <point x="464" y="496"/>
      <point x="395" y="455"/>
      <point x="395" y="383" type="curve" smooth="yes"/>
      <point x="395" y="332"/>
      <point x="430" y="287"/>
      <point x="503" y="239" type="curve"/>
    </contour>
    <contour>
      <point x="1603" y="545" type="line"/>
      <point x="1603" y="555" type="line"/>
      <point x="1569" y="620" type="line"/>
      <point x="-28" y="620" type="line"/>
      <point x="-28" y="610" type="line"/>
      <point x="6" y="545" type="line"/>
    </contour>
    <contour>
      <point x="1292" y="55" type="curve" smooth="yes"/>
      <point x="1327" y="55"/>
      <point x="1365" y="65"/>
      <point x="1397" y="85" type="curve"/>
      <point x="1414" y="77" type="line"/>
      <point x="1414" y="194" type="line"/>
      <point x="1360" y="145"/>
      <point x="1304" y="118"/>
      <point x="1261" y="118" type="curve" smooth="yes"/>
      <point x="1212" y="118"/>
      <point x="1174" y="153"/>
      <point x="1173" y="194" type="curve"/>
      <point x="1264" y="222"/>
      <point x="1300" y="258"/>
      <point x="1300" y="309" type="curve" smooth="yes"/>
      <point x="1300" y="364"/>
      <point x="1256" y="458"/>
      <point x="1132" y="458" type="curve" smooth="yes"/>
      <point x="943" y="458" type="line"/>
      <point x="978" y="385" type="line"/>
      <point x="1157" y="385" type="line" smooth="yes"/>
      <point x="1223" y="385"/>
      <point x="1230" y="366"/>
      <point x="1230" y="350" type="curve" smooth="yes"/>
      <point x="1230" y="309"/>
      <point x="1182" y="279"/>
      <point x="1087" y="254" type="curve"/>
      <point x="1107" y="142"/>
      <point x="1191" y="55"/>
    </contour>
    <contour>
      <point x="1488" y="-45" type="line"/>
      <point x="1486" y="581" type="line"/>
      <point x="1402" y="581" type="line"/>
      <point x="1398" y="7" type="line"/>
      <point x="1478" y="-45" type="line"/>
    </contour>
  </outline>
</glyph>
<glyph name="dCCha" format="2">
  <advance width="1092"/>
  <outline>
    <component base="dCha" xOffset="341"/>
    <contour>
      <point x="373" y="125" type="curve" smooth="yes"/>
      <point x="409" y="125"/>
      <point x="462" y="132"/>
      <point x="561" y="206" type="curve"/>
      <point x="518" y="274" type="line"/>
      <point x="419" y="201"/>
      <point x="360" y="189"/>
      <point x="323" y="189" type="curve" smooth="yes"/>
      <point x="262" y="189"/>
      <point x="220" y="221"/>
      <point x="220" y="279" type="curve" smooth="yes"/>
      <point x="220" y="364"/>
      <point x="311" y="373"/>
      <point x="416" y="373" type="curve"/>
      <point x="416" y="408" type="line"/>
      <point x="177" y="382" type="line"/>
      <point x="158" y="362"/>
      <point x="149" y="336"/>
      <point x="149" y="306" type="curve" smooth="yes"/>
      <point x="149" y="210"/>
      <point x="246" y="125"/>
    </contour>
    <contour>
      <point x="183" y="370" type="line"/>
      <point x="357" y="388" type="line"/>
      <point x="416" y="373" type="line"/>
      <point x="444" y="373" type="line"/>
      <point x="471" y="446" type="line"/>
      <point x="37" y="446" type="line"/>
      <point x="37" y="436" type="line"/>
      <point x="72" y="370" type="line"/>
    </contour>
    <contour>
      <point x="536" y="545" type="line"/>
      <point x="536" y="555" type="line"/>
      <point x="502" y="620" type="line"/>
      <point x="-28" y="620" type="line"/>
      <point x="-28" y="610" type="line"/>
      <point x="6" y="545" type="line"/>
    </contour>
  </outline>
</glyph>
<glyph name="dCNya" format="2">
  <advance width="764"/>
  <outline>
    <contour>
      <point x="591" y="581" type="line"/>
      <point x="588" y="-145" type="line"/>
      <point x="667" y="-202" type="line"/>
      <point x="677" y="-202" type="line"/>
      <point x="677" y="581" type="line"/>
    </contour>
    <contour>
      <point x="325" y="-145" type="curve" smooth="yes"/>
      <point x="414" y="-145"/>
      <point x="480" y="-101"/>
      <point x="480" y="-12" type="curve" smooth="yes"/>
      <point x="480" y="78"/>
      <point x="406" y="156"/>
      <point x="318" y="156" type="curve" smooth="yes"/>
      <point x="281" y="156"/>
      <point x="233" y="144"/>
      <point x="199" y="124" type="curve"/>
      <point x="240" y="50" type="line"/>
      <point x="273" y="64"/>
      <point x="319" y="83"/>
      <point x="355" y="83" type="curve" smooth="yes"/>
      <point x="400" y="83"/>
      <point x="418" y="53"/>
      <point x="418" y="19" type="curve" smooth="yes"/>
      <point x="418" y="-43"/>
      <point x="361" y="-70"/>
      <point x="301" y="-70" type="curve" smooth="yes"/>
      <point x="198" y="-70"/>
      <point x="126" y="13"/>
      <point x="80" y="90" type="curve"/>
      <point x="44" y="68" type="line"/>
      <point x="135" y="-86"/>
      <point x="223" y="-145"/>
    </contour>
    <contour>
      <point x="569" y="-52" type="curve" smooth="yes"/>
      <point x="572" y="-52"/>
      <point x="595" y="-51"/>
      <point x="615" y="-42" type="curve"/>
      <point x="615" y="49" type="line"/>
      <point x="587" y="29"/>
      <point x="557" y="20"/>
      <point x="529" y="20" type="curve" smooth="yes"/>
      <point x="504" y="20"/>
      <point x="480" y="28"/>
      <point x="463" y="43" type="curve"/>
      <point x="467" y="-24" type="line"/>
      <point x="483" y="-16" type="line"/>
      <point x="500" y="-31"/>
      <point x="530" y="-52"/>
    </contour>
    <contour>
      <point x="220" y="397" type="line"/>
      <point x="370" y="419" type="line"/>
      <point x="452" y="400" type="line"/>
      <point x="456" y="400"/>
      <point x="462" y="400"/>
      <point x="483" y="399" type="curve"/>
      <point x="483" y="409" type="line"/>
      <point x="451" y="471" type="line"/>
      <point x="68" y="471" type="line"/>
      <point x="68" y="461" type="line"/>
      <point x="102" y="397" type="line"/>
    </contour>
    <contour>
      <point x="792" y="545" type="line"/>
      <point x="792" y="555" type="line"/>
      <point x="758" y="620" type="line"/>
      <point x="-28" y="620" type="line"/>
      <point x="-28" y="610" type="line"/>
      <point x="6" y="545" type="line"/>
    </contour>
    <contour>
      <point x="614" y="391" type="line"/>
      <point x="500" y="280"/>
      <point x="401" y="249"/>
      <point x="345" y="249" type="curve" smooth="yes"/>
      <point x="301" y="249"/>
      <point x="260" y="267"/>
      <point x="260" y="318" type="curve" smooth="yes"/>
      <point x="260" y="393"/>
      <point x="351" y="400"/>
      <point x="452" y="400" type="curve"/>
      <point x="445" y="431" type="line"/>
      <point x="235" y="431" type="line"/>
      <point x="196" y="400"/>
      <point x="191" y="368"/>
      <point x="191" y="348" type="curve" smooth="yes"/>
      <point x="191" y="279"/>
      <point x="259" y="187"/>
      <point x="393" y="187" type="curve" smooth="yes"/>
      <point x="444" y="187"/>
      <point x="515" y="200"/>
      <point x="614" y="285" type="curve"/>
    </contour>
  </outline>
</glyph>
<glyph name="dCh.halfalt" format="2">
  <advance width="588"/>
  <outline>
    <contour>
      <point x="361" y="10" type="curve" smooth="yes"/>
      <point x="513" y="10"/>
      <point x="692" y="139"/>
      <point x="692" y="308" type="curve" smooth="yes"/>
      <point x="692" y="424"/>
      <point x="607" y="501"/>
      <point x="521" y="501" type="curve" smooth="yes"/>
      <point x="454" y="501"/>
      <point x="397" y="456"/>
      <point x="397" y="386" type="curve" smooth="yes"/>
      <point x="397" y="289"/>
      <point x="508" y="221"/>
      <point x="565" y="184" type="curve"/>
      <point x="596" y="214" type="line"/>
      <point x="514" y="258"/>
      <point x="481" y="308"/>
      <point x="481" y="362" type="curve" smooth="yes"/>
      <point x="481" y="412"/>
      <point x="511" y="444"/>
      <point x="552" y="444" type="curve" smooth="yes"/>
      <point x="588" y="444"/>
      <point x="625" y="419"/>
      <point x="625" y="349" type="curve" smooth="yes"/>
      <point x="625" y="209"/>
      <point x="467" y="72"/>
      <point x="322" y="72" type="curve" smooth="yes"/>
      <point x="260" y="72"/>
      <point x="198" y="99"/>
      <point x="198" y="147" type="curve" smooth="yes"/>
      <point x="198" y="193"/>
      <point x="252" y="229"/>
      <point x="364" y="239" type="curve"/>
      <point x="337" y="316" type="line"/>
      <point x="240" y="307"/>
      <point x="123" y="269"/>
      <point x="123" y="184" type="curve" smooth="yes"/>
      <point x="123" y="106"/>
      <point x="231" y="10"/>
    </contour>
    <contour>
      <point x="194" y="267" type="line"/>
      <point x="159" y="288"/>
      <point x="128" y="314"/>
      <point x="128" y="351" type="curve" smooth="yes"/>
      <point x="128" y="399"/>
      <point x="179" y="421"/>
      <point x="238" y="421" type="curve" smooth="yes"/>
      <point x="264" y="421"/>
      <point x="297" y="417"/>
      <point x="314" y="413" type="curve"/>
      <point x="305" y="446"/>
      <point x="282" y="496"/>
      <point x="200" y="496" type="curve" smooth="yes"/>
      <point x="123" y="496"/>
      <point x="54" y="455"/>
      <point x="54" y="383" type="curve" smooth="yes"/>
      <point x="54" y="332"/>
      <point x="89" y="287"/>
      <point x="162" y="239" type="curve"/>
    </contour>
    <contour>
      <point x="688" y="545" type="line"/>
      <point x="688" y="555" type="line"/>
      <point x="654" y="620" type="line"/>
      <point x="-28" y="620" type="line"/>
      <point x="-28" y="610" type="line"/>
      <point x="6" y="545" type="line"/>
    </contour>
  </outline>
  <guideline angle="133.648" x="588" y="0"/>
</glyph>
<glyph name="dDBha" format="2">
  <advance width="668"/>
  <outline>
    <contour>
      <point x="637" y="-88" type="line"/>
      <point x="689" y="-55" type="line"/>
      <point x="535" y="159" type="line"/>
      <point x="510" y="165" type="line"/>
      <point x="495" y="141"/>
      <point x="452" y="134"/>
      <point x="420" y="134" type="curve" smooth="yes"/>
      <point x="350" y="134"/>
      <point x="281" y="180"/>
      <point x="281" y="275" type="curve" smooth="yes"/>
      <point x="281" y="343"/>
      <point x="336" y="376"/>
      <point x="421" y="376" type="curve" smooth="yes"/>
      <point x="562" y="376" type="line"/>
      <point x="574" y="384" type="line"/>
      <point x="574" y="436"/>
      <point x="573" y="508"/>
      <point x="572" y="580" type="curve"/>
      <point x="491" y="580" type="line"/>
      <point x="491" y="451" type="line"/>
      <point x="416" y="451" type="line" smooth="yes"/>
      <point x="290" y="451"/>
      <point x="206" y="422"/>
      <point x="206" y="318" type="curve" smooth="yes"/>
      <point x="206" y="184"/>
      <point x="330" y="71"/>
      <point x="471" y="71" type="curve" smooth="yes"/>
      <point x="594" y="71"/>
      <point x="624" y="136"/>
      <point x="624" y="167" type="curve" smooth="yes"/>
      <point x="624" y="214"/>
      <point x="549" y="257"/>
      <point x="504" y="257" type="curve" smooth="yes"/>
      <point x="483" y="257"/>
      <point x="469" y="247"/>
      <point x="469" y="225" type="curve" smooth="yes"/>
      <point x="469" y="195"/>
      <point x="494" y="144"/>
      <point x="530" y="81" type="curve" smooth="yes"/>
      <point x="628" y="-88" type="line"/>
    </contour>
    <contour>
      <point x="362" y="-167" type="curve" smooth="yes"/>
      <point x="390" y="-167"/>
      <point x="409" y="-160"/>
      <point x="409" y="-142" type="curve" smooth="yes"/>
      <point x="409" y="-129"/>
      <point x="397" y="-103"/>
      <point x="367" y="-51" type="curve"/>
      <point x="344" y="-22" type="line"/>
      <point x="271" y="91"/>
      <point x="216" y="157"/>
      <point x="117" y="157" type="curve" smooth="yes"/>
      <point x="43" y="157"/>
      <point x="3" y="119"/>
      <point x="3" y="68" type="curve" smooth="yes"/>
      <point x="3" y="16"/>
      <point x="44" y="-17"/>
      <point x="93" y="-17" type="curve" smooth="yes"/>
      <point x="126" y="-17"/>
      <point x="160" y="-3"/>
      <point x="182" y="24" type="curve"/>
      <point x="177" y="31" type="line"/>
      <point x="164" y="28"/>
      <point x="151" y="25"/>
      <point x="136" y="25" type="curve" smooth="yes"/>
      <point x="107" y="25"/>
      <point x="76" y="38"/>
      <point x="76" y="69" type="curve" smooth="yes"/>
      <point x="76" y="99"/>
      <point x="100" y="114"/>
      <point x="121" y="114" type="curve" smooth="yes"/>
      <point x="171" y="114"/>
      <point x="226" y="26"/>
      <point x="309" y="-110" type="curve"/>
      <point x="553" y="74" type="line"/>
      <point x="518" y="136" type="line"/>
      <point x="224" y="-85" type="line" smooth="yes"/>
      <point x="216" y="-91"/>
      <point x="213" y="-97"/>
      <point x="213" y="-103" type="curve" smooth="yes"/>
      <point x="213" y="-138"/>
      <point x="304" y="-167"/>
    </contour>
    <contour>
      <point x="696" y="545" type="line"/>
      <point x="696" y="555" type="line"/>
      <point x="662" y="620" type="line"/>
      <point x="-28" y="620" type="line"/>
      <point x="-28" y="610" type="line"/>
      <point x="6" y="545" type="line"/>
    </contour>
  </outline>
</glyph>
<glyph name="dDDa_dSignVocalicR" format="2">
  <advance width="499"/>
  <outline>
    <contour>
      <point x="463" y="-50" type="line"/>
      <point x="408" y="-78"/>
      <point x="364" y="-87"/>
      <point x="332" y="-87" type="curve" smooth="yes"/>
      <point x="268" y="-87"/>
      <point x="255" y="-54"/>
      <point x="255" y="-32" type="curve" smooth="yes"/>
      <point x="255" y="4"/>
      <point x="293" y="43"/>
      <point x="413" y="46" type="curve"/>
      <point x="413" y="52" type="line"/>
      <point x="373" y="110" type="line"/>
      <point x="269" y="108"/>
      <point x="192" y="68"/>
      <point x="192" y="-1" type="curve" smooth="yes"/>
      <point x="192" y="-53"/>
      <point x="239" y="-150"/>
      <point x="368" y="-150" type="curve" smooth="yes"/>
      <point x="437" y="-150"/>
      <point x="489" y="-123"/>
      <point x="509" y="-110" type="curve"/>
    </contour>
    <contour>
      <point x="527" y="545" type="line"/>
      <point x="527" y="555" type="line"/>
      <point x="493" y="620" type="line"/>
      <point x="-28" y="620" type="line"/>
      <point x="-28" y="610" type="line"/>
      <point x="6" y="545" type="line"/>
    </contour>
    <contour>
      <point x="227" y="268" type="line" smooth="yes"/>
      <point x="184" y="268"/>
      <point x="124" y="302"/>
      <point x="124" y="357" type="curve" smooth="yes"/>
      <point x="124" y="388"/>
      <point x="147" y="403"/>
      <point x="189" y="403" type="curve" smooth="yes"/>
      <point x="385" y="403" type="line"/>
      <point x="397" y="411" type="line"/>
      <point x="397" y="458"/>
      <point x="396" y="495"/>
      <point x="395" y="583" type="curve"/>
      <point x="316" y="583" type="line"/>
      <point x="316" y="478" type="line"/>
      <point x="171" y="478" type="line" smooth="yes"/>
      <point x="89" y="478"/>
      <point x="52" y="446"/>
      <point x="52" y="394" type="curve" smooth="yes"/>
      <point x="52" y="336"/>
      <point x="112" y="230"/>
      <point x="226" y="221" type="curve"/>
      <point x="248" y="214"/>
      <point x="277" y="206"/>
      <point x="311" y="206" type="curve" smooth="yes"/>
      <point x="344" y="206"/>
      <point x="382" y="211"/>
      <point x="382" y="232" type="curve" smooth="yes"/>
      <point x="382" y="241"/>
      <point x="376" y="266"/>
      <point x="363" y="277" type="curve" smooth="yes"/>
      <point x="355" y="284"/>
      <point x="347" y="287"/>
      <point x="326" y="287" type="curve" smooth="yes"/>
      <point x="214" y="287"/>
      <point x="119" y="257"/>
      <point x="119" y="164" type="curve" smooth="yes"/>
      <point x="119" y="103"/>
      <point x="162" y="52"/>
      <point x="215" y="25" type="curve"/>
      <point x="245" y="56" type="line"/>
      <point x="207" y="73"/>
      <point x="185" y="100"/>
      <point x="185" y="129" type="curve" smooth="yes"/>
      <point x="185" y="174"/>
      <point x="222" y="206"/>
      <point x="283" y="215" type="curve"/>
      <point x="283" y="268" type="line"/>
    </contour>
  </outline>
</glyph>
<glyph name="dDDhRa" format="2">
  <advance width="647"/>
  <outline>
    <contour>
      <point x="645" y="-165" type="line"/>
      <point x="697" y="-132" type="line"/>
      <point x="484" y="177" type="line"/>
      <point x="463" y="138"/>
      <point x="414" y="132"/>
      <point x="383" y="132" type="curve" smooth="yes"/>
      <point x="311" y="132"/>
      <point x="245" y="183"/>
      <point x="245" y="268" type="curve" smooth="yes"/>
      <point x="245" y="347"/>
      <point x="300" y="376"/>
      <point x="385" y="376" type="curve" smooth="yes"/>
      <point x="526" y="376" type="line"/>
      <point x="538" y="384" type="line"/>
      <point x="538" y="436"/>
      <point x="537" y="508"/>
      <point x="536" y="570" type="curve"/>
      <point x="455" y="570" type="line"/>
      <point x="455" y="451" type="line"/>
      <point x="380" y="451" type="line" smooth="yes"/>
      <point x="253" y="451"/>
      <point x="170" y="423"/>
      <point x="170" y="316" type="curve" smooth="yes"/>
      <point x="170" y="183"/>
      <point x="295" y="65"/>
      <point x="435" y="65" type="curve" smooth="yes"/>
      <point x="540" y="65"/>
      <point x="584" y="123"/>
      <point x="584" y="164" type="curve" smooth="yes"/>
      <point x="584" y="211"/>
      <point x="510" y="254"/>
      <point x="465" y="254" type="curve" smooth="yes"/>
      <point x="444" y="254"/>
      <point x="430" y="245"/>
      <point x="430" y="221" type="curve" smooth="yes"/>
      <point x="430" y="193"/>
      <point x="450" y="151"/>
      <point x="492" y="79" type="curve" smooth="yes"/>
      <point x="636" y="-165" type="line"/>
    </contour>
    <contour>
      <point x="184" y="60" type="line"/>
      <point x="131" y="77"/>
      <point x="111" y="103"/>
      <point x="111" y="131" type="curve" smooth="yes"/>
      <point x="111" y="151"/>
      <point x="121" y="170"/>
      <point x="121" y="194" type="curve" smooth="yes"/>
      <point x="121" y="229"/>
      <point x="100" y="259"/>
      <point x="29" y="286" type="curve"/>
      <point x="25" y="279" type="line"/>
      <point x="39" y="262"/>
      <point x="42" y="245"/>
      <point x="42" y="234" type="curve" smooth="yes"/>
      <point x="42" y="215"/>
      <point x="30" y="172"/>
      <point x="30" y="146" type="curve" smooth="yes"/>
      <point x="30" y="78"/>
      <point x="108" y="45"/>
      <point x="154" y="27" type="curve"/>
    </contour>
    <contour>
      <point x="517" y="54" type="line"/>
      <point x="419" y="26" type="line"/>
      <point x="271" y="-233" type="line"/>
      <point x="345" y="-262" type="line"/>
    </contour>
    <contour>
      <point x="313" y="-125" type="curve" smooth="yes"/>
      <point x="345" y="-125"/>
      <point x="383" y="-120"/>
      <point x="421" y="-91" type="curve"/>
      <point x="537" y="85" type="line"/>
      <point x="452" y="91" type="line"/>
      <point x="385" y="-49"/>
      <point x="329" y="-71"/>
      <point x="272" y="-71" type="curve" smooth="yes"/>
      <point x="244" y="-71"/>
      <point x="222" y="-57"/>
      <point x="222" y="-27" type="curve" smooth="yes"/>
      <point x="222" y="4"/>
      <point x="242" y="26"/>
      <point x="289" y="44" type="curve"/>
      <point x="230" y="104" type="line"/>
      <point x="179" y="81"/>
      <point x="142" y="53"/>
      <point x="142" y="2" type="curve" smooth="yes"/>
      <point x="142" y="-75"/>
      <point x="237" y="-125"/>
    </contour>
    <contour>
      <point x="675" y="545" type="line"/>
      <point x="675" y="555" type="line"/>
      <point x="641" y="620" type="line"/>
      <point x="-28" y="620" type="line"/>
      <point x="-28" y="610" type="line"/>
      <point x="6" y="545" type="line"/>
    </contour>
  </outline>
</glyph>
<glyph name="dDDhVa" format="2">
  <advance width="640"/>
  <outline>
    <contour>
      <point x="674" y="-214" type="line"/>
      <point x="727" y="-180" type="line"/>
      <point x="479" y="172" type="line"/>
      <point x="448" y="137"/>
      <point x="402" y="132"/>
      <point x="376" y="132" type="curve" smooth="yes"/>
      <point x="304" y="132"/>
      <point x="238" y="183"/>
      <point x="238" y="268" type="curve" smooth="yes"/>
      <point x="238" y="347"/>
      <point x="293" y="376"/>
      <point x="378" y="376" type="curve" smooth="yes"/>
      <point x="519" y="376" type="line"/>
      <point x="531" y="384" type="line"/>
      <point x="531" y="436"/>
      <point x="530" y="528"/>
      <point x="529" y="580" type="curve"/>
      <point x="448" y="580" type="line"/>
      <point x="448" y="451" type="line"/>
      <point x="373" y="451" type="line" smooth="yes"/>
      <point x="246" y="451"/>
      <point x="163" y="423"/>
      <point x="163" y="316" type="curve" smooth="yes"/>
      <point x="163" y="183"/>
      <point x="288" y="65"/>
      <point x="428" y="65" type="curve" smooth="yes"/>
      <point x="514" y="65"/>
      <point x="577" y="111"/>
      <point x="577" y="164" type="curve" smooth="yes"/>
      <point x="577" y="211"/>
      <point x="503" y="254"/>
      <point x="458" y="254" type="curve" smooth="yes"/>
      <point x="437" y="254"/>
      <point x="423" y="245"/>
      <point x="423" y="221" type="curve" smooth="yes"/>
      <point x="423" y="197"/>
      <point x="438" y="164"/>
      <point x="458" y="131" type="curve" smooth="yes"/>
      <point x="665" y="-214" type="line"/>
    </contour>
    <contour>
      <point x="185" y="44" type="line"/>
      <point x="132" y="62"/>
      <point x="111" y="88"/>
      <point x="111" y="116" type="curve" smooth="yes"/>
      <point x="111" y="136"/>
      <point x="121" y="155"/>
      <point x="121" y="179" type="curve" smooth="yes"/>
      <point x="121" y="214"/>
      <point x="100" y="244"/>
      <point x="29" y="271" type="curve"/>
      <point x="25" y="264" type="line"/>
      <point x="39" y="247"/>
      <point x="42" y="230"/>
      <point x="42" y="219" type="curve" smooth="yes"/>
      <point x="42" y="200"/>
      <point x="30" y="157"/>
      <point x="30" y="131" type="curve" smooth="yes"/>
      <point x="30" y="62"/>
      <point x="109" y="29"/>
      <point x="155" y="11" type="curve"/>
    </contour>
    <contour>
      <point x="316" y="-139" type="curve" smooth="yes"/>
      <point x="415" y="-139"/>
      <point x="496" y="-60"/>
      <point x="516" y="96" type="curve"/>
      <point x="440" y="110" type="line"/>
      <point x="426" y="-23"/>
      <point x="333" y="-85"/>
      <point x="275" y="-85" type="curve" smooth="yes"/>
      <point x="246" y="-85"/>
      <point x="224" y="-70"/>
      <point x="224" y="-40" type="curve" smooth="yes"/>
      <point x="224" y="-9"/>
      <point x="246" y="15"/>
      <point x="293" y="33" type="curve"/>
      <point x="234" y="93" type="line"/>
      <point x="178" y="65"/>
      <point x="144" y="38"/>
      <point x="144" y="-11" type="curve" smooth="yes"/>
      <point x="144" y="-88"/>
      <point x="238" y="-139"/>
    </contour>
    <contour>
      <point x="480" y="-259" type="curve" smooth="yes"/>
      <point x="535" y="-259"/>
      <point x="605" y="-235"/>
      <point x="626" y="-114" type="curve"/>
      <point x="571" y="-22" type="line"/>
      <point x="562" y="-176"/>
      <point x="488" y="-204"/>
      <point x="446" y="-204" type="curve" smooth="yes"/>
      <point x="410" y="-204"/>
      <point x="386" y="-185"/>
      <point x="386" y="-155" type="curve" smooth="yes"/>
      <point x="386" y="-136"/>
      <point x="396" y="-118"/>
      <point x="412" y="-105" type="curve"/>
      <point x="320" y="-122" type="line"/>
      <point x="319" y="-207"/>
      <point x="402" y="-259"/>
    </contour>
    <contour>
      <point x="668" y="545" type="line"/>
      <point x="668" y="555" type="line"/>
      <point x="634" y="620" type="line"/>
      <point x="-28" y="620" type="line"/>
      <point x="-28" y="610" type="line"/>
      <point x="6" y="545" type="line"/>
    </contour>
  </outline>
</glyph>
<glyph name="dDDhYa" format="2">
  <advance width="1112"/>
  <outline>
    <component base="dDDha"/>
    <contour>
      <point x="939" y="581" type="line"/>
      <point x="935" y="7" type="line"/>
      <point x="1015" y="-45" type="line"/>
      <point x="1025" y="-45" type="line"/>
      <point x="1023" y="581" type="line"/>
    </contour>
    <contour>
      <point x="951" y="189" type="line"/>
      <point x="897" y="140"/>
      <point x="841" y="113"/>
      <point x="798" y="113" type="curve" smooth="yes"/>
      <point x="749" y="113"/>
      <point x="711" y="146"/>
      <point x="710" y="187" type="curve"/>
      <point x="801" y="215"/>
      <point x="837" y="251"/>
      <point x="837" y="302" type="curve" smooth="yes"/>
      <point x="837" y="357"/>
      <point x="794" y="449"/>
      <point x="670" y="449" type="curve" smooth="yes"/>
      <point x="459" y="449" type="line"/>
      <point x="474" y="376" type="line"/>
      <point x="695" y="376" type="line" smooth="yes"/>
      <point x="761" y="376"/>
      <point x="767" y="359"/>
      <point x="767" y="343" type="curve" smooth="yes"/>
      <point x="767" y="302"/>
      <point x="719" y="272"/>
      <point x="624" y="247" type="curve"/>
      <point x="644" y="135"/>
      <point x="728" y="50"/>
      <point x="829" y="50" type="curve" smooth="yes"/>
      <point x="864" y="50"/>
      <point x="902" y="60"/>
      <point x="934" y="80" type="curve"/>
      <point x="950" y="72" type="line"/>
    </contour>
    <contour>
      <point x="1140" y="545" type="line"/>
      <point x="1140" y="555" type="line"/>
      <point x="1106" y="620" type="line"/>
      <point x="585" y="620" type="line"/>
      <point x="585" y="610" type="line"/>
      <point x="619" y="545" type="line"/>
    </contour>
  </outline>
</glyph>
<glyph name="dDDha" format="2">
  <advance width="640"/>
  <outline>
    <contour>
      <point x="638" y="-165" type="line"/>
      <point x="690" y="-132" type="line"/>
      <point x="481" y="172" type="line"/>
      <point x="449" y="140"/>
      <point x="410" y="132"/>
      <point x="376" y="132" type="curve" smooth="yes"/>
      <point x="304" y="132"/>
      <point x="238" y="183"/>
      <point x="238" y="268" type="curve" smooth="yes"/>
      <point x="238" y="347"/>
      <point x="293" y="376"/>
      <point x="378" y="376" type="curve" smooth="yes"/>
      <point x="519" y="376" type="line"/>
      <point x="531" y="384" type="line"/>
      <point x="531" y="436"/>
      <point x="530" y="528"/>
      <point x="528" y="580" type="curve"/>
      <point x="448" y="580" type="line"/>
      <point x="448" y="451" type="line"/>
      <point x="373" y="451" type="line" smooth="yes"/>
      <point x="246" y="451"/>
      <point x="163" y="423"/>
      <point x="163" y="316" type="curve" smooth="yes"/>
      <point x="163" y="183"/>
      <point x="288" y="65"/>
      <point x="428" y="65" type="curve" smooth="yes"/>
      <point x="541" y="65"/>
      <point x="577" y="129"/>
      <point x="577" y="164" type="curve" smooth="yes"/>
      <point x="577" y="211"/>
      <point x="503" y="254"/>
      <point x="458" y="254" type="curve" smooth="yes"/>
      <point x="437" y="254"/>
      <point x="423" y="245"/>
      <point x="423" y="221" type="curve" smooth="yes"/>
      <point x="423" y="202"/>
      <point x="430" y="173"/>
      <point x="494" y="64" type="curve" smooth="yes"/>
      <point x="629" y="-165" type="line"/>
    </contour>
    <contour>
      <point x="184" y="45" type="line"/>
      <point x="131" y="62"/>
      <point x="111" y="88"/>
      <point x="111" y="116" type="curve" smooth="yes"/>
      <point x="111" y="136"/>
      <point x="121" y="155"/>
      <point x="121" y="179" type="curve" smooth="yes"/>
      <point x="121" y="214"/>
      <point x="100" y="244"/>
      <point x="29" y="271" type="curve"/>
      <point x="25" y="264" type="line"/>
      <point x="39" y="247"/>
      <point x="42" y="230"/>
      <point x="42" y="219" type="curve" smooth="yes"/>
      <point x="42" y="200"/>
      <point x="30" y="157"/>
      <point x="30" y="131" type="curve" smooth="yes"/>
      <point x="30" y="63"/>
      <point x="108" y="30"/>
      <point x="154" y="12" type="curve"/>
    </contour>
    <contour>
      <point x="313" y="-140" type="curve" smooth="yes"/>
      <point x="375" y="-140"/>
      <point x="479" y="-107"/>
      <point x="512" y="71" type="curve"/>
      <point x="440" y="110" type="line"/>
      <point x="426" y="-23"/>
      <point x="333" y="-86"/>
      <point x="272" y="-86" type="curve" smooth="yes"/>
      <point x="244" y="-86"/>
      <point x="222" y="-72"/>
      <point x="222" y="-42" type="curve" smooth="yes"/>
      <point x="222" y="-11"/>
      <point x="246" y="15"/>
      <point x="293" y="33" type="curve"/>
      <point x="234" y="93" type="line"/>
      <point x="178" y="66"/>
      <point x="142" y="36"/>
      <point x="142" y="-13" type="curve" smooth="yes"/>
      <point x="142" y="-90"/>
      <point x="237" y="-140"/>
    </contour>
    <contour>
      <point x="668" y="545" type="line"/>
      <point x="668" y="555" type="line"/>
      <point x="634" y="620" type="line"/>
      <point x="-28" y="620" type="line"/>
      <point x="-28" y="610" type="line"/>
      <point x="6" y="545" type="line"/>
    </contour>
  </outline>
</glyph>
<glyph name="dDGLa" format="2">
  <advance width="532"/>
  <outline>
    <contour>
      <point x="341" y="63" type="curve" smooth="yes"/>
      <point x="407" y="63"/>
      <point x="493" y="100"/>
      <point x="493" y="161" type="curve" smooth="yes"/>
      <point x="493" y="208"/>
      <point x="417" y="252"/>
      <point x="372" y="252" type="curve" smooth="yes"/>
      <point x="351" y="252"/>
      <point x="337" y="242"/>
      <point x="337" y="220" type="curve" smooth="yes"/>
      <point x="337" y="204"/>
      <point x="348" y="169"/>
      <point x="357" y="141" type="curve"/>
      <point x="338" y="132"/>
      <point x="310" y="129"/>
      <point x="289" y="129" type="curve" smooth="yes"/>
      <point x="219" y="129"/>
      <point x="150" y="178"/>
      <point x="150" y="273" type="curve" smooth="yes"/>
      <point x="150" y="341"/>
      <point x="205" y="374"/>
      <point x="290" y="374" type="curve" smooth="yes"/>
      <point x="431" y="374" type="line"/>
      <point x="443" y="382" type="line"/>
      <point x="443" y="434"/>
      <point x="441" y="518"/>
      <point x="441" y="576" type="curve"/>
      <point x="360" y="576" type="line"/>
      <point x="360" y="449" type="line"/>
      <point x="285" y="449" type="line" smooth="yes"/>
      <point x="159" y="449"/>
      <point x="75" y="420"/>
      <point x="75" y="316" type="curve" smooth="yes"/>
      <point x="75" y="181"/>
      <point x="203" y="63"/>
    </contour>
    <contour>
      <point x="231" y="-393" type="line"/>
      <point x="265" y="-365" type="line"/>
      <point x="183" y="-301"/>
      <point x="154" y="-260"/>
      <point x="154" y="-210" type="curve" smooth="yes"/>
      <point x="154" y="-164"/>
      <point x="184" y="-141"/>
      <point x="219" y="-141" type="curve" smooth="yes"/>
      <point x="251" y="-141"/>
      <point x="275" y="-156"/>
      <point x="298" y="-184" type="curve"/>
      <point x="316" y="-158" type="line"/>
      <point x="284" y="-118"/>
      <point x="250" y="-85"/>
      <point x="193" y="-85" type="curve" smooth="yes"/>
      <point x="129" y="-85"/>
      <point x="90" y="-129"/>
      <point x="90" y="-184" type="curve" smooth="yes"/>
      <point x="90" y="-259"/>
      <point x="153" y="-322"/>
      <point x="223" y="-393" type="curve"/>
    </contour>
    <contour>
      <point x="445" y="-350" type="line"/>
      <point x="492" y="-304"/>
      <point x="516" y="-247"/>
      <point x="516" y="-207" type="curve" smooth="yes"/>
      <point x="516" y="-157"/>
      <point x="477" y="-86"/>
      <point x="401" y="-86" type="curve" smooth="yes"/>
      <point x="336" y="-86"/>
      <point x="287" y="-136"/>
      <point x="249" y="-211" type="curve"/>
      <point x="305" y="-245" type="line"/>
      <point x="343" y="-174"/>
      <point x="383" y="-137"/>
      <point x="424" y="-137" type="curve" smooth="yes"/>
      <point x="448" y="-137"/>
      <point x="466" y="-153"/>
      <point x="466" y="-180" type="curve" smooth="yes"/>
      <point x="466" y="-212"/>
      <point x="445" y="-250"/>
      <point x="386" y="-306" type="curve"/>
      <point x="439" y="-350" type="line"/>
    </contour>
    <contour>
      <point x="157" y="-68" type="curve" smooth="yes"/>
      <point x="170" y="-68"/>
      <point x="176" y="-60"/>
      <point x="176" y="-45" type="curve" smooth="yes"/>
      <point x="175" y="171" type="line"/>
      <point x="110" y="226" type="line"/>
      <point x="108" y="68" type="line"/>
      <point x="62" y="68" type="line" smooth="yes"/>
      <point x="46" y="68"/>
      <point x="40" y="59"/>
      <point x="40" y="48" type="curve" smooth="yes"/>
      <point x="40" y="1"/>
      <point x="121" y="-68"/>
    </contour>
    <contour>
      <point x="349" y="-153" type="line"/>
      <point x="349" y="110" type="line"/>
      <point x="277" y="110" type="line"/>
      <point x="276" y="-153" type="line"/>
    </contour>
    <contour>
      <point x="560" y="545" type="line"/>
      <point x="560" y="555" type="line"/>
      <point x="526" y="620" type="line"/>
      <point x="-28" y="620" type="line"/>
      <point x="-28" y="610" type="line"/>
      <point x="6" y="545" type="line"/>
    </contour>
  </outline>
</glyph>
<glyph name="dDGha" format="2">
  <advance width="599"/>
  <outline>
    <contour>
      <point x="602" y="-165" type="line"/>
      <point x="654" y="-132" type="line"/>
      <point x="447" y="168" type="line"/>
      <point x="411" y="144"/>
      <point x="385" y="132"/>
      <point x="340" y="132" type="curve" smooth="yes"/>
      <point x="268" y="132"/>
      <point x="202" y="183"/>
      <point x="202" y="268" type="curve" smooth="yes"/>
      <point x="202" y="347"/>
      <point x="257" y="376"/>
      <point x="342" y="376" type="curve" smooth="yes"/>
      <point x="483" y="376" type="line"/>
      <point x="495" y="384" type="line"/>
      <point x="495" y="436"/>
      <point x="494" y="508"/>
      <point x="493" y="580" type="curve"/>
      <point x="412" y="580" type="line"/>
      <point x="412" y="451" type="line"/>
      <point x="337" y="451" type="line" smooth="yes"/>
      <point x="210" y="451"/>
      <point x="127" y="423"/>
      <point x="127" y="316" type="curve" smooth="yes"/>
      <point x="127" y="185"/>
      <point x="247" y="65"/>
      <point x="392" y="65" type="curve" smooth="yes"/>
      <point x="484" y="65"/>
      <point x="541" y="114"/>
      <point x="541" y="164" type="curve" smooth="yes"/>
      <point x="541" y="211"/>
      <point x="467" y="254"/>
      <point x="422" y="254" type="curve" smooth="yes"/>
      <point x="401" y="254"/>
      <point x="387" y="245"/>
      <point x="387" y="221" type="curve" smooth="yes"/>
      <point x="387" y="201"/>
      <point x="394" y="173"/>
      <point x="448" y="82" type="curve" smooth="yes"/>
      <point x="593" y="-165" type="line"/>
    </contour>
    <contour>
      <point x="161" y="37" type="line"/>
      <point x="120" y="57"/>
      <point x="107" y="89"/>
      <point x="107" y="112" type="curve" smooth="yes"/>
      <point x="107" y="146"/>
      <point x="138" y="174"/>
      <point x="195" y="183" type="curve"/>
      <point x="168" y="247" type="line"/>
      <point x="46" y="227"/>
      <point x="21" y="163"/>
      <point x="21" y="123" type="curve" smooth="yes"/>
      <point x="21" y="56"/>
      <point x="91" y="19"/>
      <point x="137" y="-1" type="curve"/>
    </contour>
    <contour>
      <point x="298" y="-138" type="curve" smooth="yes"/>
      <point x="356" y="-138"/>
      <point x="457" y="-107"/>
      <point x="488" y="58" type="curve"/>
      <point x="418" y="105" type="line"/>
      <point x="404" y="-24"/>
      <point x="313" y="-84"/>
      <point x="257" y="-84" type="curve" smooth="yes"/>
      <point x="229" y="-84"/>
      <point x="207" y="-71"/>
      <point x="207" y="-39" type="curve" smooth="yes"/>
      <point x="207" y="-9"/>
      <point x="230" y="16"/>
      <point x="276" y="34" type="curve"/>
      <point x="217" y="94" type="line"/>
      <point x="167" y="70"/>
      <point x="127" y="39"/>
      <point x="127" y="-11" type="curve" smooth="yes"/>
      <point x="127" y="-88"/>
      <point x="222" y="-138"/>
    </contour>
    <contour>
      <point x="627" y="545" type="line"/>
      <point x="627" y="555" type="line"/>
      <point x="593" y="620" type="line"/>
      <point x="-28" y="620" type="line"/>
      <point x="-28" y="610" type="line"/>
      <point x="6" y="545" type="line"/>
    </contour>
  </outline>
</glyph>
<glyph name="dDMYa" format="2">
  <advance width="992"/>
  <outline>
    <contour>
      <point x="566" y="561" type="line"/>
      <point x="597" y="519"/>
      <point x="608" y="479"/>
      <point x="608" y="456" type="curve" smooth="yes"/>
      <point x="608" y="407"/>
      <point x="559" y="379"/>
      <point x="455" y="352" type="curve"/>
      <point x="479" y="204"/>
      <point x="584" y="100"/>
      <point x="704" y="97" type="curve"/>
      <point x="749" y="97"/>
      <point x="790" y="106"/>
      <point x="831" y="139" type="curve"/>
      <point x="833" y="240" type="line"/>
      <point x="771" y="183"/>
      <point x="713" y="160"/>
      <point x="667" y="160" type="curve" smooth="yes"/>
      <point x="595" y="160"/>
      <point x="544" y="215"/>
      <point x="542" y="291" type="curve"/>
      <point x="639" y="320"/>
      <point x="680" y="356"/>
      <point x="680" y="413" type="curve" smooth="yes"/>
      <point x="680" y="449"/>
      <point x="663" y="501"/>
      <point x="623" y="561" type="curve"/>
    </contour>
    <contour>
      <point x="819" y="581" type="line"/>
      <point x="815" y="3" type="line"/>
      <point x="895" y="-49" type="line"/>
      <point x="905" y="-49" type="line"/>
      <point x="903" y="581" type="line"/>
    </contour>
    <contour>
      <point x="-28" y="620" type="line"/>
      <point x="-28" y="610" type="line"/>
      <point x="6" y="545" type="line"/>
      <point x="1020" y="545" type="line"/>
      <point x="1020" y="555" type="line"/>
      <point x="986" y="620" type="line"/>
    </contour>
    <contour>
      <point x="300" y="581" type="line"/>
      <point x="300" y="460" type="line"/>
      <point x="159" y="460" type="line" smooth="yes"/>
      <point x="77" y="460"/>
      <point x="40" y="428"/>
      <point x="40" y="377" type="curve" smooth="yes"/>
      <point x="40" y="300"/>
      <point x="123" y="214"/>
      <point x="192" y="214" type="curve" smooth="yes"/>
      <point x="214" y="214"/>
      <point x="300" y="223"/>
      <point x="321" y="223" type="curve" smooth="yes"/>
      <point x="340" y="223"/>
      <point x="349" y="216"/>
      <point x="349" y="185" type="curve" smooth="yes"/>
      <point x="349" y="161"/>
      <point x="346" y="153"/>
      <point x="326" y="97" type="curve"/>
      <point x="704" y="97" type="line"/>
      <point x="583" y="161" type="line"/>
      <point x="484" y="163"/>
      <point x="334" y="166"/>
      <point x="286" y="166" type="curve" smooth="yes"/>
      <point x="268" y="166"/>
      <point x="261" y="155"/>
      <point x="261" y="142" type="curve" smooth="yes"/>
      <point x="261" y="95"/>
      <point x="356" y="2"/>
      <point x="397" y="2" type="curve" smooth="yes"/>
      <point x="409" y="2"/>
      <point x="418" y="10"/>
      <point x="418" y="27" type="curve" smooth="yes"/>
      <point x="418" y="150" type="line" smooth="yes"/>
      <point x="418" y="213"/>
      <point x="359" y="297"/>
      <point x="296" y="297" type="curve" smooth="yes"/>
      <point x="276" y="297"/>
      <point x="177" y="287"/>
      <point x="157" y="287" type="curve" smooth="yes"/>
      <point x="129" y="287"/>
      <point x="112" y="307"/>
      <point x="112" y="337" type="curve" smooth="yes"/>
      <point x="112" y="370"/>
      <point x="133" y="385"/>
      <point x="177" y="385" type="curve" smooth="yes"/>
      <point x="371" y="385" type="line"/>
      <point x="383" y="393" type="line"/>
      <point x="383" y="445"/>
      <point x="382" y="527"/>
      <point x="381" y="581" type="curve"/>
    </contour>
  </outline>
</glyph>
<glyph name="dDRVa" format="2">
  <advance width="527"/>
  <outline>
    <contour>
      <point x="340" y="570" type="line"/>
      <point x="340" y="449" type="line"/>
      <point x="265" y="449" type="line" smooth="yes"/>
      <point x="139" y="449"/>
      <point x="55" y="420"/>
      <point x="55" y="316" type="curve" smooth="yes"/>
      <point x="55" y="194"/>
      <point x="169" y="58"/>
      <point x="326" y="58" type="curve" smooth="yes"/>
      <point x="437" y="58"/>
      <point x="475" y="127"/>
      <point x="475" y="159" type="curve" smooth="yes"/>
      <point x="475" y="206"/>
      <point x="397" y="250"/>
      <point x="352" y="250" type="curve" smooth="yes"/>
      <point x="331" y="250"/>
      <point x="317" y="240"/>
      <point x="317" y="218" type="curve" smooth="yes"/>
      <point x="317" y="192"/>
      <point x="335" y="148"/>
      <point x="385" y="69" type="curve" smooth="yes"/>
      <point x="541" y="-174" type="line"/>
      <point x="550" y="-174" type="line"/>
      <point x="600" y="-142" type="line"/>
      <point x="375" y="163" type="line"/>
      <point x="342" y="129"/>
      <point x="301" y="124"/>
      <point x="270" y="124" type="curve" smooth="yes"/>
      <point x="200" y="124"/>
      <point x="130" y="178"/>
      <point x="130" y="273" type="curve" smooth="yes"/>
      <point x="130" y="341"/>
      <point x="185" y="374"/>
      <point x="270" y="374" type="curve" smooth="yes"/>
      <point x="411" y="374" type="line"/>
      <point x="423" y="382" type="line"/>
      <point x="423" y="434"/>
      <point x="422" y="508"/>
      <point x="421" y="570" type="curve"/>
    </contour>
    <contour>
      <point x="417" y="83" type="line"/>
      <point x="267" y="85" type="line"/>
      <point x="267" y="63" type="line"/>
      <point x="85" y="-58" type="line"/>
      <point x="143" y="-116" type="line"/>
    </contour>
    <contour>
      <point x="386" y="-150" type="curve" smooth="yes"/>
      <point x="423" y="-150"/>
      <point x="467" y="-139"/>
      <point x="503" y="-83" type="curve"/>
      <point x="461" y="-24" type="line"/>
      <point x="431" y="-77"/>
      <point x="381" y="-94"/>
      <point x="350" y="-94" type="curve" smooth="yes"/>
      <point x="315" y="-94"/>
      <point x="289" y="-73"/>
      <point x="289" y="-41" type="curve" smooth="yes"/>
      <point x="289" y="-19"/>
      <point x="302" y="-1"/>
      <point x="319" y="12" type="curve"/>
      <point x="227" y="-11" type="line"/>
      <point x="227" y="-64"/>
      <point x="285" y="-150"/>
    </contour>
    <contour>
      <point x="555" y="545" type="line"/>
      <point x="555" y="555" type="line"/>
      <point x="521" y="620" type="line"/>
      <point x="-28" y="620" type="line"/>
      <point x="-28" y="610" type="line"/>
      <point x="6" y="545" type="line"/>
    </contour>
  </outline>
</glyph>
<glyph name="dDRYa" format="2">
  <advance width="722"/>
  <outline>
    <contour>
      <point x="342" y="219" type="line"/>
      <point x="285" y="251" type="line"/>
      <point x="216" y="259"/>
      <point x="186" y="302"/>
      <point x="186" y="339" type="curve" smooth="yes"/>
      <point x="186" y="370"/>
      <point x="209" y="385"/>
      <point x="251" y="385" type="curve" smooth="yes"/>
      <point x="425" y="385" type="line"/>
      <point x="437" y="393" type="line"/>
      <point x="437" y="445"/>
      <point x="436" y="517"/>
      <point x="435" y="571" type="curve"/>
      <point x="354" y="571" type="line"/>
      <point x="354" y="460" type="line"/>
      <point x="233" y="460" type="line" smooth="yes"/>
      <point x="151" y="460"/>
      <point x="114" y="427"/>
      <point x="114" y="378" type="curve" smooth="yes"/>
      <point x="114" y="307"/>
      <point x="177" y="229"/>
      <point x="254" y="205" type="curve"/>
      <point x="269" y="201"/>
      <point x="342" y="196"/>
      <point x="371" y="196" type="curve" smooth="yes"/>
      <point x="442" y="196"/>
      <point x="453" y="212"/>
      <point x="453" y="225" type="curve" smooth="yes"/>
      <point x="453" y="237"/>
      <point x="441" y="283"/>
      <point x="410" y="283" type="curve" smooth="yes"/>
      <point x="368" y="283"/>
      <point x="291" y="274"/>
      <point x="236" y="235" type="curve" smooth="yes"/>
      <point x="16" y="81" type="line"/>
      <point x="74" y="23" type="line"/>
    </contour>
    <contour>
      <point x="392" y="5" type="curve" smooth="yes"/>
      <point x="450" y="5"/>
      <point x="499" y="19"/>
      <point x="566" y="63" type="curve"/>
      <point x="565" y="165" type="line"/>
      <point x="476" y="98"/>
      <point x="415" y="70"/>
      <point x="357" y="70" type="curve" smooth="yes"/>
      <point x="290" y="70"/>
      <point x="269" y="101"/>
      <point x="269" y="129" type="curve" smooth="yes"/>
      <point x="269" y="158"/>
      <point x="292" y="189"/>
      <point x="366" y="204" type="curve"/>
      <point x="202" y="200" type="line"/>
      <point x="202" y="152" type="line"/>
      <point x="209" y="86"/>
      <point x="277" y="5"/>
    </contour>
    <contour>
      <point x="635" y="-60" type="line"/>
      <point x="633" y="571" type="line"/>
      <point x="549" y="571" type="line"/>
      <point x="545" y="-8" type="line"/>
      <point x="625" y="-60" type="line"/>
    </contour>
    <contour>
      <point x="750" y="545" type="line"/>
      <point x="750" y="555" type="line"/>
      <point x="716" y="620" type="line"/>
      <point x="-28" y="620" type="line"/>
      <point x="-28" y="610" type="line"/>
      <point x="6" y="545" type="line"/>
    </contour>
  </outline>
</glyph>
<glyph name="dDYa" format="2">
  <advance width="658"/>
  <outline>
    <contour>
      <point x="328" y="5" type="curve" smooth="yes"/>
      <point x="386" y="5"/>
      <point x="435" y="19"/>
      <point x="501" y="63" type="curve"/>
      <point x="501" y="165" type="line"/>
      <point x="412" y="98"/>
      <point x="351" y="70"/>
      <point x="293" y="70" type="curve" smooth="yes"/>
      <point x="226" y="70"/>
      <point x="205" y="101"/>
      <point x="205" y="129" type="curve" smooth="yes"/>
      <point x="205" y="158"/>
      <point x="228" y="189"/>
      <point x="302" y="204" type="curve"/>
      <point x="219" y="253" type="line"/>
      <point x="150" y="260"/>
      <point x="122" y="302"/>
      <point x="122" y="339" type="curve" smooth="yes"/>
      <point x="122" y="370"/>
      <point x="145" y="385"/>
      <point x="187" y="385" type="curve" smooth="yes"/>
      <point x="361" y="385" type="line"/>
      <point x="373" y="393" type="line"/>
      <point x="373" y="445"/>
      <point x="372" y="517"/>
      <point x="371" y="571" type="curve"/>
      <point x="290" y="571" type="line"/>
      <point x="290" y="460" type="line"/>
      <point x="169" y="460" type="line" smooth="yes"/>
      <point x="87" y="460"/>
      <point x="50" y="427"/>
      <point x="50" y="378" type="curve" smooth="yes"/>
      <point x="50" y="324"/>
      <point x="94" y="245"/>
      <point x="177" y="209" type="curve"/>
      <point x="228" y="202" type="line"/>
      <point x="254" y="198"/>
      <point x="277" y="196"/>
      <point x="307" y="196" type="curve"/>
      <point x="378" y="196"/>
      <point x="389" y="212"/>
      <point x="389" y="225" type="curve" smooth="yes"/>
      <point x="389" y="237"/>
      <point x="377" y="283"/>
      <point x="346" y="283" type="curve" smooth="yes"/>
      <point x="278" y="283"/>
      <point x="132" y="258"/>
      <point x="132" y="167" type="curve" smooth="yes"/>
      <point x="132" y="100"/>
      <point x="205" y="5"/>
    </contour>
    <contour>
      <point x="571" y="-60" type="line"/>
      <point x="569" y="571" type="line"/>
      <point x="485" y="571" type="line"/>
      <point x="481" y="-8" type="line"/>
      <point x="561" y="-60" type="line"/>
    </contour>
    <contour>
      <point x="686" y="545" type="line"/>
      <point x="686" y="555" type="line"/>
      <point x="652" y="620" type="line"/>
      <point x="-28" y="620" type="line"/>
      <point x="-28" y="610" type="line"/>
      <point x="6" y="545" type="line"/>
    </contour>
  </outline>
</glyph>
<glyph name="dDa_dSignVocalicRr" format="2">
  <advance width="527"/>
  <outline>
    <contour>
      <point x="340" y="581" type="line"/>
      <point x="340" y="464" type="line"/>
      <point x="265" y="464" type="line" smooth="yes"/>
      <point x="139" y="464"/>
      <point x="55" y="435"/>
      <point x="55" y="331" type="curve" smooth="yes"/>
      <point x="55" y="209"/>
      <point x="173" y="93"/>
      <point x="313" y="93" type="curve" smooth="yes"/>
      <point x="419" y="93"/>
      <point x="467" y="160"/>
      <point x="467" y="194" type="curve" smooth="yes"/>
      <point x="467" y="238"/>
      <point x="390" y="279"/>
      <point x="346" y="279" type="curve" smooth="yes"/>
      <point x="325" y="279"/>
      <point x="311" y="269"/>
      <point x="311" y="247" type="curve" smooth="yes"/>
      <point x="311" y="228"/>
      <point x="322" y="201"/>
      <point x="336" y="175" type="curve"/>
      <point x="316" y="163"/>
      <point x="286" y="159"/>
      <point x="262" y="159" type="curve" smooth="yes"/>
      <point x="196" y="159"/>
      <point x="130" y="206"/>
      <point x="130" y="288" type="curve" smooth="yes"/>
      <point x="130" y="356"/>
      <point x="185" y="389"/>
      <point x="270" y="389" type="curve" smooth="yes"/>
      <point x="411" y="389" type="line"/>
      <point x="423" y="397" type="line"/>
      <point x="423" y="444"/>
      <point x="422" y="495"/>
      <point x="421" y="581" type="curve"/>
    </contour>
    <contour>
      <point x="524" y="-283" type="curve" smooth="yes"/>
      <point x="585" y="-283"/>
      <point x="645" y="-255"/>
      <point x="667" y="-243" type="curve"/>
      <point x="622" y="-186" type="line"/>
      <point x="583" y="-209"/>
      <point x="540" y="-224"/>
      <point x="493" y="-224" type="curve" smooth="yes"/>
      <point x="461" y="-224"/>
      <point x="433" y="-213"/>
      <point x="433" y="-187" type="curve" smooth="yes"/>
      <point x="433" y="-154"/>
      <point x="474" y="-131"/>
      <point x="576" y="-117" type="curve"/>
      <point x="576" y="-111" type="line"/>
      <point x="534" y="-57" type="line"/>
      <point x="447" y="-67"/>
      <point x="372" y="-95"/>
      <point x="372" y="-161" type="curve" smooth="yes"/>
      <point x="372" y="-236"/>
      <point x="453" y="-283"/>
    </contour>
    <contour>
      <point x="419" y="-103" type="line"/>
      <point x="371" y="-101"/>
      <point x="359" y="-74"/>
      <point x="359" y="-57" type="curve" smooth="yes"/>
      <point x="359" y="-28"/>
      <point x="389" y="8"/>
      <point x="488" y="16" type="curve"/>
      <point x="488" y="22" type="line"/>
      <point x="441" y="84" type="line"/>
      <point x="364" y="77"/>
      <point x="297" y="37"/>
      <point x="297" y="-28" type="curve" smooth="yes"/>
      <point x="297" y="-67"/>
      <point x="319" y="-115"/>
      <point x="391" y="-137" type="curve"/>
    </contour>
    <contour>
      <point x="488" y="22" type="line"/>
      <point x="414" y="133" type="line"/>
      <point x="370" y="112" type="line"/>
      <point x="423" y="13" type="line"/>
    </contour>
    <contour>
      <point x="555" y="545" type="line"/>
      <point x="555" y="555" type="line"/>
      <point x="521" y="620" type="line"/>
      <point x="-28" y="620" type="line"/>
      <point x="-28" y="610" type="line"/>
      <point x="6" y="545" type="line"/>
    </contour>
  </outline>
  <guideline angle="119.305" x="444" y="0"/>
</glyph>
<glyph name="dDdBRa" format="2">
  <advance width="545"/>
  <outline>
    <contour>
      <point x="336" y="80" type="curve" smooth="yes"/>
      <point x="498" y="80"/>
      <point x="499" y="193"/>
      <point x="499" y="194" type="curve"/>
      <point x="499" y="263"/>
      <point x="423" y="335"/>
      <point x="368" y="335" type="curve" smooth="yes"/>
      <point x="337" y="335"/>
      <point x="243" y="313"/>
      <point x="220" y="313" type="curve" smooth="yes"/>
      <point x="199" y="313"/>
      <point x="174" y="333"/>
      <point x="174" y="365" type="curve" smooth="yes"/>
      <point x="174" y="397"/>
      <point x="197" y="410"/>
      <point x="239" y="410" type="curve" smooth="yes"/>
      <point x="429" y="410" type="line"/>
      <point x="441" y="418" type="line"/>
      <point x="441" y="469"/>
      <point x="441" y="523"/>
      <point x="440" y="583" type="curve"/>
      <point x="360" y="583" type="line"/>
      <point x="360" y="482" type="line"/>
      <point x="221" y="482" type="line" smooth="yes"/>
      <point x="140" y="482"/>
      <point x="102" y="451"/>
      <point x="102" y="402" type="curve" smooth="yes"/>
      <point x="102" y="326"/>
      <point x="191" y="243"/>
      <point x="255" y="243" type="curve" smooth="yes"/>
      <point x="287" y="243"/>
      <point x="362" y="264"/>
      <point x="396" y="264" type="curve" smooth="yes"/>
      <point x="422" y="264"/>
      <point x="431" y="252"/>
      <point x="431" y="226" type="curve" smooth="yes"/>
      <point x="431" y="201"/>
      <point x="423" y="152"/>
      <point x="309" y="152" type="curve" smooth="yes"/>
      <point x="182" y="152"/>
      <point x="122" y="214"/>
      <point x="67" y="305" type="curve"/>
      <point x="30" y="285" type="line"/>
      <point x="100" y="158"/>
      <point x="202" y="80"/>
    </contour>
    <contour>
      <point x="438" y="-141" type="line"/>
      <point x="420" y="-80" type="line"/>
      <point x="107" y="-292" type="line"/>
      <point x="156" y="-341" type="line"/>
    </contour>
    <contour>
      <point x="222" y="-179" type="curve" smooth="yes"/>
      <point x="174" y="-179"/>
      <point x="135" y="-148"/>
      <point x="135" y="-102" type="curve" smooth="yes"/>
      <point x="135" y="-45"/>
      <point x="194" y="-9"/>
      <point x="260" y="-9" type="curve" smooth="yes"/>
      <point x="307" y="-9"/>
      <point x="349" y="-27"/>
      <point x="349" y="-78" type="curve" smooth="yes"/>
      <point x="349" y="-147"/>
      <point x="271" y="-179"/>
    </contour>
    <contour>
      <point x="328" y="-170" type="line"/>
      <point x="197" y="-7" type="line"/>
      <point x="160" y="-19" type="line"/>
      <point x="293" y="-186" type="line"/>
    </contour>
    <contour>
      <point x="247" y="-230" type="curve" smooth="yes"/>
      <point x="316" y="-230"/>
      <point x="399" y="-199"/>
      <point x="399" y="-104" type="curve" smooth="yes"/>
      <point x="399" y="-31"/>
      <point x="340" y="52"/>
      <point x="231" y="52" type="curve" smooth="yes"/>
      <point x="145" y="52"/>
      <point x="75" y="3"/>
      <point x="75" y="-70" type="curve" smooth="yes"/>
      <point x="75" y="-135"/>
      <point x="130" y="-230"/>
    </contour>
    <contour>
      <point x="460" y="-335" type="line"/>
      <point x="458" y="144" type="line"/>
      <point x="386" y="144" type="line"/>
      <point x="386" y="-40" type="line"/>
      <point x="369" y="-40" type="line"/>
      <point x="367" y="-171" type="line"/>
      <point x="384" y="-171" type="line"/>
      <point x="383" y="-292" type="line"/>
      <point x="451" y="-335" type="line"/>
    </contour>
    <contour>
      <point x="573" y="545" type="line"/>
      <point x="573" y="555" type="line"/>
      <point x="539" y="620" type="line"/>
      <point x="-28" y="620" type="line"/>
      <point x="-28" y="610" type="line"/>
      <point x="6" y="545" type="line"/>
    </contour>
  </outline>
</glyph>
<glyph name="dDdBa" format="2">
  <advance width="545"/>
  <outline>
    <contour>
      <point x="336" y="80" type="curve" smooth="yes"/>
      <point x="498" y="80"/>
      <point x="499" y="193"/>
      <point x="499" y="194" type="curve"/>
      <point x="499" y="263"/>
      <point x="423" y="335"/>
      <point x="368" y="335" type="curve" smooth="yes"/>
      <point x="337" y="335"/>
      <point x="243" y="313"/>
      <point x="220" y="313" type="curve" smooth="yes"/>
      <point x="199" y="313"/>
      <point x="174" y="333"/>
      <point x="174" y="365" type="curve" smooth="yes"/>
      <point x="174" y="397"/>
      <point x="197" y="410"/>
      <point x="239" y="410" type="curve" smooth="yes"/>
      <point x="429" y="410" type="line"/>
      <point x="441" y="418" type="line"/>
      <point x="441" y="469"/>
      <point x="441" y="513"/>
      <point x="440" y="573" type="curve"/>
      <point x="360" y="573" type="line"/>
      <point x="360" y="482" type="line"/>
      <point x="221" y="482" type="line" smooth="yes"/>
      <point x="140" y="482"/>
      <point x="102" y="451"/>
      <point x="102" y="402" type="curve" smooth="yes"/>
      <point x="102" y="326"/>
      <point x="191" y="243"/>
      <point x="255" y="243" type="curve" smooth="yes"/>
      <point x="287" y="243"/>
      <point x="362" y="264"/>
      <point x="396" y="264" type="curve" smooth="yes"/>
      <point x="422" y="264"/>
      <point x="431" y="252"/>
      <point x="431" y="226" type="curve" smooth="yes"/>
      <point x="431" y="201"/>
      <point x="423" y="152"/>
      <point x="309" y="152" type="curve" smooth="yes"/>
      <point x="182" y="152"/>
      <point x="122" y="214"/>
      <point x="67" y="305" type="curve"/>
      <point x="30" y="285" type="line"/>
      <point x="100" y="158"/>
      <point x="202" y="80"/>
    </contour>
    <contour>
      <point x="248" y="-238" type="curve" smooth="yes"/>
      <point x="313" y="-238"/>
      <point x="398" y="-207"/>
      <point x="398" y="-112" type="curve" smooth="yes"/>
      <point x="398" y="-33"/>
      <point x="339" y="47"/>
      <point x="231" y="47" type="curve" smooth="yes"/>
      <point x="145" y="47"/>
      <point x="75" y="-2"/>
      <point x="75" y="-75" type="curve" smooth="yes"/>
      <point x="75" y="-140"/>
      <point x="131" y="-238"/>
    </contour>
    <contour>
      <point x="222" y="-184" type="curve" smooth="yes"/>
      <point x="174" y="-184"/>
      <point x="135" y="-153"/>
      <point x="135" y="-107" type="curve" smooth="yes"/>
      <point x="135" y="-50"/>
      <point x="194" y="-14"/>
      <point x="260" y="-14" type="curve" smooth="yes"/>
      <point x="307" y="-14"/>
      <point x="349" y="-32"/>
      <point x="349" y="-83" type="curve" smooth="yes"/>
      <point x="349" y="-152"/>
      <point x="271" y="-184"/>
    </contour>
    <contour>
      <point x="328" y="-175" type="line"/>
      <point x="197" y="-12" type="line"/>
      <point x="160" y="-24" type="line"/>
      <point x="293" y="-191" type="line"/>
    </contour>
    <contour>
      <point x="460" y="-325" type="line"/>
      <point x="458" y="155" type="line"/>
      <point x="387" y="155" type="line"/>
      <point x="386" y="-45" type="line"/>
      <point x="369" y="-45" type="line"/>
      <point x="367" y="-176" type="line"/>
      <point x="384" y="-176" type="line"/>
      <point x="383" y="-282" type="line"/>
      <point x="451" y="-325" type="line"/>
    </contour>
    <contour>
      <point x="573" y="545" type="line"/>
      <point x="573" y="555" type="line"/>
      <point x="539" y="620" type="line"/>
      <point x="-28" y="620" type="line"/>
      <point x="-28" y="610" type="line"/>
      <point x="6" y="545" type="line"/>
    </contour>
  </outline>
</glyph>
<glyph name="dDdDVa" format="2">
  <advance width="538"/>
  <outline>
    <contour>
      <point x="327" y="104" type="curve" smooth="yes"/>
      <point x="489" y="104"/>
      <point x="492" y="205"/>
      <point x="492" y="214" type="curve" smooth="yes"/>
      <point x="492" y="281"/>
      <point x="416" y="351"/>
      <point x="361" y="351" type="curve" smooth="yes"/>
      <point x="329" y="351"/>
      <point x="239" y="329"/>
      <point x="215" y="329" type="curve" smooth="yes"/>
      <point x="194" y="329"/>
      <point x="169" y="347"/>
      <point x="169" y="375" type="curve" smooth="yes"/>
      <point x="169" y="403"/>
      <point x="192" y="415"/>
      <point x="234" y="415" type="curve" smooth="yes"/>
      <point x="422" y="415" type="line"/>
      <point x="434" y="423" type="line"/>
      <point x="434" y="472"/>
      <point x="434" y="525"/>
      <point x="433" y="583" type="curve"/>
      <point x="353" y="583" type="line"/>
      <point x="353" y="487" type="line"/>
      <point x="216" y="487" type="line" smooth="yes"/>
      <point x="134" y="487"/>
      <point x="97" y="457"/>
      <point x="97" y="410" type="curve" smooth="yes"/>
      <point x="97" y="339"/>
      <point x="186" y="259"/>
      <point x="249" y="259" type="curve" smooth="yes"/>
      <point x="283" y="259"/>
      <point x="354" y="280"/>
      <point x="390" y="280" type="curve" smooth="yes"/>
      <point x="414" y="280"/>
      <point x="424" y="269"/>
      <point x="424" y="246" type="curve" smooth="yes"/>
      <point x="424" y="221"/>
      <point x="417" y="176"/>
      <point x="305" y="176" type="curve" smooth="yes"/>
      <point x="183" y="176"/>
      <point x="123" y="232"/>
      <point x="71" y="316" type="curve"/>
      <point x="34" y="296" type="line"/>
      <point x="101" y="176"/>
      <point x="199" y="104"/>
    </contour>
    <contour>
      <point x="292" y="-439" type="curve" smooth="yes"/>
      <point x="341" y="-439"/>
      <point x="409" y="-420"/>
      <point x="438" y="-314" type="curve"/>
      <point x="410" y="-235" type="line"/>
      <point x="369" y="-238" type="line"/>
      <point x="383" y="-266" type="line"/>
      <point x="360" y="-365"/>
      <point x="292" y="-385"/>
      <point x="260" y="-385" type="curve" smooth="yes"/>
      <point x="235" y="-385"/>
      <point x="211" y="-373"/>
      <point x="211" y="-342" type="curve" smooth="yes"/>
      <point x="211" y="-303"/>
      <point x="250" y="-274"/>
      <point x="315" y="-259" type="curve"/>
      <point x="211" y="-230" type="line"/>
      <point x="166" y="-254"/>
      <point x="152" y="-278"/>
      <point x="152" y="-309" type="curve" smooth="yes"/>
      <point x="152" y="-365"/>
      <point x="197" y="-439"/>
    </contour>
    <contour>
      <point x="498" y="-441" type="line"/>
      <point x="543" y="-411" type="line"/>
      <point x="405" y="-222" type="line"/>
      <point x="362" y="-221" type="line"/>
      <point x="490" y="-441" type="line"/>
    </contour>
    <contour>
      <point x="320" y="-266" type="curve" smooth="yes"/>
      <point x="417" y="-266"/>
      <point x="457" y="-208"/>
      <point x="457" y="-173" type="curve" smooth="yes"/>
      <point x="457" y="-131"/>
      <point x="391" y="-97"/>
      <point x="352" y="-97" type="curve" smooth="yes"/>
      <point x="334" y="-97"/>
      <point x="322" y="-106"/>
      <point x="322" y="-125" type="curve" smooth="yes"/>
      <point x="322" y="-143"/>
      <point x="329" y="-164"/>
      <point x="341" y="-190" type="curve"/>
      <point x="323" y="-200"/>
      <point x="292" y="-203"/>
      <point x="274" y="-203" type="curve" smooth="yes"/>
      <point x="202" y="-203"/>
      <point x="135" y="-156"/>
      <point x="135" y="-91" type="curve" smooth="yes"/>
      <point x="135" y="-36"/>
      <point x="184" y="-10"/>
      <point x="263" y="-10" type="curve" smooth="yes"/>
      <point x="405" y="-10" type="line"/>
      <point x="415" y="-3" type="line"/>
      <point x="415" y="39"/>
      <point x="414" y="98"/>
      <point x="413" y="142" type="curve"/>
      <point x="340" y="142" type="line"/>
      <point x="340" y="63" type="line"/>
      <point x="264" y="63" type="line" smooth="yes"/>
      <point x="141" y="63"/>
      <point x="70" y="37"/>
      <point x="70" y="-53" type="curve" smooth="yes"/>
      <point x="70" y="-168"/>
      <point x="182" y="-266"/>
    </contour>
    <contour>
      <point x="566" y="545" type="line"/>
      <point x="566" y="555" type="line"/>
      <point x="532" y="620" type="line"/>
      <point x="-28" y="620" type="line"/>
      <point x="-28" y="610" type="line"/>
      <point x="6" y="545" type="line"/>
    </contour>
  </outline>
</glyph>
<glyph name="dDdDdhVa" format="2">
  <advance width="538"/>
  <outline>
    <contour>
      <point x="330" y="104" type="curve" smooth="yes"/>
      <point x="489" y="104"/>
      <point x="492" y="206"/>
      <point x="492" y="218" type="curve" smooth="yes"/>
      <point x="492" y="279"/>
      <point x="416" y="351"/>
      <point x="361" y="351" type="curve" smooth="yes"/>
      <point x="330" y="351"/>
      <point x="239" y="329"/>
      <point x="215" y="329" type="curve" smooth="yes"/>
      <point x="194" y="329"/>
      <point x="169" y="347"/>
      <point x="169" y="375" type="curve" smooth="yes"/>
      <point x="169" y="403"/>
      <point x="192" y="415"/>
      <point x="234" y="415" type="curve" smooth="yes"/>
      <point x="422" y="415" type="line"/>
      <point x="434" y="423" type="line"/>
      <point x="434" y="472"/>
      <point x="434" y="525"/>
      <point x="433" y="583" type="curve"/>
      <point x="353" y="583" type="line"/>
      <point x="353" y="487" type="line"/>
      <point x="216" y="487" type="line" smooth="yes"/>
      <point x="134" y="487"/>
      <point x="97" y="457"/>
      <point x="97" y="410" type="curve" smooth="yes"/>
      <point x="97" y="339"/>
      <point x="186" y="259"/>
      <point x="249" y="259" type="curve" smooth="yes"/>
      <point x="282" y="259"/>
      <point x="355" y="280"/>
      <point x="390" y="280" type="curve" smooth="yes"/>
      <point x="415" y="280"/>
      <point x="424" y="269"/>
      <point x="424" y="244" type="curve" smooth="yes"/>
      <point x="424" y="221"/>
      <point x="416" y="176"/>
      <point x="306" y="176" type="curve" smooth="yes"/>
      <point x="183" y="176"/>
      <point x="123" y="232"/>
      <point x="71" y="316" type="curve"/>
      <point x="34" y="296" type="line"/>
      <point x="104" y="172"/>
      <point x="200" y="104"/>
    </contour>
    <contour>
      <point x="267" y="-475" type="curve" smooth="yes"/>
      <point x="304" y="-475"/>
      <point x="330" y="-464"/>
      <point x="361" y="-449" type="curve"/>
      <point x="363" y="-364" type="line"/>
      <point x="314" y="-398"/>
      <point x="273" y="-421"/>
      <point x="230" y="-421" type="curve" smooth="yes"/>
      <point x="190" y="-421"/>
      <point x="160" y="-402"/>
      <point x="160" y="-365" type="curve" smooth="yes"/>
      <point x="160" y="-319"/>
      <point x="203" y="-286"/>
      <point x="274" y="-277" type="curve"/>
      <point x="165" y="-238" type="line"/>
      <point x="120" y="-264"/>
      <point x="98" y="-302"/>
      <point x="98" y="-340" type="curve" smooth="yes"/>
      <point x="98" y="-415"/>
      <point x="181" y="-475"/>
    </contour>
    <contour>
      <point x="418" y="-545" type="line"/>
      <point x="416" y="-242" type="line"/>
      <point x="348" y="-242" type="line"/>
      <point x="345" y="-505" type="line"/>
      <point x="409" y="-545" type="line"/>
    </contour>
    <contour>
      <point x="332" y="-294" type="curve" smooth="yes"/>
      <point x="414" y="-294"/>
      <point x="480" y="-256"/>
      <point x="480" y="-180" type="curve" smooth="yes"/>
      <point x="480" y="-98"/>
      <point x="405" y="-56"/>
      <point x="352" y="-56" type="curve" smooth="yes"/>
      <point x="300" y="-56"/>
      <point x="255" y="-98"/>
      <point x="255" y="-152" type="curve" smooth="yes"/>
      <point x="255" y="-178"/>
      <point x="265" y="-215"/>
      <point x="275" y="-237" type="curve"/>
      <point x="313" y="-241" type="line"/>
      <point x="309" y="-229"/>
      <point x="307" y="-217"/>
      <point x="307" y="-205" type="curve" smooth="yes"/>
      <point x="307" y="-157"/>
      <point x="339" y="-116"/>
      <point x="380" y="-116" type="curve" smooth="yes"/>
      <point x="407" y="-116"/>
      <point x="430" y="-133"/>
      <point x="430" y="-157" type="curve" smooth="yes"/>
      <point x="430" y="-186"/>
      <point x="394" y="-228"/>
      <point x="298" y="-228" type="curve" smooth="yes"/>
      <point x="193" y="-228"/>
      <point x="126" y="-178"/>
      <point x="126" y="-97" type="curve" smooth="yes"/>
      <point x="126" y="-37"/>
      <point x="164" y="-5"/>
      <point x="243" y="-5" type="curve" smooth="yes"/>
      <point x="401" y="-5" type="line"/>
      <point x="412" y="3" type="line"/>
      <point x="412" y="46"/>
      <point x="411" y="98"/>
      <point x="410" y="144" type="curve"/>
      <point x="336" y="144" type="line"/>
      <point x="336" y="64" type="line"/>
      <point x="240" y="64" type="line" smooth="yes"/>
      <point x="120" y="64"/>
      <point x="57" y="34"/>
      <point x="57" y="-58" type="curve" smooth="yes"/>
      <point x="57" y="-198"/>
      <point x="201" y="-294"/>
    </contour>
    <contour>
      <point x="566" y="545" type="line"/>
      <point x="566" y="555" type="line"/>
      <point x="532" y="620" type="line"/>
      <point x="-28" y="620" type="line"/>
      <point x="-28" y="610" type="line"/>
      <point x="6" y="545" type="line"/>
    </contour>
  </outline>
</glyph>
<glyph name="dDdDdhYa" format="2">
  <advance width="1037"/>
  <outline>
    <component base="dDdDdha"/>
    <contour>
      <point x="876" y="206" type="line"/>
      <point x="822" y="157"/>
      <point x="766" y="130"/>
      <point x="723" y="130" type="curve" smooth="yes"/>
      <point x="673" y="130"/>
      <point x="635" y="169"/>
      <point x="634" y="212" type="curve"/>
      <point x="725" y="240"/>
      <point x="761" y="277"/>
      <point x="761" y="329" type="curve" smooth="yes"/>
      <point x="761" y="385"/>
      <point x="716" y="482"/>
      <point x="592" y="482" type="curve" smooth="yes"/>
      <point x="380" y="482" type="line"/>
      <point x="380" y="410" type="line"/>
      <point x="618" y="410" type="line" smooth="yes"/>
      <point x="684" y="410"/>
      <point x="691" y="388"/>
      <point x="691" y="370" type="curve" smooth="yes"/>
      <point x="691" y="328"/>
      <point x="643" y="298"/>
      <point x="548" y="272" type="curve"/>
      <point x="568" y="158"/>
      <point x="653" y="67"/>
      <point x="754" y="67" type="curve" smooth="yes"/>
      <point x="789" y="67"/>
      <point x="827" y="77"/>
      <point x="859" y="97" type="curve"/>
      <point x="875" y="89" type="line"/>
    </contour>
    <contour>
      <point x="864" y="581" type="line"/>
      <point x="860" y="7" type="line"/>
      <point x="940" y="-45" type="line"/>
      <point x="950" y="-45" type="line"/>
      <point x="948" y="581" type="line"/>
    </contour>
    <contour>
      <point x="1065" y="545" type="line"/>
      <point x="1065" y="555" type="line"/>
      <point x="1031" y="620" type="line"/>
      <point x="374" y="620" type="line"/>
      <point x="374" y="545" type="line"/>
    </contour>
  </outline>
  <guideline angle="0" x="0" y="-348"/>
  <guideline angle="90" x="436" y="0"/>
</glyph>
<glyph name="dDdDha" format="2">
  <advance width="579"/>
  <outline>
    <contour>
      <point x="358" y="80" type="curve" smooth="yes"/>
      <point x="518" y="80"/>
      <point x="520" y="192"/>
      <point x="520" y="194" type="curve"/>
      <point x="520" y="263"/>
      <point x="444" y="335"/>
      <point x="389" y="335" type="curve" smooth="yes"/>
      <point x="358" y="335"/>
      <point x="264" y="313"/>
      <point x="241" y="313" type="curve" smooth="yes"/>
      <point x="220" y="313"/>
      <point x="195" y="333"/>
      <point x="195" y="365" type="curve" smooth="yes"/>
      <point x="195" y="397"/>
      <point x="218" y="410"/>
      <point x="260" y="410" type="curve" smooth="yes"/>
      <point x="450" y="410" type="line"/>
      <point x="462" y="418" type="line"/>
      <point x="462" y="469"/>
      <point x="462" y="513"/>
      <point x="461" y="578" type="curve"/>
      <point x="381" y="578" type="line"/>
      <point x="381" y="482" type="line"/>
      <point x="242" y="482" type="line" smooth="yes"/>
      <point x="161" y="482"/>
      <point x="123" y="451"/>
      <point x="123" y="402" type="curve" smooth="yes"/>
      <point x="123" y="326"/>
      <point x="212" y="243"/>
      <point x="276" y="243" type="curve" smooth="yes"/>
      <point x="308" y="243"/>
      <point x="383" y="264"/>
      <point x="417" y="264" type="curve" smooth="yes"/>
      <point x="442" y="264"/>
      <point x="452" y="253"/>
      <point x="452" y="226" type="curve" smooth="yes"/>
      <point x="452" y="201"/>
      <point x="443" y="152"/>
      <point x="331" y="152" type="curve" smooth="yes"/>
      <point x="208" y="152"/>
      <point x="142" y="216"/>
      <point x="88" y="306" type="curve"/>
      <point x="52" y="287" type="line"/>
      <point x="123" y="161"/>
      <point x="228" y="80"/>
    </contour>
    <contour>
      <point x="321" y="-271" type="curve" smooth="yes"/>
      <point x="357" y="-271"/>
      <point x="400" y="-262"/>
      <point x="446" y="-236" type="curve"/>
      <point x="446" y="-149" type="line"/>
      <point x="372" y="-201"/>
      <point x="319" y="-217"/>
      <point x="281" y="-217" type="curve" smooth="yes"/>
      <point x="242" y="-217"/>
      <point x="210" y="-200"/>
      <point x="210" y="-170" type="curve" smooth="yes"/>
      <point x="210" y="-136"/>
      <point x="245" y="-98"/>
      <point x="361" y="-88" type="curve"/>
      <point x="330" y="-22" type="line"/>
      <point x="177" y="-34"/>
      <point x="149" y="-95"/>
      <point x="149" y="-135" type="curve" smooth="yes"/>
      <point x="149" y="-190"/>
      <point x="213" y="-271"/>
    </contour>
    <contour>
      <point x="197" y="-59" type="line"/>
      <point x="191" y="-60"/>
      <point x="185" y="-60"/>
      <point x="180" y="-60" type="curve" smooth="yes"/>
      <point x="136" y="-60"/>
      <point x="108" y="-36"/>
      <point x="108" y="1" type="curve" smooth="yes"/>
      <point x="108" y="35"/>
      <point x="131" y="57"/>
      <point x="167" y="57" type="curve" smooth="yes"/>
      <point x="197" y="57"/>
      <point x="216" y="42"/>
      <point x="229" y="-2" type="curve"/>
      <point x="238" y="-2" type="line"/>
      <point x="239" y="4"/>
      <point x="240" y="12"/>
      <point x="240" y="21" type="curve" smooth="yes"/>
      <point x="240" y="71"/>
      <point x="207" y="116"/>
      <point x="146" y="116" type="curve" smooth="yes"/>
      <point x="90" y="116"/>
      <point x="51" y="78"/>
      <point x="51" y="25" type="curve" smooth="yes"/>
      <point x="51" y="-28"/>
      <point x="91" y="-82"/>
      <point x="169" y="-102" type="curve"/>
    </contour>
    <contour>
      <point x="506" y="-335" type="line"/>
      <point x="501" y="160" type="line"/>
      <point x="427" y="121" type="line"/>
      <point x="426" y="-290" type="line"/>
      <point x="497" y="-335" type="line"/>
    </contour>
    <contour>
      <point x="607" y="545" type="line"/>
      <point x="607" y="555" type="line"/>
      <point x="573" y="620" type="line"/>
      <point x="-28" y="620" type="line"/>
      <point x="-28" y="610" type="line"/>
      <point x="6" y="545" type="line"/>
    </contour>
  </outline>
</glyph>
<glyph name="dDdGYa" format="2">
  <advance width="1030"/>
  <outline>
    <contour>
      <point x="747" y="67" type="curve" smooth="yes"/>
      <point x="782" y="67"/>
      <point x="820" y="77"/>
      <point x="852" y="97" type="curve"/>
      <point x="869" y="89" type="line"/>
      <point x="869" y="206" type="line"/>
      <point x="815" y="157"/>
      <point x="759" y="130"/>
      <point x="716" y="130" type="curve" smooth="yes"/>
      <point x="666" y="130"/>
      <point x="628" y="169"/>
      <point x="627" y="212" type="curve"/>
      <point x="718" y="240"/>
      <point x="754" y="277"/>
      <point x="754" y="329" type="curve" smooth="yes"/>
      <point x="754" y="385"/>
      <point x="709" y="482"/>
      <point x="585" y="482" type="curve" smooth="yes"/>
      <point x="221" y="482" type="line" smooth="yes"/>
      <point x="139" y="482"/>
      <point x="102" y="451"/>
      <point x="102" y="401" type="curve" smooth="yes"/>
      <point x="102" y="327"/>
      <point x="191" y="243"/>
      <point x="254" y="243" type="curve" smooth="yes"/>
      <point x="288" y="243"/>
      <point x="361" y="264"/>
      <point x="397" y="264" type="curve" smooth="yes"/>
      <point x="421" y="264"/>
      <point x="431" y="252"/>
      <point x="431" y="227" type="curve" smooth="yes"/>
      <point x="431" y="201"/>
      <point x="422" y="152"/>
      <point x="310" y="152" type="curve" smooth="yes"/>
      <point x="188" y="152"/>
      <point x="128" y="210"/>
      <point x="76" y="298" type="curve"/>
      <point x="39" y="278" type="line"/>
      <point x="106" y="154"/>
      <point x="208" y="80"/>
      <point x="336" y="80" type="curve" smooth="yes"/>
      <point x="498" y="80"/>
      <point x="499" y="184"/>
      <point x="499" y="194" type="curve" smooth="yes"/>
      <point x="499" y="263"/>
      <point x="423" y="335"/>
      <point x="368" y="335" type="curve" smooth="yes"/>
      <point x="336" y="335"/>
      <point x="244" y="313"/>
      <point x="220" y="313" type="curve" smooth="yes"/>
      <point x="199" y="313"/>
      <point x="174" y="333"/>
      <point x="174" y="365" type="curve" smooth="yes"/>
      <point x="174" y="397"/>
      <point x="197" y="410"/>
      <point x="239" y="410" type="curve" smooth="yes"/>
      <point x="611" y="410" type="line" smooth="yes"/>
      <point x="677" y="410"/>
      <point x="684" y="388"/>
      <point x="684" y="370" type="curve" smooth="yes"/>
      <point x="684" y="328"/>
      <point x="636" y="298"/>
      <point x="541" y="272" type="curve"/>
      <point x="561" y="158"/>
      <point x="646" y="67"/>
    </contour>
    <contour>
      <point x="209" y="-160" type="curve" smooth="yes"/>
      <point x="224" y="-160"/>
      <point x="232" y="-152"/>
      <point x="232" y="-135" type="curve" smooth="yes"/>
      <point x="231" y="143" type="line"/>
      <point x="160" y="143" type="line"/>
      <point x="158" y="1" type="line"/>
      <point x="99" y="1" type="line" smooth="yes"/>
      <point x="81" y="1"/>
      <point x="74" y="-10"/>
      <point x="74" y="-22" type="curve" smooth="yes"/>
      <point x="74" y="-73"/>
      <point x="165" y="-160"/>
    </contour>
    <contour>
      <point x="459" y="-272" type="line"/>
      <point x="455" y="150" type="line"/>
      <point x="380" y="121" type="line"/>
      <point x="379" y="-227" type="line"/>
      <point x="450" y="-272" type="line"/>
    </contour>
    <contour>
      <point x="441" y="437" type="line"/>
      <point x="441" y="477"/>
      <point x="441" y="551"/>
      <point x="440" y="593" type="curve"/>
      <point x="360" y="593" type="line"/>
      <point x="360" y="437" type="line"/>
    </contour>
    <contour>
      <point x="1058" y="545" type="line"/>
      <point x="1058" y="555" type="line"/>
      <point x="1024" y="620" type="line"/>
      <point x="-28" y="620" type="line"/>
      <point x="-28" y="610" type="line"/>
      <point x="6" y="545" type="line"/>
    </contour>
    <contour>
      <point x="943" y="-45" type="line"/>
      <point x="941" y="593" type="line"/>
      <point x="857" y="593" type="line"/>
      <point x="853" y="7" type="line"/>
      <point x="933" y="-45" type="line"/>
    </contour>
  </outline>
</glyph>
<glyph name="dDdJYa" format="2">
  <advance width="1053"/>
  <outline>
    <component base="dDdJa"/>
    <contour>
      <point x="892" y="206" type="line"/>
      <point x="838" y="157"/>
      <point x="782" y="130"/>
      <point x="739" y="130" type="curve" smooth="yes"/>
      <point x="689" y="130"/>
      <point x="651" y="169"/>
      <point x="650" y="212" type="curve"/>
      <point x="741" y="240"/>
      <point x="777" y="277"/>
      <point x="777" y="329" type="curve" smooth="yes"/>
      <point x="777" y="385"/>
      <point x="732" y="482"/>
      <point x="608" y="482" type="curve" smooth="yes"/>
      <point x="396" y="482" type="line"/>
      <point x="396" y="410" type="line"/>
      <point x="634" y="410" type="line" smooth="yes"/>
      <point x="700" y="410"/>
      <point x="707" y="388"/>
      <point x="707" y="370" type="curve" smooth="yes"/>
      <point x="707" y="328"/>
      <point x="659" y="298"/>
      <point x="564" y="272" type="curve"/>
      <point x="584" y="158"/>
      <point x="669" y="67"/>
      <point x="770" y="67" type="curve" smooth="yes"/>
      <point x="805" y="67"/>
      <point x="843" y="77"/>
      <point x="875" y="97" type="curve"/>
      <point x="891" y="89" type="line"/>
    </contour>
    <contour>
      <point x="880" y="571" type="line"/>
      <point x="876" y="7" type="line"/>
      <point x="956" y="-45" type="line"/>
      <point x="966" y="-45" type="line"/>
      <point x="964" y="571" type="line"/>
    </contour>
    <contour>
      <point x="1081" y="545" type="line"/>
      <point x="1081" y="555" type="line"/>
      <point x="1047" y="620" type="line"/>
      <point x="390" y="620" type="line"/>
      <point x="390" y="545" type="line"/>
    </contour>
  </outline>
</glyph>
<glyph name="dDdJa" format="2">
  <advance width="565"/>
  <outline>
    <contour>
      <point x="343" y="80" type="curve" smooth="yes"/>
      <point x="505" y="80"/>
      <point x="506" y="196"/>
      <point x="506" y="194" type="curve"/>
      <point x="506" y="263"/>
      <point x="430" y="335"/>
      <point x="375" y="335" type="curve" smooth="yes"/>
      <point x="344" y="335"/>
      <point x="250" y="313"/>
      <point x="227" y="313" type="curve" smooth="yes"/>
      <point x="206" y="313"/>
      <point x="181" y="333"/>
      <point x="181" y="365" type="curve" smooth="yes"/>
      <point x="181" y="397"/>
      <point x="204" y="410"/>
      <point x="246" y="410" type="curve" smooth="yes"/>
      <point x="436" y="410" type="line"/>
      <point x="448" y="418" type="line"/>
      <point x="448" y="469"/>
      <point x="448" y="523"/>
      <point x="447" y="583" type="curve"/>
      <point x="367" y="583" type="line"/>
      <point x="367" y="482" type="line"/>
      <point x="228" y="482" type="line" smooth="yes"/>
      <point x="147" y="482"/>
      <point x="109" y="451"/>
      <point x="109" y="402" type="curve" smooth="yes"/>
      <point x="109" y="326"/>
      <point x="198" y="243"/>
      <point x="262" y="243" type="curve" smooth="yes"/>
      <point x="294" y="243"/>
      <point x="369" y="264"/>
      <point x="403" y="264" type="curve" smooth="yes"/>
      <point x="429" y="264"/>
      <point x="438" y="252"/>
      <point x="438" y="226" type="curve" smooth="yes"/>
      <point x="438" y="201"/>
      <point x="430" y="152"/>
      <point x="316" y="152" type="curve" smooth="yes"/>
      <point x="189" y="152"/>
      <point x="129" y="214"/>
      <point x="74" y="305" type="curve"/>
      <point x="37" y="285" type="line"/>
      <point x="107" y="158"/>
      <point x="209" y="80"/>
    </contour>
    <contour>
      <point x="260" y="-248" type="curve" smooth="yes"/>
      <point x="320" y="-248"/>
      <point x="371" y="-213"/>
      <point x="371" y="-152" type="curve" smooth="yes"/>
      <point x="371" y="-109"/>
      <point x="346" y="-73"/>
      <point x="289" y="-24" type="curve"/>
      <point x="225" y="-31" type="line"/>
      <point x="283" y="-53"/>
      <point x="308" y="-86"/>
      <point x="308" y="-119" type="curve" smooth="yes"/>
      <point x="308" y="-153"/>
      <point x="282" y="-180"/>
      <point x="239" y="-180" type="curve" smooth="yes"/>
      <point x="169" y="-180"/>
      <point x="111" y="-110"/>
      <point x="54" y="8" type="curve"/>
      <point x="19" y="-7" type="line"/>
      <point x="76" y="-126"/>
      <point x="149" y="-248"/>
    </contour>
    <contour>
      <point x="466" y="-39" type="line"/>
      <point x="466" y="24" type="line"/>
      <point x="203" y="24" type="line"/>
      <point x="203" y="15" type="line"/>
      <point x="225" y="-31" type="line"/>
      <point x="290" y="-39" type="line"/>
    </contour>
    <contour>
      <point x="502" y="-325" type="line"/>
      <point x="500" y="212" type="line"/>
      <point x="430" y="142" type="line"/>
      <point x="425" y="-282" type="line"/>
      <point x="493" y="-325" type="line"/>
    </contour>
    <contour>
      <point x="593" y="545" type="line"/>
      <point x="593" y="555" type="line"/>
      <point x="559" y="620" type="line"/>
      <point x="-28" y="620" type="line"/>
      <point x="-28" y="610" type="line"/>
      <point x="6" y="545" type="line"/>
    </contour>
  </outline>
</glyph>
<glyph name="dDdLa" format="2">
  <advance width="550"/>
  <outline>
    <contour>
      <point x="336" y="80" type="curve" smooth="yes"/>
      <point x="498" y="80"/>
      <point x="499" y="184"/>
      <point x="499" y="194" type="curve" smooth="yes"/>
      <point x="499" y="263"/>
      <point x="423" y="335"/>
      <point x="368" y="335" type="curve" smooth="yes"/>
      <point x="336" y="335"/>
      <point x="244" y="313"/>
      <point x="220" y="313" type="curve" smooth="yes"/>
      <point x="199" y="313"/>
      <point x="174" y="333"/>
      <point x="174" y="365" type="curve" smooth="yes"/>
      <point x="174" y="397"/>
      <point x="197" y="410"/>
      <point x="239" y="410" type="curve" smooth="yes"/>
      <point x="429" y="410" type="line"/>
      <point x="441" y="418" type="line"/>
      <point x="441" y="469"/>
      <point x="441" y="523"/>
      <point x="440" y="583" type="curve"/>
      <point x="360" y="583" type="line"/>
      <point x="360" y="482" type="line"/>
      <point x="221" y="482" type="line" smooth="yes"/>
      <point x="139" y="482"/>
      <point x="102" y="451"/>
      <point x="102" y="401" type="curve" smooth="yes"/>
      <point x="102" y="327"/>
      <point x="191" y="243"/>
      <point x="254" y="243" type="curve" smooth="yes"/>
      <point x="288" y="243"/>
      <point x="361" y="264"/>
      <point x="397" y="264" type="curve" smooth="yes"/>
      <point x="421" y="264"/>
      <point x="431" y="252"/>
      <point x="431" y="227" type="curve" smooth="yes"/>
      <point x="431" y="201"/>
      <point x="422" y="152"/>
      <point x="310" y="152" type="curve" smooth="yes"/>
      <point x="188" y="152"/>
      <point x="128" y="210"/>
      <point x="76" y="298" type="curve"/>
      <point x="39" y="278" type="line"/>
      <point x="106" y="154"/>
      <point x="208" y="80"/>
    </contour>
    <contour>
      <point x="198" y="-312" type="line"/>
      <point x="237" y="-280" type="line"/>
      <point x="144" y="-207"/>
      <point x="115" y="-158"/>
      <point x="115" y="-107" type="curve" smooth="yes"/>
      <point x="115" y="-52"/>
      <point x="149" y="-29"/>
      <point x="189" y="-29" type="curve" smooth="yes"/>
      <point x="220" y="-29"/>
      <point x="245" y="-45"/>
      <point x="268" y="-73" type="curve"/>
      <point x="289" y="-42" type="line"/>
      <point x="255" y="0"/>
      <point x="218" y="38"/>
      <point x="157" y="38" type="curve" smooth="yes"/>
      <point x="86" y="38"/>
      <point x="41" y="-11"/>
      <point x="41" y="-77" type="curve" smooth="yes"/>
      <point x="41" y="-160"/>
      <point x="112" y="-234"/>
      <point x="188" y="-312" type="curve"/>
    </contour>
    <contour>
      <point x="448" y="-268" type="line"/>
      <point x="496" y="-215"/>
      <point x="519" y="-152"/>
      <point x="519" y="-108" type="curve" smooth="yes"/>
      <point x="519" y="-47"/>
      <point x="474" y="36"/>
      <point x="390" y="36" type="curve" smooth="yes"/>
      <point x="318" y="36"/>
      <point x="265" y="-25"/>
      <point x="224" y="-114" type="curve"/>
      <point x="290" y="-155" type="line"/>
      <point x="329" y="-67"/>
      <point x="372" y="-23"/>
      <point x="415" y="-23" type="curve" smooth="yes"/>
      <point x="442" y="-23"/>
      <point x="462" y="-42"/>
      <point x="462" y="-75" type="curve" smooth="yes"/>
      <point x="462" y="-111"/>
      <point x="440" y="-154"/>
      <point x="378" y="-217" type="curve"/>
      <point x="440" y="-268" type="line"/>
    </contour>
    <contour>
      <point x="336" y="-50" type="line"/>
      <point x="336" y="127" type="line"/>
      <point x="260" y="127" type="line"/>
      <point x="259" y="-88" type="line"/>
    </contour>
    <contour>
      <point x="578" y="545" type="line"/>
      <point x="578" y="555" type="line"/>
      <point x="544" y="620" type="line"/>
      <point x="-28" y="620" type="line"/>
      <point x="-28" y="610" type="line"/>
      <point x="6" y="545" type="line"/>
    </contour>
  </outline>
</glyph>
<glyph name="dDdVYa" format="2">
  <advance width="1058"/>
  <outline>
    <component base="dDdVa"/>
    <contour>
      <point x="775" y="55" type="curve" smooth="yes"/>
      <point x="810" y="55"/>
      <point x="848" y="65"/>
      <point x="880" y="85" type="curve"/>
      <point x="896" y="77" type="line"/>
      <point x="897" y="194" type="line"/>
      <point x="843" y="145"/>
      <point x="787" y="118"/>
      <point x="744" y="118" type="curve" smooth="yes"/>
      <point x="695" y="118"/>
      <point x="657" y="153"/>
      <point x="656" y="194" type="curve"/>
      <point x="747" y="222"/>
      <point x="783" y="258"/>
      <point x="783" y="309" type="curve" smooth="yes"/>
      <point x="783" y="364"/>
      <point x="738" y="460"/>
      <point x="614" y="460" type="curve" smooth="yes"/>
      <point x="435" y="460" type="line"/>
      <point x="435" y="385" type="line"/>
      <point x="640" y="385" type="line" smooth="yes"/>
      <point x="706" y="385"/>
      <point x="713" y="366"/>
      <point x="713" y="350" type="curve" smooth="yes"/>
      <point x="713" y="309"/>
      <point x="665" y="279"/>
      <point x="570" y="254" type="curve"/>
      <point x="590" y="142"/>
      <point x="674" y="55"/>
    </contour>
    <contour>
      <point x="971" y="-45" type="line"/>
      <point x="969" y="581" type="line"/>
      <point x="885" y="581" type="line"/>
      <point x="881" y="7" type="line"/>
      <point x="961" y="-45" type="line"/>
    </contour>
    <contour>
      <point x="1086" y="545" type="line"/>
      <point x="1086" y="555" type="line"/>
      <point x="1052" y="620" type="line"/>
      <point x="531" y="620" type="line"/>
      <point x="531" y="545" type="line"/>
    </contour>
  </outline>
</glyph>
